<svg xmlns="http://www.w3.org/2000/svg" xmlns:xlink="http://www.w3.org/1999/xlink" width="61.256" height="57.444" viewBox="0 0 61.256 57.444"><defs><linearGradient id="a" x1="0.075" y1="1.023" x2="0.874" y2="0.144" gradientUnits="objectBoundingBox"><stop offset="0" stop-color="#c1007d"/><stop offset="1" stop-color="#e5004f"/></linearGradient></defs><path d="M532.722,278.522c0-.668.2-.869.869-.869h1.471c.6,0,.869.2.869.869v5.551h7.891a11.116,11.116,0,0,1,11.1,11.1v28.889a11.1,11.1,0,0,1-11.1,11.035H504.769a11.059,11.059,0,0,1-11.1-11.035V295.174a11.073,11.073,0,0,1,11.1-11.1h7.891v-5.551c0-.668.2-.869.869-.869H515c.6,0,.869.2.869.869v5.551h16.852Zm-28.087,24.609a3.983,3.983,0,0,0,4.013,4.013,4.012,4.012,0,0,0,0-8.025A3.982,3.982,0,0,0,504.635,303.132Zm0,14.177a3.982,3.982,0,0,0,4.013,4.012,4.024,4.024,0,0,0,4.012-4.012,3.982,3.982,0,0,0-4.012-4.013A3.942,3.942,0,0,0,504.635,317.309Zm8.025-26.548c0,.6.2.869.869.869H515c.6,0,.869-.268.869-.869v-5.216h-3.21Zm7.625,12.371a4.012,4.012,0,1,0,4.011-4.012A4.024,4.024,0,0,0,520.284,303.132Zm0,14.177a4.012,4.012,0,0,0,8.025,0,4.012,4.012,0,1,0-8.025,0Zm12.438-26.548c0,.6.2.869.869.869h1.471c.6,0,.869-.268.869-.869v-5.216h-3.21Zm3.21,12.371a4.012,4.012,0,1,0,4.012-4.012A4.025,4.025,0,0,0,535.932,303.132Zm0,14.177a4.012,4.012,0,0,0,8.025,0,4.012,4.012,0,1,0-8.025,0Z" transform="translate(-493.668 -277.653)" fill="url(#a)"/></svg>