<svg xmlns="http://www.w3.org/2000/svg" xmlns:xlink="http://www.w3.org/1999/xlink" width="63.667" height="69.202" viewBox="0 0 63.667 69.202"><defs><linearGradient id="a" x1="0.027" y1="1.123" x2="0.865" y2="0.298" gradientUnits="objectBoundingBox"><stop offset="0" stop-color="#c1007d"/><stop offset="1" stop-color="#d9003f"/></linearGradient></defs><g transform="translate(-582.15 104.281)"><path d="M583.52-38.864a8.99,8.99,0,0,1-1.37-4.587V-71.862a7.416,7.416,0,0,1,1.612-4.829l18.672,18.832Zm2.818-40.647,6.76-6.76v13.521Zm32.838,20.767,22.456,22.538a8.362,8.362,0,0,1-4.184,1.128H590.523a8.133,8.133,0,0,1-4.185-1.128l22.375-22.538A7.694,7.694,0,0,1,619.176-58.744Zm11.833-33.163v23.1l-8.212,8.29-.885-.885a11.521,11.521,0,0,0-15.936,0l-.885.8-8.212-8.291v-23.02a2.262,2.262,0,0,1,2.416-2.333h29.3A2.262,2.262,0,0,1,631.009-91.906Zm-26.242-6.2,3.946-4.023a7.436,7.436,0,0,1,10.382-.083l4.188,4.106Zm41.05,26.241v28.411a8.169,8.169,0,0,1-1.448,4.587L625.454-57.777l18.753-18.914A7.43,7.43,0,0,1,645.817-71.862Zm-4.185-7.648-6.76,6.842V-86.431Z" fill="url(#a)"/></g></svg>