<?xml version="1.0" encoding="UTF-8" standalone="no"?>
<!-- Generator: Adobe Illustrator 23.0.2, SVG Export Plug-In . SVG Version: 6.00 Build 0)  -->

<svg
   xmlns:dc="http://purl.org/dc/elements/1.1/"
   xmlns:cc="http://creativecommons.org/ns#"
   xmlns:rdf="http://www.w3.org/1999/02/22-rdf-syntax-ns#"
   xmlns:svg="http://www.w3.org/2000/svg"
   xmlns="http://www.w3.org/2000/svg"
   xmlns:sodipodi="http://sodipodi.sourceforge.net/DTD/sodipodi-0.dtd"
   xmlns:inkscape="http://www.inkscape.org/namespaces/inkscape"
   version="1.1"
   id="Layer_1"
   x="0px"
   y="0px"
   viewBox="0 0 71 66"
   style="enable-background:new 0 0 71 66;"
   xml:space="preserve"
   sodipodi:docname="email-ico-1.svg"
   inkscape:version="0.92.2 (5c3e80d, 2017-08-06)"><metadata
     id="metadata19"><rdf:RDF><cc:Work
         rdf:about=""><dc:format>image/svg+xml</dc:format><dc:type
           rdf:resource="http://purl.org/dc/dcmitype/StillImage" /><dc:title></dc:title></cc:Work></rdf:RDF></metadata><defs
     id="defs17" /><sodipodi:namedview
     pagecolor="#ffffff"
     bordercolor="#666666"
     borderopacity="1"
     objecttolerance="10"
     gridtolerance="10"
     guidetolerance="10"
     inkscape:pageopacity="0"
     inkscape:pageshadow="2"
     inkscape:window-width="1366"
     inkscape:window-height="705"
     id="namedview15"
     showgrid="false"
     inkscape:zoom="3.5757576"
     inkscape:cx="30.605932"
     inkscape:cy="33"
     inkscape:window-x="-8"
     inkscape:window-y="-8"
     inkscape:window-maximized="1"
     inkscape:current-layer="Layer_1" /><style
     type="text/css"
     id="style2">
	.st0{fill:#E5004F;}
	.st1{fill:none;stroke:#E5004F;stroke-width:5;stroke-linecap:round;stroke-miterlimit:10;}
</style><g
     id="g8"><g
       id="g6"><path
         class="st0"
         d="M0,40.64V9.36c0-2.05,0.66-3.94,1.81-5.5L22.66,24.8L1.64,45.98C0.57,44.42,0,42.61,0,40.64z M43.76,28.74    l1.15-1.07l20.85,21.02c-1.4,0.82-3.04,1.31-4.84,1.31H9.36c-1.81,0-3.45-0.49-4.93-1.31l20.94-21.1l1.15,1.15    C31.2,33.5,39.08,33.5,43.76,28.74z M65.6,1.23L40.97,26.03c-3.2,3.2-8.54,3.12-11.66,0L4.76,1.23C6.08,0.41,7.72,0,9.36,0h51.56    C62.64,0,64.2,0.41,65.6,1.23z M70.36,9.36v31.28c0,1.97-0.66,3.86-1.72,5.34l-21.02-21.1L68.47,3.86    C69.62,5.42,70.36,7.31,70.36,9.36z"
         id="path4" /></g></g></svg>