<?xml version="1.0" encoding="utf-8"?>
<!-- Generator: Adobe Illustrator 23.0.2, SVG Export Plug-In . SVG Version: 6.00 Build 0)  -->
<svg version="1.1" id="Layer_1" xmlns="http://www.w3.org/2000/svg" xmlns:xlink="http://www.w3.org/1999/xlink" x="0px" y="0px"
	 viewBox="0 0 22 22" style="enable-background:new 0 0 22 22;" xml:space="preserve">
<style type="text/css">
	.st0{fill:#D80140;}
</style>
<path class="st0" d="M18.73,0H3.27C1.47,0,0,1.47,0,3.27v15.47C0,20.53,1.47,22,3.27,22h6.19v-8.68H6.77v-3.11h2.69v-2.3
	c0-2.66,1.63-4.11,4-4.11c1.14,0,2.12,0.08,2.4,0.12v2.78h-1.65c-1.29,0-1.54,0.62-1.54,1.52v1.99h3.08l-0.4,3.11h-2.68V22h6.06
	c1.8,0,3.27-1.47,3.27-3.27V3.27C22,1.47,20.53,0,18.73,0z"/>
</svg>
