<?xml version="1.0" encoding="utf-8"?>
<!-- Generator: Adobe Illustrator 23.0.2, SVG Export Plug-In . SVG Version: 6.00 Build 0)  -->
<svg version="1.1" id="Layer_1" xmlns="http://www.w3.org/2000/svg" xmlns:xlink="http://www.w3.org/1999/xlink" x="0px" y="0px"
	 viewBox="0 0 22 22" style="enable-background:new 0 0 22 22;" xml:space="preserve">
<style type="text/css">
	.st0{fill:#D80140;}
</style>
<g>
	<g>
		<path class="st0" d="M12.67,21.31v-7.99h2.68l0.4-3.11h-3.08V8.23c0-0.9,0.25-1.52,1.54-1.52h1.65V3.93
			c-0.29-0.04-1.26-0.12-2.4-0.12c-2.38,0-4,1.45-4,4.11v2.3H6.77v3.11h2.69v7.99H12.67z"/>
	</g>
	<g>
		<path class="st0" d="M18.73,22H3.27C1.47,22,0,20.53,0,18.73V3.27C0,1.47,1.47,0,3.27,0h15.47C20.53,0,22,1.47,22,3.27v15.47
			C22,20.53,20.53,22,18.73,22z M3.27,1.38c-1.04,0-1.89,0.85-1.89,1.89v15.47c0,1.04,0.85,1.89,1.89,1.89h15.47
			c1.04,0,1.89-0.85,1.89-1.89V3.27c0-1.04-0.85-1.89-1.89-1.89H3.27z"/>
	</g>
</g>
</svg>
