<?xml version="1.0" encoding="utf-8"?>
<!-- Generator: Adobe Illustrator 23.0.2, SVG Export Plug-In . SVG Version: 6.00 Build 0)  -->
<svg version="1.1" id="Layer_1" xmlns="http://www.w3.org/2000/svg" xmlns:xlink="http://www.w3.org/1999/xlink" x="0px" y="0px"
	 viewBox="0 0 22 22" style="enable-background:new 0 0 22 22;" xml:space="preserve">
<style type="text/css">
	.st0{fill:#D80140;}
</style>
<g>
	<g>
		<path class="st0" d="M18.73,22H3.27C1.47,22,0,20.53,0,18.73V3.27C0,1.47,1.47,0,3.27,0h15.47C20.53,0,22,1.47,22,3.27v15.47
			C22,20.53,20.53,22,18.73,22z M3.27,1.38c-1.04,0-1.89,0.85-1.89,1.89v15.47c0,1.04,0.85,1.89,1.89,1.89h15.47
			c1.04,0,1.89-0.85,1.89-1.89V3.27c0-1.04-0.85-1.89-1.89-1.89H3.27z"/>
	</g>
	<g>
		<g>
			<path class="st0" d="M11,4.8c-1.68,0-1.89,0.01-2.55,0.04c-0.66,0.03-1.11,0.14-1.5,0.29C6.54,5.28,6.19,5.5,5.84,5.84
				C5.5,6.19,5.28,6.53,5.13,6.94c-0.15,0.39-0.26,0.85-0.29,1.5C4.81,9.11,4.8,9.32,4.8,11c0,1.68,0.01,1.89,0.04,2.55
				c0.03,0.66,0.13,1.11,0.29,1.5c0.16,0.41,0.37,0.75,0.72,1.1c0.34,0.34,0.69,0.56,1.1,0.72c0.39,0.15,0.85,0.26,1.5,0.29
				C9.11,17.19,9.32,17.2,11,17.2c1.68,0,1.89-0.01,2.55-0.04c0.66-0.03,1.11-0.13,1.5-0.29c0.41-0.16,0.75-0.37,1.1-0.72
				c0.34-0.34,0.56-0.69,0.71-1.1c0.15-0.39,0.26-0.85,0.29-1.5c0.03-0.66,0.04-0.87,0.04-2.55c0-1.68-0.01-1.89-0.04-2.55
				c-0.03-0.66-0.13-1.11-0.29-1.5c-0.16-0.4-0.37-0.75-0.71-1.1c-0.34-0.34-0.69-0.56-1.1-0.72c-0.39-0.15-0.85-0.26-1.5-0.29
				C12.89,4.81,12.68,4.8,11,4.8 M11,5.92c1.65,0,1.85,0,2.5,0.04c0.6,0.03,0.93,0.13,1.15,0.21c0.29,0.11,0.5,0.25,0.71,0.46
				c0.22,0.22,0.35,0.42,0.46,0.71c0.08,0.22,0.19,0.55,0.21,1.15c0.03,0.65,0.03,0.85,0.03,2.5c0,1.65,0,1.85-0.03,2.5
				c-0.03,0.6-0.13,0.93-0.21,1.15c-0.11,0.29-0.25,0.5-0.46,0.71c-0.22,0.22-0.42,0.35-0.71,0.46c-0.22,0.08-0.54,0.19-1.15,0.21
				c-0.65,0.03-0.85,0.03-2.5,0.03c-1.65,0-1.85,0-2.5-0.03C7.9,16,7.56,15.9,7.35,15.82c-0.29-0.11-0.5-0.25-0.71-0.46
				c-0.22-0.22-0.35-0.42-0.46-0.71c-0.08-0.22-0.19-0.55-0.21-1.15c-0.03-0.65-0.03-0.85-0.03-2.5c0-1.65,0-1.85,0.03-2.5
				c0.03-0.6,0.13-0.93,0.21-1.15c0.11-0.29,0.25-0.5,0.46-0.71c0.22-0.22,0.42-0.35,0.71-0.46C7.56,6.08,7.89,5.98,8.5,5.95
				C9.15,5.93,9.35,5.92,11,5.92"/>
		</g>
		<g>
			<path class="st0" d="M11,13.06c-1.14,0-2.06-0.92-2.06-2.06c0-1.14,0.93-2.06,2.06-2.06c1.14,0,2.06,0.92,2.06,2.06
				C13.07,12.13,12.14,13.06,11,13.06 M11,7.81c-1.76,0-3.18,1.42-3.18,3.18c0,1.75,1.43,3.18,3.18,3.18c1.75,0,3.18-1.43,3.18-3.18
				C14.18,9.24,12.76,7.81,11,7.81"/>
		</g>
		<g>
			<path class="st0" d="M14.31,6.95c0.41,0,0.74,0.33,0.74,0.74c0,0.41-0.33,0.74-0.74,0.74c-0.41,0-0.74-0.33-0.74-0.74
				C13.57,7.28,13.9,6.95,14.31,6.95"/>
		</g>
	</g>
</g>
</svg>
