<?xml version="1.0" encoding="utf-8"?>
<!-- Generator: Adobe Illustrator 23.0.2, SVG Export Plug-In . SVG Version: 6.00 Build 0)  -->
<svg version="1.1" id="Layer_1" xmlns="http://www.w3.org/2000/svg" xmlns:xlink="http://www.w3.org/1999/xlink" x="0px" y="0px"
	 viewBox="0 0 22 22" style="enable-background:new 0 0 22 22;" xml:space="preserve">
<style type="text/css">
	.st0{fill:#D80140;}
</style>
<path class="st0" d="M11,8.93c-1.14,0-2.06,0.92-2.06,2.06c0,1.14,0.92,2.06,2.06,2.06c1.14,0,2.07-0.92,2.06-2.06
	C13.06,9.86,12.14,8.93,11,8.93z M18.73,0H3.27C1.47,0,0,1.47,0,3.27v15.47C0,20.53,1.47,22,3.27,22h15.47
	c1.8,0,3.27-1.47,3.27-3.27V3.27C22,1.47,20.53,0,18.73,0z M17.16,13.55c-0.03,0.66-0.13,1.11-0.29,1.5
	c-0.16,0.41-0.37,0.75-0.71,1.1c-0.34,0.34-0.69,0.56-1.1,0.72c-0.4,0.15-0.85,0.26-1.5,0.29c-0.66,0.03-0.87,0.04-2.55,0.04
	c-1.68,0-1.89-0.01-2.55-0.04c-0.66-0.03-1.11-0.13-1.5-0.29c-0.41-0.16-0.75-0.37-1.1-0.72c-0.34-0.34-0.56-0.69-0.72-1.1
	c-0.15-0.4-0.26-0.85-0.29-1.5C4.81,12.89,4.8,12.68,4.8,11c0-1.68,0.01-1.89,0.04-2.55c0.03-0.66,0.13-1.11,0.29-1.5
	c0.16-0.41,0.37-0.75,0.72-1.1c0.34-0.34,0.69-0.56,1.1-0.72c0.4-0.15,0.85-0.26,1.5-0.29C9.11,4.81,9.32,4.8,11,4.8
	c1.68,0,1.89,0.01,2.55,0.04c0.66,0.03,1.11,0.14,1.5,0.29c0.41,0.16,0.75,0.37,1.1,0.72c0.34,0.34,0.56,0.69,0.71,1.1
	c0.15,0.4,0.26,0.85,0.29,1.5C17.19,9.11,17.2,9.32,17.2,11C17.2,12.68,17.19,12.89,17.16,13.55z M15.83,7.34
	c-0.11-0.29-0.24-0.49-0.46-0.71c-0.21-0.21-0.42-0.35-0.71-0.46c-0.22-0.09-0.55-0.19-1.15-0.21c-0.65-0.03-0.85-0.04-2.5-0.04
	c-1.65,0-1.85,0.01-2.5,0.04C7.89,5.98,7.56,6.08,7.35,6.17C7.06,6.28,6.85,6.41,6.64,6.63C6.42,6.84,6.29,7.05,6.17,7.34
	C6.09,7.56,5.99,7.89,5.96,8.49c-0.03,0.65-0.03,0.85-0.03,2.5c0,1.65,0,1.85,0.03,2.5c0.03,0.61,0.13,0.93,0.21,1.15
	c0.11,0.29,0.24,0.49,0.46,0.71c0.21,0.21,0.42,0.35,0.71,0.46C7.56,15.9,7.9,16,8.5,16.03c0.65,0.03,0.85,0.03,2.5,0.03
	c1.65,0,1.85,0,2.5-0.03c0.61-0.03,0.93-0.13,1.15-0.21c0.29-0.11,0.49-0.24,0.71-0.46c0.21-0.21,0.35-0.42,0.46-0.71
	c0.09-0.22,0.19-0.55,0.21-1.15c0.03-0.65,0.03-0.85,0.03-2.5c0-1.65,0-1.85-0.03-2.5C16.01,7.88,15.91,7.56,15.83,7.34z M11,14.17
	c-1.75,0-3.18-1.43-3.18-3.18c0-1.75,1.42-3.18,3.18-3.18c1.76,0,3.18,1.42,3.18,3.18C14.18,12.74,12.75,14.17,11,14.17z
	 M14.31,8.43c-0.41,0-0.74-0.33-0.74-0.74c0-0.41,0.33-0.74,0.74-0.74c0.41,0,0.74,0.33,0.74,0.74C15.05,8.1,14.72,8.43,14.31,8.43z
	"/>
</svg>
