<?xml version="1.0" encoding="utf-8"?>
<!-- Generator: Adobe Illustrator 23.0.2, SVG Export Plug-In . SVG Version: 6.00 Build 0)  -->
<svg version="1.1" id="Layer_1" xmlns="http://www.w3.org/2000/svg" xmlns:xlink="http://www.w3.org/1999/xlink" x="0px" y="0px"
	 viewBox="0 0 22 22" style="enable-background:new 0 0 22 22;" xml:space="preserve">
<style type="text/css">
	.st0{fill:#D80140;}
</style>
<g>
	<path class="st0" d="M11,9.07c0.82,0,1.5-0.69,1.5-1.5c0-0.82-0.69-1.5-1.5-1.5s-1.5,0.69-1.5,1.5C9.5,8.38,10.18,9.07,11,9.07z"/>
	<path class="st0" d="M18.73,0H3.27C1.47,0,0,1.47,0,3.27v15.47C0,20.53,1.47,22,3.27,22h15.47c1.8,0,3.27-1.47,3.27-3.27V3.27
		C22,1.47,20.53,0,18.73,0z M11,4.55c1.68,0,3.01,1.33,3.01,3.01c0,1.68-1.33,3.01-3.01,3.01c-1.68,0-3.01-1.33-3.01-3.01
		C7.99,5.89,9.32,4.55,11,4.55z M14.44,12.59c-0.52,0.3-2.15,0.99-2.15,0.99l1.8,2.32c0,0,0.34,0.43,0.34,0.69
		c0,0.47-0.39,0.86-0.86,0.86c-0.43,0-0.64-0.3-0.64-0.3L11,14.87l-1.98,2.28c0,0-0.22,0.3-0.65,0.3c-0.47,0-0.86-0.39-0.86-0.86
		c0-0.3,0.34-0.69,0.34-0.69l1.85-2.32c0,0-1.63-0.69-2.15-0.99c-0.17-0.09-0.43-0.3-0.43-0.73c0-0.47,0.39-0.86,0.86-0.86
		c0.43,0,1.29,0.86,3.01,0.86c1.72,0,2.58-0.86,3.01-0.86c0.47,0,0.86,0.39,0.86,0.86C14.87,12.29,14.61,12.46,14.44,12.59z"/>
</g>
</svg>
