<?xml version="1.0" encoding="utf-8"?>
<!-- Generator: Adobe Illustrator 23.0.2, SVG Export Plug-In . SVG Version: 6.00 Build 0)  -->
<svg version="1.1" id="Layer_1" xmlns="http://www.w3.org/2000/svg" xmlns:xlink="http://www.w3.org/1999/xlink" x="0px" y="0px"
	 viewBox="0 0 22 22" style="enable-background:new 0 0 22 22;" xml:space="preserve">
<style type="text/css">
	.st0{fill:#D80140;}
</style>
<path class="st0" d="M11,10.57c1.68,0,3.01-1.33,3.01-3.01c0-1.68-1.33-3.01-3.01-3.01c-1.68,0-3.01,1.33-3.01,3.01
	C7.99,9.24,9.32,10.57,11,10.57z M11,6.06c0.82,0,1.5,0.69,1.5,1.5c0,0.82-0.69,1.5-1.5,1.5c-0.82,0-1.5-0.69-1.5-1.5
	C9.5,6.75,10.18,6.06,11,6.06z M14.01,11c-0.43,0-1.29,0.86-3.01,0.86C9.28,11.86,8.42,11,7.99,11c-0.47,0-0.86,0.39-0.86,0.86
	c0,0.43,0.26,0.64,0.43,0.73c0.52,0.3,2.15,0.99,2.15,0.99L7.86,15.9c0,0-0.34,0.39-0.34,0.69c0,0.47,0.39,0.86,0.86,0.86
	c0.43,0,0.65-0.3,0.65-0.3L11,14.87l1.93,2.28c0,0,0.21,0.3,0.64,0.3c0.47,0,0.86-0.39,0.86-0.86c0-0.26-0.34-0.69-0.34-0.69
	l-1.8-2.32c0,0,1.63-0.69,2.15-0.99c0.17-0.13,0.43-0.3,0.43-0.73C14.87,11.39,14.48,11,14.01,11z M18.73,0H3.27
	C1.47,0,0,1.47,0,3.27v15.47C0,20.53,1.47,22,3.27,22h15.47c1.8,0,3.27-1.47,3.27-3.27V3.27C22,1.47,20.53,0,18.73,0z M20.62,18.73
	c0,1.04-0.85,1.89-1.89,1.89H3.27c-1.04,0-1.89-0.85-1.89-1.89V3.27c0-1.04,0.85-1.89,1.89-1.89h15.47c1.04,0,1.89,0.85,1.89,1.89
	V18.73z"/>
</svg>
