<svg xmlns="http://www.w3.org/2000/svg" width="16.738" height="22.424" viewBox="0 0 16.738 22.424"><path d="M403.036,290.666l-5.979,8.756a1.032,1.032,0,0,1-1.718,0l-6.052-8.853a8.395,8.395,0,1,1,13.748.1Zm-12.829-.707,5.979,8.733,5.91-8.639a7.238,7.238,0,1,0-13.114-4.238A7.368,7.368,0,0,0,390.207,289.96Zm6-8.193a4.061,4.061,0,1,0,4.073,4.049A4.049,4.049,0,0,0,396.209,281.767Zm0,1.131a2.931,2.931,0,1,1-2.919,2.919A2.937,2.937,0,0,1,396.209,282.9Z" transform="translate(-387.853 -277.458)" fill="#747474"/></svg>