<svg xmlns="http://www.w3.org/2000/svg" xmlns:xlink="http://www.w3.org/1999/xlink" width="304.364" height="195.234" viewBox="0 0 304.364 195.234"><defs><radialGradient id="a" cx="284.014" cy="413.452" r="44.75" gradientUnits="userSpaceOnUse"><stop offset="0" stop-color="#e5004f"/><stop offset="1" stop-color="#c1007d"/></radialGradient><radialGradient id="b" cx="409.875" cy="452.808" r="112.71" gradientTransform="translate(-27.384 -23.396) scale(1.154 1.154)" xlink:href="#a"/></defs><g transform="translate(-205.298 -265.424)"><path d="M264.79,402.4c30.029-12.478,78.446-26.337,133.4-42.089,33.816-9.692,50.009-33.929,51.661-56.717" fill="none" stroke="#b7b8b8" stroke-linecap="round" stroke-miterlimit="10" stroke-width="2" stroke-dasharray="8 6"/><path d="M364.567,361.992c1.954-.377,21.883-5.673,27.164-7.277,33.661-10.22,50.857-32.292,52.508-58.053" fill="none" stroke="#b7b8b8" stroke-linecap="round" stroke-miterlimit="10" stroke-width="2" stroke-dasharray="8 6"/><path d="M367,354.495c8.105-1.824,11.8-3.526,18.271-5.38,33.817-9.693,51.7-28.013,52.364-60.71" fill="none" stroke="#b7b8b8" stroke-linecap="round" stroke-miterlimit="10" stroke-width="2" stroke-dasharray="8 6"/><path d="M370.037,345.985c3.644-1.048,7.269-1.9,10.739-3.04,32.825-10.739,49.591-26.8,49.922-54.87" fill="none" stroke="#b7b8b8" stroke-linecap="round" stroke-miterlimit="10" stroke-width="2" stroke-dasharray="8 6"/><path d="M364.389,340.2l7.957-2.282c33.816-9.693,48.144-21.36,49.765-45.877" fill="none" stroke="#b7b8b8" stroke-linecap="round" stroke-miterlimit="10" stroke-width="2" stroke-dasharray="8 6"/><path d="M367.615,331.341c32.367-8.257,43.6-19.156,44.587-28.074" fill="none" stroke="#b7b8b8" stroke-linecap="round" stroke-miterlimit="10" stroke-width="2" stroke-dasharray="8 6"/><path d="M360.044,342.086c0-2.172,3.924-4.495,3.741-6.619-.187-2.16-4.454-3.773-4.822-5.877-.374-2.132,3.088-5.1,2.536-7.165-.558-2.089-5.041-2.933-5.774-4.945-.738-2.029,2.151-5.557,1.244-7.5s-5.474-2-6.549-3.859,1.152-5.843-.081-7.6-5.737-1.019-7.119-2.664.125-5.952-1.395-7.472-5.825-.011-7.472-1.4-.9-5.882-2.665-7.119-5.735,1-7.6-.081-1.9-5.636-3.859-6.548-5.469,1.982-7.5,1.244c-2.012-.733-2.856-5.216-4.945-5.774-2.065-.552-5.033,2.91-7.165,2.537-2.1-.369-3.716-4.636-5.876-4.822-2.124-.184-4.447,3.74-6.619,3.74s-4.494-3.924-6.618-3.74c-2.161.186-3.774,4.453-5.877,4.822-2.133.373-5.1-3.089-7.166-2.536-2.089.558-2.933,5.041-4.944,5.773-2.03.739-5.558-2.15-7.5-1.243s-2,5.474-3.86,6.548-5.843-1.151-7.6.082-1.019,5.737-2.664,7.119-5.952-.126-7.472,1.395-.011,5.824-1.395,7.472-5.882.9-7.119,2.665,1,5.735-.081,7.6-5.635,1.9-6.548,3.86,1.983,5.469,1.244,7.5c-.732,2.011-5.215,2.855-5.773,4.944-.553,2.065,2.909,5.033,2.536,7.166-.368,2.1-4.635,3.716-4.822,5.876-.183,2.124,3.741,4.447,3.741,6.618s-3.924,4.495-3.741,6.619c.187,2.16,4.454,3.774,4.822,5.877.374,2.132-3.088,5.1-2.536,7.166.558,2.088,5.041,2.932,5.774,4.944.738,2.029-2.151,5.557-1.244,7.5s5.474,2,6.549,3.859-1.152,5.843.081,7.6,5.737,1.019,7.119,2.665-.125,5.951,1.395,7.472,5.825.01,7.472,1.394.9,5.883,2.665,7.119,5.735-1,7.6.081,1.9,5.636,3.859,6.549,5.469-1.983,7.5-1.244c2.012.732,2.856,5.215,4.945,5.773,2.065.552,5.033-2.91,7.165-2.536,2.1.368,3.716,4.635,5.876,4.821,2.124.184,4.447-3.74,6.618-3.74s4.495,3.924,6.619,3.74c2.161-.186,3.774-4.453,5.877-4.822,2.133-.373,5.1,3.089,7.166,2.537,2.089-.559,2.933-5.042,4.944-5.774,2.03-.739,5.558,2.151,7.5,1.244s2-5.475,3.86-6.549,5.843,1.152,7.6-.081,1.019-5.737,2.664-7.12,5.952.126,7.472-1.395.011-5.824,1.395-7.472,5.882-.9,7.119-2.664-1-5.736.081-7.6,5.635-1.9,6.548-3.859-1.983-5.47-1.244-7.5c.732-2.011,5.215-2.855,5.773-4.944.552-2.065-2.909-5.033-2.536-7.165.368-2.1,4.635-3.717,4.822-5.877C363.968,346.58,360.044,344.258,360.044,342.086Z" fill="#fff"/><path d="M360.044,342.086c0-2.172,3.924-4.495,3.741-6.619-.187-2.16-4.454-3.773-4.822-5.877-.374-2.132,3.088-5.1,2.536-7.165-.558-2.089-5.041-2.933-5.774-4.945-.738-2.029,2.151-5.557,1.244-7.5s-5.474-2-6.549-3.859,1.152-5.843-.081-7.6-5.737-1.019-7.119-2.664.125-5.952-1.395-7.472-5.825-.011-7.472-1.4-.9-5.882-2.665-7.119-5.735,1-7.6-.081-1.9-5.636-3.859-6.548-5.469,1.982-7.5,1.244c-2.012-.733-2.856-5.216-4.945-5.774-2.065-.552-5.033,2.91-7.165,2.537-2.1-.369-3.716-4.636-5.876-4.822-2.124-.184-4.447,3.74-6.619,3.74s-4.494-3.924-6.618-3.74c-2.161.186-3.774,4.453-5.877,4.822-2.133.373-5.1-3.089-7.166-2.536-2.089.558-2.933,5.041-4.944,5.773-2.03.739-5.558-2.15-7.5-1.243s-2,5.474-3.86,6.548-5.843-1.151-7.6.082-1.019,5.737-2.664,7.119-5.952-.126-7.472,1.395-.011,5.824-1.395,7.472-5.882.9-7.119,2.665,1,5.735-.081,7.6-5.635,1.9-6.548,3.86,1.983,5.469,1.244,7.5c-.732,2.011-5.215,2.855-5.773,4.944-.553,2.065,2.909,5.033,2.536,7.166-.368,2.1-4.635,3.716-4.822,5.876-.183,2.124,3.741,4.447,3.741,6.618s-3.924,4.495-3.741,6.619c.187,2.16,4.454,3.774,4.822,5.877.374,2.132-3.088,5.1-2.536,7.166.558,2.088,5.041,2.932,5.774,4.944.738,2.029-2.151,5.557-1.244,7.5s5.474,2,6.549,3.859-1.152,5.843.081,7.6,5.737,1.019,7.119,2.665-.125,5.951,1.395,7.472,5.825.01,7.472,1.394.9,5.883,2.665,7.119,5.735-1,7.6.081,1.9,5.636,3.859,6.549,5.469-1.983,7.5-1.244c2.012.732,2.856,5.215,4.945,5.773,2.065.552,5.033-2.91,7.165-2.536,2.1.368,3.716,4.635,5.876,4.821,2.124.184,4.447-3.74,6.618-3.74s4.495,3.924,6.619,3.74c2.161-.186,3.774-4.453,5.877-4.822,2.133-.373,5.1,3.089,7.166,2.537,2.089-.559,2.933-5.042,4.944-5.774,2.03-.739,5.558,2.151,7.5,1.244s2-5.475,3.86-6.549,5.843,1.152,7.6-.081,1.019-5.737,2.664-7.12,5.952.126,7.472-1.395.011-5.824,1.395-7.472,5.882-.9,7.119-2.664-1-5.736.081-7.6,5.635-1.9,6.548-3.859-1.983-5.47-1.244-7.5c.732-2.011,5.215-2.855,5.773-4.944.552-2.065-2.909-5.033-2.536-7.165.368-2.1,4.635-3.717,4.822-5.877C363.968,346.58,360.044,344.258,360.044,342.086Z" fill="none" stroke="#b7b8b8" stroke-miterlimit="10" stroke-width="2"/><path d="M351.242,342.086c0-1.913,3.935-3.98,3.773-5.851-.164-1.9-4.4-3.263-4.722-5.115-.329-1.879,3.188-4.6,2.7-6.416-.492-1.84-4.9-2.44-5.543-4.212-.651-1.788,2.336-5.079,1.537-6.79s-5.247-1.542-6.193-3.178,1.418-5.4.332-6.954-5.434-.606-6.651-2.055.463-5.567-.876-6.906-5.455.343-6.906-.876-.5-5.561-2.056-6.651-5.31,1.283-6.953.332-1.457-5.389-3.179-6.193-5,2.189-6.789,1.539c-1.772-.646-2.371-5.051-4.211-5.543-1.82-.487-4.537,3.031-6.416,2.7-1.853-.325-3.212-4.558-5.115-4.723-1.871-.161-3.938,3.774-5.851,3.774s-3.98-3.935-5.851-3.774c-1.9.165-3.262,4.4-5.115,4.723-1.879.329-4.6-3.188-6.416-2.7-1.84.492-2.44,4.9-4.212,5.543-1.787.651-5.079-2.337-6.789-1.538s-1.543,5.247-3.179,6.194-5.4-1.418-6.953-.332-.606,5.434-2.056,6.651-5.566-.463-6.906.876.344,5.455-.875,6.906-5.562.5-6.652,2.056,1.284,5.31.333,6.953-5.389,1.457-6.193,3.178,2.189,5,1.538,6.789c-.645,1.772-5.051,2.372-5.543,4.212-.486,1.819,3.031,4.537,2.7,6.416-.324,1.852-4.558,3.211-4.722,5.114-.162,1.871,3.773,3.938,3.773,5.851s-3.935,3.98-3.773,5.852c.164,1.9,4.4,3.262,4.722,5.115.329,1.878-3.188,4.6-2.7,6.416.492,1.84,4.9,2.439,5.543,4.211.651,1.788-2.337,5.079-1.537,6.79s5.247,1.543,6.193,3.178-1.418,5.4-.332,6.954,5.434.606,6.651,2.055-.463,5.567.876,6.906,5.455-.343,6.906.876.5,5.562,2.056,6.651,5.31-1.283,6.953-.332,1.457,5.389,3.179,6.193,5-2.189,6.789-1.538c1.772.645,2.371,5.051,4.211,5.543,1.82.486,4.537-3.031,6.416-2.7,1.852.324,3.212,4.558,5.115,4.722,1.871.162,3.938-3.774,5.85-3.774s3.981,3.936,5.852,3.774c1.9-.164,3.262-4.4,5.115-4.723,1.879-.329,4.6,3.189,6.416,2.7,1.84-.492,2.44-4.9,4.212-5.543s5.079,2.337,6.789,1.538,1.543-5.247,3.179-6.193,5.4,1.418,6.953.331.606-5.433,2.056-6.651,5.566.464,6.906-.876-.344-5.454.875-6.906,5.562-.5,6.651-2.055-1.283-5.31-.332-6.954,5.389-1.456,6.193-3.178-2.189-5-1.538-6.789c.645-1.772,5.051-2.372,5.543-4.212.486-1.819-3.031-4.537-2.7-6.415.324-1.853,4.558-3.212,4.722-5.115C355.177,346.066,351.242,344,351.242,342.086Z" fill="#fff"/><path d="M351.242,342.086c0-1.913,3.935-3.98,3.773-5.851-.164-1.9-4.4-3.263-4.722-5.115-.329-1.879,3.188-4.6,2.7-6.416-.492-1.84-4.9-2.44-5.543-4.212-.651-1.788,2.336-5.079,1.537-6.79s-5.247-1.542-6.193-3.178,1.418-5.4.332-6.954-5.434-.606-6.651-2.055.463-5.567-.876-6.906-5.455.343-6.906-.876-.5-5.561-2.056-6.651-5.31,1.283-6.953.332-1.457-5.389-3.179-6.193-5,2.189-6.789,1.539c-1.772-.646-2.371-5.051-4.211-5.543-1.82-.487-4.537,3.031-6.416,2.7-1.853-.325-3.212-4.558-5.115-4.723-1.871-.161-3.938,3.774-5.851,3.774s-3.98-3.935-5.851-3.774c-1.9.165-3.262,4.4-5.115,4.723-1.879.329-4.6-3.188-6.416-2.7-1.84.492-2.44,4.9-4.212,5.543-1.787.651-5.079-2.337-6.789-1.538s-1.543,5.247-3.179,6.194-5.4-1.418-6.953-.332-.606,5.434-2.056,6.651-5.566-.463-6.906.876.344,5.455-.875,6.906-5.562.5-6.652,2.056,1.284,5.31.333,6.953-5.389,1.457-6.193,3.178,2.189,5,1.538,6.789c-.645,1.772-5.051,2.372-5.543,4.212-.486,1.819,3.031,4.537,2.7,6.416-.324,1.852-4.558,3.211-4.722,5.114-.162,1.871,3.773,3.938,3.773,5.851s-3.935,3.98-3.773,5.852c.164,1.9,4.4,3.262,4.722,5.115.329,1.878-3.188,4.6-2.7,6.416.492,1.84,4.9,2.439,5.543,4.211.651,1.788-2.337,5.079-1.537,6.79s5.247,1.543,6.193,3.178-1.418,5.4-.332,6.954,5.434.606,6.651,2.055-.463,5.567.876,6.906,5.455-.343,6.906.876.5,5.562,2.056,6.651,5.31-1.283,6.953-.332,1.457,5.389,3.179,6.193,5-2.189,6.789-1.538c1.772.645,2.371,5.051,4.211,5.543,1.82.486,4.537-3.031,6.416-2.7,1.852.324,3.212,4.558,5.115,4.722,1.871.162,3.938-3.774,5.85-3.774s3.981,3.936,5.852,3.774c1.9-.164,3.262-4.4,5.115-4.723,1.879-.329,4.6,3.189,6.416,2.7,1.84-.492,2.44-4.9,4.212-5.543s5.079,2.337,6.789,1.538,1.543-5.247,3.179-6.193,5.4,1.418,6.953.331.606-5.433,2.056-6.651,5.566.464,6.906-.876-.344-5.454.875-6.906,5.562-.5,6.651-2.055-1.283-5.31-.332-6.954,5.389-1.456,6.193-3.178-2.189-5-1.538-6.789c.645-1.772,5.051-2.372,5.543-4.212.486-1.819-3.031-4.537-2.7-6.415.324-1.853,4.558-3.212,4.722-5.115C355.177,346.066,351.242,344,351.242,342.086Z" fill="none" stroke="#b7b8b8" stroke-miterlimit="10" stroke-width="2"/><path d="M342.439,342.086c0-1.654,3.947-3.466,3.807-5.084-.142-1.646-4.343-2.751-4.623-4.353-.285-1.625,3.288-4.093,2.867-5.666-.425-1.592-4.754-1.947-5.312-3.48s2.523-4.6,1.832-6.08-5.02-1.083-5.839-2.5,1.685-4.967.745-6.306-5.13-.193-6.183-1.446.8-5.182-.357-6.34-5.084.7-6.34-.357-.1-5.241-1.446-6.183-4.885,1.568-6.306.746-1.009-5.143-2.5-5.838-4.533,2.4-6.079,1.832-1.888-4.886-3.479-5.312c-1.574-.42-4.041,3.152-5.665,2.868-1.6-.281-2.708-4.481-4.354-4.623-1.618-.14-3.429,3.806-5.084,3.806s-3.465-3.946-5.084-3.806c-1.645.142-2.751,4.342-4.353,4.623-1.625.285-4.092-3.288-5.666-2.867-1.591.425-1.947,4.754-3.479,5.312s-4.6-2.523-6.08-1.832-1.083,5.02-2.5,5.838-4.967-1.684-6.306-.745-.193,5.13-1.447,6.183-5.181-.8-6.34.357.7,5.085-.356,6.34-5.241.1-6.183,1.447,1.567,4.885.745,6.306-5.142,1.008-5.838,2.5,2.395,4.534,1.833,6.08-4.887,1.888-5.312,3.479c-.421,1.573,3.152,4.041,2.867,5.665-.28,1.6-4.481,2.707-4.623,4.353-.14,1.619,3.807,3.43,3.807,5.084s-3.947,3.466-3.807,5.084c.142,1.646,4.343,2.751,4.623,4.354.285,1.624-3.288,4.092-2.867,5.666.425,1.591,4.754,1.946,5.312,3.479s-2.523,4.6-1.832,6.08,5.02,1.083,5.839,2.5-1.685,4.967-.745,6.306,5.13.193,6.183,1.446-.8,5.182.357,6.34,5.084-.7,6.34.357.1,5.241,1.446,6.183,4.885-1.568,6.306-.746,1.009,5.143,2.5,5.838,4.533-2.4,6.079-1.832,1.888,4.887,3.479,5.312c1.574.421,4.041-3.152,5.665-2.868,1.6.281,2.708,4.481,4.354,4.624,1.618.139,3.429-3.807,5.083-3.807s3.466,3.946,5.085,3.807c1.645-.143,2.751-4.343,4.353-4.624,1.625-.284,4.092,3.288,5.666,2.868,1.591-.426,1.947-4.755,3.479-5.312s4.6,2.523,6.08,1.832,1.083-5.02,2.5-5.839,4.967,1.685,6.306.745.193-5.13,1.447-6.183,5.181.8,6.34-.357-.7-5.085.356-6.34,5.241-.1,6.183-1.447-1.567-4.884-.745-6.306,5.142-1.008,5.838-2.5-2.395-4.534-1.833-6.079,4.887-1.888,5.312-3.48c.421-1.573-3.152-4.04-2.867-5.665.28-1.6,4.481-2.707,4.623-4.353C346.386,345.552,342.439,343.741,342.439,342.086Z" fill="#fff"/><path d="M342.439,342.086c0-1.654,3.947-3.466,3.807-5.084-.142-1.646-4.343-2.751-4.623-4.353-.285-1.625,3.288-4.093,2.867-5.666-.425-1.592-4.754-1.947-5.312-3.48s2.523-4.6,1.832-6.08-5.02-1.083-5.839-2.5,1.685-4.967.745-6.306-5.13-.193-6.183-1.446.8-5.182-.357-6.34-5.084.7-6.34-.357-.1-5.241-1.446-6.183-4.885,1.568-6.306.746-1.009-5.143-2.5-5.838-4.533,2.4-6.079,1.832-1.888-4.886-3.479-5.312c-1.574-.42-4.041,3.152-5.665,2.868-1.6-.281-2.708-4.481-4.354-4.623-1.618-.14-3.429,3.806-5.084,3.806s-3.465-3.946-5.084-3.806c-1.645.142-2.751,4.342-4.353,4.623-1.625.285-4.092-3.288-5.666-2.867-1.591.425-1.947,4.754-3.479,5.312s-4.6-2.523-6.08-1.832-1.083,5.02-2.5,5.838-4.967-1.684-6.306-.745-.193,5.13-1.447,6.183-5.181-.8-6.34.357.7,5.085-.356,6.34-5.241.1-6.183,1.447,1.567,4.885.745,6.306-5.142,1.008-5.838,2.5,2.395,4.534,1.833,6.08-4.887,1.888-5.312,3.479c-.421,1.573,3.152,4.041,2.867,5.665-.28,1.6-4.481,2.707-4.623,4.353-.14,1.619,3.807,3.43,3.807,5.084s-3.947,3.466-3.807,5.084c.142,1.646,4.343,2.751,4.623,4.354.285,1.624-3.288,4.092-2.867,5.666.425,1.591,4.754,1.946,5.312,3.479s-2.523,4.6-1.832,6.08,5.02,1.083,5.839,2.5-1.685,4.967-.745,6.306,5.13.193,6.183,1.446-.8,5.182.357,6.34,5.084-.7,6.34.357.1,5.241,1.446,6.183,4.885-1.568,6.306-.746,1.009,5.143,2.5,5.838,4.533-2.4,6.079-1.832,1.888,4.887,3.479,5.312c1.574.421,4.041-3.152,5.665-2.868,1.6.281,2.708,4.481,4.354,4.624,1.618.139,3.429-3.807,5.083-3.807s3.466,3.946,5.085,3.807c1.645-.143,2.751-4.343,4.353-4.624,1.625-.284,4.092,3.288,5.666,2.868,1.591-.426,1.947-4.755,3.479-5.312s4.6,2.523,6.08,1.832,1.083-5.02,2.5-5.839,4.967,1.685,6.306.745.193-5.13,1.447-6.183,5.181.8,6.34-.357-.7-5.085.356-6.34,5.241-.1,6.183-1.447-1.567-4.884-.745-6.306,5.142-1.008,5.838-2.5-2.395-4.534-1.833-6.079,4.887-1.888,5.312-3.48c.421-1.573-3.152-4.04-2.867-5.665.28-1.6,4.481-2.707,4.623-4.353C346.386,345.552,342.439,343.741,342.439,342.086Z" fill="none" stroke="#b7b8b8" stroke-miterlimit="10" stroke-width="2"/><path d="M333.637,342.086c0-1.4,3.957-2.951,3.84-4.316-.12-1.389-4.288-2.24-4.524-3.592-.24-1.371,3.387-3.589,3.033-4.916-.359-1.343-4.611-1.454-5.082-2.747s2.709-4.122,2.126-5.371-4.792-.623-5.483-1.816,1.951-4.529,1.158-5.659-4.826.22-5.715-.838,1.14-4.8.162-5.774-4.715,1.052-5.774.163.3-4.921-.837-5.715-4.46,1.852-5.659,1.159-.56-4.9-1.816-5.483-4.066,2.6-5.37,2.126-1.4-4.722-2.747-5.081c-1.327-.355-3.545,3.273-4.915,3.033-1.352-.237-2.2-4.4-3.592-4.524-1.365-.118-2.921,3.84-4.317,3.84s-2.951-3.958-4.316-3.84c-1.389.12-2.24,4.287-3.592,4.524-1.371.24-3.588-3.388-4.916-3.033s-1.454,4.611-2.747,5.081-4.122-2.709-5.37-2.126-.623,4.793-1.817,5.484-4.529-1.951-5.659-1.159.22,4.827-.837,5.715-4.8-1.139-5.774-.162,1.052,4.715.162,5.774-4.92-.3-5.715.838,1.853,4.459,1.159,5.658-4.9.561-5.483,1.817,2.6,4.066,2.127,5.37-4.723,1.4-5.082,2.747c-.355,1.327,3.273,3.544,3.033,4.915-.236,1.352-4.4,2.2-4.524,3.592-.118,1.365,3.84,2.92,3.84,4.316s-3.958,2.951-3.84,4.317c.12,1.388,4.288,2.24,4.524,3.591.24,1.371-3.387,3.589-3.033,4.916.359,1.343,4.611,1.454,5.082,2.747s-2.709,4.123-2.126,5.371,4.792.623,5.483,1.817-1.951,4.529-1.158,5.659,4.826-.221,5.715.837-1.14,4.8-.162,5.774,4.714-1.052,5.774-.162-.3,4.92.837,5.715,4.46-1.853,5.659-1.159.56,4.9,1.816,5.483,4.066-2.6,5.37-2.127,1.4,4.723,2.747,5.081c1.327.355,3.545-3.273,4.915-3.033,1.352.237,2.2,4.4,3.592,4.524,1.365.118,2.921-3.839,4.316-3.839s2.952,3.957,4.317,3.839c1.389-.12,2.24-4.287,3.592-4.524,1.371-.24,3.588,3.388,4.916,3.033s1.454-4.61,2.747-5.081,4.122,2.709,5.37,2.126.623-4.793,1.817-5.483,4.529,1.951,5.659,1.158-.22-4.827.837-5.715,4.8,1.139,5.774.162-1.052-4.715-.162-5.774,4.92.3,5.715-.838-1.853-4.459-1.159-5.658,4.9-.56,5.483-1.816-2.6-4.066-2.127-5.371,4.723-1.4,5.082-2.746-3.273-3.545-3.033-4.916c.236-1.352,4.4-2.2,4.524-3.591C337.594,345.037,333.637,343.482,333.637,342.086Z" fill="#fff"/><path d="M333.637,342.086c0-1.4,3.957-2.951,3.84-4.316-.12-1.389-4.288-2.24-4.524-3.592-.24-1.371,3.387-3.589,3.033-4.916-.359-1.343-4.611-1.454-5.082-2.747s2.709-4.122,2.126-5.371-4.792-.623-5.483-1.816,1.951-4.529,1.158-5.659-4.826.22-5.715-.838,1.14-4.8.162-5.774-4.715,1.052-5.774.163.3-4.921-.837-5.715-4.46,1.852-5.659,1.159-.56-4.9-1.816-5.483-4.066,2.6-5.37,2.126-1.4-4.722-2.747-5.081c-1.327-.355-3.545,3.273-4.915,3.033-1.352-.237-2.2-4.4-3.592-4.524-1.365-.118-2.921,3.84-4.317,3.84s-2.951-3.958-4.316-3.84c-1.389.12-2.24,4.287-3.592,4.524-1.371.24-3.588-3.388-4.916-3.033s-1.454,4.611-2.747,5.081-4.122-2.709-5.37-2.126-.623,4.793-1.817,5.484-4.529-1.951-5.659-1.159.22,4.827-.837,5.715-4.8-1.139-5.774-.162,1.052,4.715.162,5.774-4.92-.3-5.715.838,1.853,4.459,1.159,5.658-4.9.561-5.483,1.817,2.6,4.066,2.127,5.37-4.723,1.4-5.082,2.747c-.355,1.327,3.273,3.544,3.033,4.915-.236,1.352-4.4,2.2-4.524,3.592-.118,1.365,3.84,2.92,3.84,4.316s-3.958,2.951-3.84,4.317c.12,1.388,4.288,2.24,4.524,3.591.24,1.371-3.387,3.589-3.033,4.916.359,1.343,4.611,1.454,5.082,2.747s-2.709,4.123-2.126,5.371,4.792.623,5.483,1.817-1.951,4.529-1.158,5.659,4.826-.221,5.715.837-1.14,4.8-.162,5.774,4.714-1.052,5.774-.162-.3,4.92.837,5.715,4.46-1.853,5.659-1.159.56,4.9,1.816,5.483,4.066-2.6,5.37-2.127,1.4,4.723,2.747,5.081c1.327.355,3.545-3.273,4.915-3.033,1.352.237,2.2,4.4,3.592,4.524,1.365.118,2.921-3.839,4.316-3.839s2.952,3.957,4.317,3.839c1.389-.12,2.24-4.287,3.592-4.524,1.371-.24,3.588,3.388,4.916,3.033s1.454-4.61,2.747-5.081,4.122,2.709,5.37,2.126.623-4.793,1.817-5.483,4.529,1.951,5.659,1.158-.22-4.827.837-5.715,4.8,1.139,5.774.162-1.052-4.715-.162-5.774,4.92.3,5.715-.838-1.853-4.459-1.159-5.658,4.9-.56,5.483-1.816-2.6-4.066-2.127-5.371,4.723-1.4,5.082-2.746-3.273-3.545-3.033-4.916c.236-1.352,4.4-2.2,4.524-3.591C337.594,345.037,333.637,343.482,333.637,342.086Z" fill="none" stroke="#b7b8b8" stroke-miterlimit="10" stroke-width="2"/><path d="M324.835,342.086c0-1.137,3.968-2.437,3.872-3.549-.1-1.131-4.232-1.729-4.424-2.83-.2-1.117,3.487-3.084,3.2-4.166s-4.467-.961-4.851-2.015,2.9-3.644,2.421-4.661-4.566-.163-5.128-1.136,2.217-4.091,1.571-5.011-4.523.633-5.247-.229,1.477-4.411.681-5.207-4.345,1.406-5.208.681.7-4.6-.229-5.247-4.034,2.137-5.011,1.572-.112-4.65-1.135-5.128-3.6,2.808-4.661,2.421-.92-4.558-2.014-4.851-3.049,3.395-4.165,3.2-1.7-4.327-2.83-4.425c-1.113-.1-2.412,3.873-3.55,3.873s-2.436-3.969-3.549-3.873c-1.131.1-1.728,4.232-2.83,4.425-1.117.2-3.084-3.488-4.166-3.2s-.961,4.467-2.014,4.85-3.645-2.895-4.662-2.42-.163,4.565-1.135,5.128-4.091-2.217-5.012-1.572.633,4.524-.228,5.248-4.412-1.478-5.208-.681,1.406,4.344.681,5.207-4.6-.694-5.247.229,2.138,4.034,1.572,5.011-4.649.112-5.127,1.136,2.807,3.6,2.42,4.66-4.558.921-4.85,2.015,3.394,3.048,3.2,4.165c-.193,1.1-4.326,1.7-4.424,2.83-.1,1.113,3.872,2.412,3.872,3.549s-3.968,2.437-3.872,3.549c.1,1.132,4.231,1.729,4.424,2.83.2,1.117-3.487,3.085-3.2,4.166s4.467.961,4.851,2.015-2.9,3.644-2.421,4.661,4.566.163,5.128,1.136-2.217,4.091-1.571,5.012,4.523-.634,5.247.228-1.477,4.411-.681,5.208,4.345-1.407,5.208-.682-.7,4.6.228,5.247,4.035-2.137,5.011-1.572.113,4.65,1.136,5.128,3.6-2.808,4.661-2.421.92,4.559,2.014,4.851,3.049-3.394,4.165-3.2,1.7,4.327,2.83,4.425c1.113.1,2.412-3.873,3.549-3.873s2.437,3.969,3.55,3.873c1.131-.1,1.728-4.232,2.83-4.425,1.117-.2,3.084,3.488,4.166,3.2s.961-4.467,2.014-4.851,3.644,2.895,4.662,2.42.163-4.565,1.135-5.128,4.091,2.218,5.012,1.572-.633-4.524.228-5.247,4.412,1.477,5.208.681-1.406-4.345-.681-5.208,4.6.694,5.247-.229-2.138-4.034-1.572-5.011,4.649-.112,5.127-1.135-2.807-3.6-2.42-4.661,4.558-.92,4.85-2.014-3.394-3.049-3.2-4.166c.193-1.1,4.326-1.7,4.424-2.83C328.8,344.523,324.835,343.224,324.835,342.086Z" fill="#fff"/><path d="M324.835,342.086c0-1.137,3.968-2.437,3.872-3.549-.1-1.131-4.232-1.729-4.424-2.83-.2-1.117,3.487-3.084,3.2-4.166s-4.467-.961-4.851-2.015,2.9-3.644,2.421-4.661-4.566-.163-5.128-1.136,2.217-4.091,1.571-5.011-4.523.633-5.247-.229,1.477-4.411.681-5.207-4.345,1.406-5.208.681.7-4.6-.229-5.247-4.034,2.137-5.011,1.572-.112-4.65-1.135-5.128-3.6,2.808-4.661,2.421-.92-4.558-2.014-4.851-3.049,3.395-4.165,3.2-1.7-4.327-2.83-4.425c-1.113-.1-2.412,3.873-3.55,3.873s-2.436-3.969-3.549-3.873c-1.131.1-1.728,4.232-2.83,4.425-1.117.2-3.084-3.488-4.166-3.2s-.961,4.467-2.014,4.85-3.645-2.895-4.662-2.42-.163,4.565-1.135,5.128-4.091-2.217-5.012-1.572.633,4.524-.228,5.248-4.412-1.478-5.208-.681,1.406,4.344.681,5.207-4.6-.694-5.247.229,2.138,4.034,1.572,5.011-4.649.112-5.127,1.136,2.807,3.6,2.42,4.66-4.558.921-4.85,2.015,3.394,3.048,3.2,4.165c-.193,1.1-4.326,1.7-4.424,2.83-.1,1.113,3.872,2.412,3.872,3.549s-3.968,2.437-3.872,3.549c.1,1.132,4.231,1.729,4.424,2.83.2,1.117-3.487,3.085-3.2,4.166s4.467.961,4.851,2.015-2.9,3.644-2.421,4.661,4.566.163,5.128,1.136-2.217,4.091-1.571,5.012,4.523-.634,5.247.228-1.477,4.411-.681,5.208,4.345-1.407,5.208-.682-.7,4.6.228,5.247,4.035-2.137,5.011-1.572.113,4.65,1.136,5.128,3.6-2.808,4.661-2.421.92,4.559,2.014,4.851,3.049-3.394,4.165-3.2,1.7,4.327,2.83,4.425c1.113.1,2.412-3.873,3.549-3.873s2.437,3.969,3.55,3.873c1.131-.1,1.728-4.232,2.83-4.425,1.117-.2,3.084,3.488,4.166,3.2s.961-4.467,2.014-4.851,3.644,2.895,4.662,2.42.163-4.565,1.135-5.128,4.091,2.218,5.012,1.572-.633-4.524.228-5.247,4.412,1.477,5.208.681-1.406-4.345-.681-5.208,4.6.694,5.247-.229-2.138-4.034-1.572-5.011,4.649-.112,5.127-1.135-2.807-3.6-2.42-4.661,4.558-.92,4.85-2.014-3.394-3.049-3.2-4.166c.193-1.1,4.326-1.7,4.424-2.83C328.8,344.523,324.835,343.224,324.835,342.086Z" fill="none" stroke="#b7b8b8" stroke-miterlimit="10" stroke-width="2"/><path d="M316.032,342.086c0-.879,3.98-1.922,3.906-2.782s-4.176-1.217-4.325-2.068,3.587-2.58,3.364-3.416-4.324-.468-4.62-1.282,3.081-3.166,2.714-3.952-4.338.3-4.773-.455,2.484-3.653,1.985-4.364-4.22,1.047-4.779.381,1.815-4.027,1.2-4.642-3.975,1.76-4.642,1.2,1.094-4.278.381-4.779-3.609,2.422-4.364,1.985.336-4.4-.455-4.772-3.13,3.014-3.951,2.715-.437-4.394-1.282-4.62-2.553,3.515-3.415,3.364-1.2-4.25-2.069-4.325-1.9,3.9-2.782,3.9-1.922-3.979-2.781-3.9-1.218,4.176-2.069,4.325-2.58-3.587-3.416-3.364-.467,4.324-1.282,4.62-3.166-3.082-3.952-2.715.3,4.339-.454,4.773-3.653-2.484-4.365-1.984,1.047,4.219.381,4.779-4.026-1.816-4.642-1.2,1.761,3.975,1.2,4.641-4.279-1.093-4.779-.38,2.422,3.609,1.985,4.364-4.4-.336-4.773.455,3.014,3.13,2.715,3.951-4.394.436-4.62,1.281,3.516,2.553,3.364,3.416-4.249,1.194-4.325,2.068,3.906,1.9,3.906,2.782-3.98,1.922-3.906,2.782,4.176,1.217,4.325,2.068-3.587,2.581-3.364,3.416,4.324.468,4.62,1.282-3.081,3.166-2.714,3.952,4.338-.3,4.773.455-2.484,3.653-1.985,4.364,4.22-1.046,4.779-.38-1.815,4.026-1.2,4.641,3.975-1.76,4.642-1.2-1.094,4.279-.381,4.779,3.609-2.422,4.364-1.985-.336,4.4.455,4.772,3.13-3.013,3.951-2.714.437,4.393,1.282,4.619,2.553-3.515,3.415-3.364,1.2,4.25,2.069,4.325,1.9-3.9,2.781-3.9,1.923,3.98,2.782,3.9,1.218-4.176,2.069-4.325,2.58,3.588,3.416,3.364.467-4.323,1.282-4.62,3.166,3.082,3.951,2.715-.3-4.338.455-4.773,3.653,2.484,4.364,1.985-1.046-4.22-.38-4.779,4.026,1.815,4.642,1.2-1.761-3.974-1.2-4.641,4.279,1.094,4.779.38-2.422-3.609-1.985-4.364,4.4.337,4.773-.454-3.014-3.131-2.715-3.952,4.394-.436,4.62-1.281-3.516-2.553-3.364-3.416,4.249-1.194,4.325-2.068S316.032,342.965,316.032,342.086Z" fill="#fff"/><path d="M316.032,342.086c0-.879,3.98-1.922,3.906-2.782s-4.176-1.217-4.325-2.068,3.587-2.58,3.364-3.416-4.324-.468-4.62-1.282,3.081-3.166,2.714-3.952-4.338.3-4.773-.455,2.484-3.653,1.985-4.364-4.22,1.047-4.779.381,1.815-4.027,1.2-4.642-3.975,1.76-4.642,1.2,1.094-4.278.381-4.779-3.609,2.422-4.364,1.985.336-4.4-.455-4.772-3.13,3.014-3.951,2.715-.437-4.394-1.282-4.62-2.553,3.515-3.415,3.364-1.2-4.25-2.069-4.325-1.9,3.9-2.782,3.9-1.922-3.979-2.781-3.9-1.218,4.176-2.069,4.325-2.58-3.587-3.416-3.364-.467,4.324-1.282,4.62-3.166-3.082-3.952-2.715.3,4.339-.454,4.773-3.653-2.484-4.365-1.984,1.047,4.219.381,4.779-4.026-1.816-4.642-1.2,1.761,3.975,1.2,4.641-4.279-1.093-4.779-.38,2.422,3.609,1.985,4.364-4.4-.336-4.773.455,3.014,3.13,2.715,3.951-4.394.436-4.62,1.281,3.516,2.553,3.364,3.416-4.249,1.194-4.325,2.068,3.906,1.9,3.906,2.782-3.98,1.922-3.906,2.782,4.176,1.217,4.325,2.068-3.587,2.581-3.364,3.416,4.324.468,4.62,1.282-3.081,3.166-2.714,3.952,4.338-.3,4.773.455-2.484,3.653-1.985,4.364,4.22-1.046,4.779-.38-1.815,4.026-1.2,4.641,3.975-1.76,4.642-1.2-1.094,4.279-.381,4.779,3.609-2.422,4.364-1.985-.336,4.4.455,4.772,3.13-3.013,3.951-2.714.437,4.393,1.282,4.619,2.553-3.515,3.415-3.364,1.2,4.25,2.069,4.325,1.9-3.9,2.781-3.9,1.923,3.98,2.782,3.9,1.218-4.176,2.069-4.325,2.58,3.588,3.416,3.364.467-4.323,1.282-4.62,3.166,3.082,3.951,2.715-.3-4.338.455-4.773,3.653,2.484,4.364,1.985-1.046-4.22-.38-4.779,4.026,1.815,4.642,1.2-1.761-3.974-1.2-4.641,4.279,1.094,4.779.38-2.422-3.609-1.985-4.364,4.4.337,4.773-.454-3.014-3.131-2.715-3.952,4.394-.436,4.62-1.281-3.516-2.553-3.364-3.416,4.249-1.194,4.325-2.068S316.032,342.965,316.032,342.086Z" fill="none" stroke="#b7b8b8" stroke-miterlimit="10" stroke-width="2"/><path d="M307.23,342.086c0-.62,3.991-1.408,3.938-2.015s-4.12-.706-4.226-1.307,3.687-2.076,3.53-2.666-4.18.025-4.389-.549,3.267-2.688,3.008-3.243-4.11.757-4.417.227,2.75-3.215,2.4-3.717-3.917,1.46-4.312.99,2.154-3.642,1.719-4.076-3.605,2.115-4.075,1.719,1.493-3.958.989-4.311-3.183,2.707-3.716,2.4.784-4.157.226-4.418-2.662,3.221-3.242,3.01.048-4.23-.549-4.389-2.056,3.636-2.665,3.529-.69-4.172-1.307-4.226-1.394,3.939-2.015,3.939-1.408-3.991-2.015-3.939-.706,4.121-1.307,4.226-2.076-3.687-2.666-3.529.026,4.18-.549,4.389-2.688-3.268-3.242-3.009.756,4.111.226,4.418-3.215-2.75-3.717-2.4,1.46,3.916.99,4.311-3.642-2.153-4.076-1.719,2.115,3.605,1.72,4.076-3.958-1.493-4.312-.989,2.707,3.183,2.4,3.716-4.157-.784-4.417-.226,3.22,2.662,3.009,3.241-4.23-.047-4.389.549,3.636,2.057,3.53,2.666-4.173.69-4.226,1.307,3.938,1.394,3.938,2.014-3.991,1.408-3.938,2.015,4.12.706,4.226,1.307-3.687,2.077-3.53,2.666,4.18-.025,4.389.549-3.267,2.688-3.008,3.243,4.11-.757,4.417-.227-2.75,3.215-2.4,3.717,3.917-1.459,4.312-.989-2.154,3.641-1.719,4.075,3.6-2.114,4.075-1.719-1.493,3.958-.989,4.311,3.183-2.707,3.716-2.4-.784,4.157-.226,4.418,2.662-3.22,3.241-3.009-.047,4.229.55,4.389,2.056-3.637,2.665-3.53.69,4.173,1.307,4.226,1.394-3.939,2.014-3.939,1.409,3.991,2.016,3.939.706-4.121,1.307-4.226,2.076,3.687,2.666,3.529-.026-4.18.549-4.389,2.688,3.268,3.242,3.009-.757-4.111-.226-4.418,3.215,2.751,3.717,2.4-1.46-3.916-.99-4.311,3.641,2.153,4.076,1.719-2.115-3.605-1.72-4.075,3.958,1.492,4.311.989-2.706-3.184-2.4-3.717,4.157.785,4.417.227-3.22-2.663-3.009-3.242,4.23.048,4.389-.549-3.636-2.057-3.53-2.666,4.173-.69,4.226-1.307S307.23,342.706,307.23,342.086Z" fill="#fff"/><path d="M307.23,342.086c0-.62,3.991-1.408,3.938-2.015s-4.12-.706-4.226-1.307,3.687-2.076,3.53-2.666-4.18.025-4.389-.549,3.267-2.688,3.008-3.243-4.11.757-4.417.227,2.75-3.215,2.4-3.717-3.917,1.46-4.312.99,2.154-3.642,1.719-4.076-3.605,2.115-4.075,1.719,1.493-3.958.989-4.311-3.183,2.707-3.716,2.4.784-4.157.226-4.418-2.662,3.221-3.242,3.01.048-4.23-.549-4.389-2.056,3.636-2.665,3.529-.69-4.172-1.307-4.226-1.394,3.939-2.015,3.939-1.408-3.991-2.015-3.939-.706,4.121-1.307,4.226-2.076-3.687-2.666-3.529.026,4.18-.549,4.389-2.688-3.268-3.242-3.009.756,4.111.226,4.418-3.215-2.75-3.717-2.4,1.46,3.916.99,4.311-3.642-2.153-4.076-1.719,2.115,3.605,1.72,4.076-3.958-1.493-4.312-.989,2.707,3.183,2.4,3.716-4.157-.784-4.417-.226,3.22,2.662,3.009,3.241-4.23-.047-4.389.549,3.636,2.057,3.53,2.666-4.173.69-4.226,1.307,3.938,1.394,3.938,2.014-3.991,1.408-3.938,2.015,4.12.706,4.226,1.307-3.687,2.077-3.53,2.666,4.18-.025,4.389.549-3.267,2.688-3.008,3.243,4.11-.757,4.417-.227-2.75,3.215-2.4,3.717,3.917-1.459,4.312-.989-2.154,3.641-1.719,4.075,3.6-2.114,4.075-1.719-1.493,3.958-.989,4.311,3.183-2.707,3.716-2.4-.784,4.157-.226,4.418,2.662-3.22,3.241-3.009-.047,4.229.55,4.389,2.056-3.637,2.665-3.53.69,4.173,1.307,4.226,1.394-3.939,2.014-3.939,1.409,3.991,2.016,3.939.706-4.121,1.307-4.226,2.076,3.687,2.666,3.529-.026-4.18.549-4.389,2.688,3.268,3.242,3.009-.757-4.111-.226-4.418,3.215,2.751,3.717,2.4-1.46-3.916-.99-4.311,3.641,2.153,4.076,1.719-2.115-3.605-1.72-4.075,3.958,1.492,4.311.989-2.706-3.184-2.4-3.717,4.157.785,4.417.227-3.22-2.663-3.009-3.242,4.23.048,4.389-.549-3.636-2.057-3.53-2.666,4.173-.69,4.226-1.307S307.23,342.706,307.23,342.086Z" fill="none" stroke="#b7b8b8" stroke-miterlimit="10" stroke-width="2"/><path d="M272.823,409.326a16.638,16.638,0,1,0,16.638,16.638A16.835,16.835,0,0,0,272.823,409.326Z" fill="url(#a)"/><path d="M273.234,301.286a58.811,58.811,0,0,0-35.534,11.5,12.578,12.578,0,0,0,7.189,23.005,13.276,13.276,0,0,0,6.984-2.054,27.344,27.344,0,0,1,18.28-6.573c11.3,0,16.021,5.34,16.021,11.708,0,6.162-5.545,10.065-11.913,14.584-8.216,5.956-18.075,12.734-18.075,26.907a20.05,20.05,0,0,0,2.054,9.038,11.706,11.706,0,0,0,11.3,8.627,12.807,12.807,0,0,0,12.324-11.3,5.439,5.439,0,0,0,0-1.848,7.719,7.719,0,0,1-.2-2.054c0-7.189,6.572-11.708,13.556-17.048,9.654-6.779,20.746-15,20.746-32.043C315.958,314.636,299.731,301.286,273.234,301.286Z" fill="url(#b)"/><path d="M355.3,380.16c32.541-10.764,67.322-20.407,98.593-25.275a62.826,62.826,0,0,1,16.127,1.087c6.225,1.193,15.248,5.358,15.248,5.358" fill="none" stroke="#b7b8b8" stroke-linecap="round" stroke-miterlimit="10" stroke-width="2" stroke-dasharray="8 6"/><path d="M349.947,388.082c36.451-11.5,72.976-21.2,101.7-25.036,6.813-.142,26.028.069,44.767,11.916" fill="none" stroke="#b7b8b8" stroke-linecap="round" stroke-miterlimit="10" stroke-width="2" stroke-dasharray="8 6"/><path d="M343.208,397.283c22.415-7.434,43.1-13.745,64.693-19.6,0,0,30.148-5.61,44.45-6.069A71.7,71.7,0,0,1,508.662,395.7" fill="none" stroke="#b7b8b8" stroke-linecap="round" stroke-miterlimit="10" stroke-width="2" stroke-dasharray="8 6"/><path d="M329.111,408.56c33.94-11.1,67.975-21.108,97.293-27.018,0,0,25.837-6.438,43.927-.991,17.885,5.387,21.8,9.578,27.743,15.854" fill="none" stroke="#b7b8b8" stroke-linecap="round" stroke-miterlimit="10" stroke-width="2" stroke-dasharray="8 6"/><path d="M209.9,452.336c11.195-5.106,33.13-13.694,63.918-24.886" fill="none" stroke="#b7b8b8" stroke-linecap="round" stroke-miterlimit="10" stroke-width="2" stroke-dasharray="8 6"/><path d="M206.3,459.658c28.006-12.665,173.723-68.1,245.507-74.5,7.167.163,28.764,1.34,39.663,15.542" fill="none" stroke="#b7b8b8" stroke-linecap="round" stroke-miterlimit="10" stroke-width="2" stroke-dasharray="8 6"/><path d="M224.554,459.454c34.041-14.387,162.057-62.421,231.59-67.279,3.9.437,18.15-.724,28.388,12.156" fill="none" stroke="#b7b8b8" stroke-linecap="round" stroke-miterlimit="10" stroke-width="2" stroke-dasharray="8 6"/><path d="M244.148,459.033c46.528-19.626,136.459-50.823,205.543-59.156,9.8-1.753,26.254,2.142,29.557,9.408" fill="none" stroke="#b7b8b8" stroke-linecap="round" stroke-miterlimit="10" stroke-width="2" stroke-dasharray="8 6"/></g></svg>