<svg xmlns="http://www.w3.org/2000/svg" xmlns:xlink="http://www.w3.org/1999/xlink" width="45.112" height="76.153" viewBox="0 0 45.112 76.153"><defs><linearGradient id="a" x1="-0.096" y1="0.869" x2="0.955" y2="0.044" gradientUnits="objectBoundingBox"><stop offset="0" stop-color="#c1007d"/><stop offset="1" stop-color="#e5004f"/></linearGradient></defs><path d="M247.174,92.645a8.956,8.956,0,1,0,8.957,8.957A9.062,9.062,0,0,0,247.174,92.645Zm.038-58.24A31.661,31.661,0,0,0,228.083,40.6a6.771,6.771,0,0,0,3.87,12.384,7.143,7.143,0,0,0,3.76-1.106,14.72,14.72,0,0,1,9.84-3.539c6.081,0,8.624,2.875,8.624,6.3,0,3.317-2.985,5.418-6.413,7.851-4.422,3.206-9.73,6.855-9.73,14.485a10.8,10.8,0,0,0,1.106,4.865,6.3,6.3,0,0,0,6.081,4.644,6.894,6.894,0,0,0,6.634-6.081,2.912,2.912,0,0,0,0-.995,4.164,4.164,0,0,1-.11-1.106c0-3.87,3.538-6.3,7.3-9.178,5.2-3.649,11.167-8.072,11.167-17.249C270.211,41.591,261.476,34.405,247.212,34.405Z" transform="translate(-225.098 -34.405)" fill="url(#a)"/></svg>