<svg xmlns="http://www.w3.org/2000/svg" width="23.152" height="21.229" viewBox="0 0 23.152 21.229"><path d="M435.562,330.145H418.443c-3.875,0-3.8-4.039-.916-5.284l4.58-1.808a11.968,11.968,0,0,1-3.9-1.407.988.988,0,0,1-.259-1.528c3.57-4.58,2.7-11.2,9.042-11.2,6.363,0,5.472,6.622,9.064,11.2a1.007,1.007,0,0,1-.282,1.528,11.8,11.8,0,0,1-3.827,1.407l4.556,1.857C439.46,326.154,439.39,330.145,435.562,330.145Zm-17.119-1.127h17.119c2.678,0,2.232-2.373.494-3.1l-5.543-2.373a.745.745,0,0,1,.236-1.433,9.292,9.292,0,0,0,4.368-1.384c-3.57-4.6-2.818-10.709-8.125-10.709s-4.556,6.105-8.125,10.709a9.375,9.375,0,0,0,4.392,1.384.747.747,0,0,1,.233,1.433l-5.542,2.348C416.235,326.645,415.789,329.018,418.443,329.018Z" transform="translate(-415.438 -308.916)" fill="#747474"/></svg>