<?xml version="1.0" encoding="utf-8"?>
<!-- Generator: Adobe Illustrator 23.0.2, SVG Export Plug-In . SVG Version: 6.00 Build 0)  -->
<svg version="1.1" id="Layer_1" xmlns="http://www.w3.org/2000/svg" xmlns:xlink="http://www.w3.org/1999/xlink" x="0px" y="0px"
	 viewBox="0 0 22 22" style="enable-background:new 0 0 22 22;" xml:space="preserve">
<style type="text/css">
	.st0{fill:#D80140;}
</style>
<path class="st0" d="M18.73,0H3.27C1.47,0,0,1.47,0,3.27v15.47C0,20.53,1.47,22,3.27,22h15.47c1.8,0,3.27-1.47,3.27-3.27V3.27
	C22,1.47,20.53,0,18.73,0z M18.32,15.56l-2.15,0.03c0,0-0.46,0.09-1.07-0.33c-0.8-0.55-1.56-1.99-2.15-1.8
	c-0.6,0.19-0.58,1.48-0.58,1.48s0,0.28-0.13,0.42c-0.15,0.16-0.44,0.19-0.44,0.19h-0.96c0,0-2.12,0.13-4-1.82
	c-2.04-2.12-3.84-6.34-3.84-6.34S2.88,7.12,3,6.98c0.13-0.15,0.47-0.16,0.47-0.16l2.3-0.01c0,0,0.22,0.04,0.37,0.15
	c0.13,0.09,0.2,0.27,0.2,0.27s0.37,0.94,0.87,1.79c0.96,1.66,1.41,2.03,1.74,1.85c0.48-0.26,0.33-2.35,0.33-2.35s0.01-0.76-0.24-1.1
	C8.84,7.16,8.48,7.09,8.32,7.06C8.19,7.05,8.41,6.75,8.68,6.61c0.41-0.2,1.15-0.21,2.01-0.21c0.67,0.01,0.87,0.05,1.13,0.11
	c0.79,0.19,0.52,0.93,0.52,2.71c0,0.57-0.1,1.37,0.31,1.63c0.18,0.11,0.61,0.02,1.69-1.82c0.51-0.87,0.9-1.89,0.9-1.89
	s0.08-0.18,0.21-0.26c0.13-0.08,0.31-0.05,0.31-0.05l2.42-0.02c0,0,0.73-0.09,0.85,0.24c0.12,0.35-0.27,1.15-1.26,2.47
	c-1.63,2.17-1.81,1.96-0.46,3.22c1.29,1.2,1.56,1.78,1.6,1.85C19.45,15.49,18.32,15.56,18.32,15.56z"/>
</svg>
