<?xml version="1.0" encoding="utf-8"?>
<!-- Generator: Adobe Illustrator 23.0.2, SVG Export Plug-In . SVG Version: 6.00 Build 0)  -->
<svg version="1.1" id="Layer_1" xmlns="http://www.w3.org/2000/svg" xmlns:xlink="http://www.w3.org/1999/xlink" x="0px" y="0px"
	 viewBox="0 0 22 22" style="enable-background:new 0 0 22 22;" xml:space="preserve">
<style type="text/css">
	.st0{fill:#D80140;}
</style>
<g>
	<g>
		<path class="st0" d="M18.73,22H3.27C1.47,22,0,20.53,0,18.73V3.27C0,1.47,1.47,0,3.27,0h15.47C20.53,0,22,1.47,22,3.27v15.47
			C22,20.53,20.53,22,18.73,22z M3.27,1.38c-1.04,0-1.89,0.85-1.89,1.89v15.47c0,1.04,0.85,1.89,1.89,1.89h15.47
			c1.04,0,1.89-0.85,1.89-1.89V3.27c0-1.04-0.85-1.89-1.89-1.89H3.27z"/>
	</g>
	<g>
		<path class="st0" d="M10.83,15.56h0.96c0,0,0.29-0.03,0.44-0.19c0.14-0.15,0.13-0.42,0.13-0.42s-0.02-1.29,0.58-1.48
			c0.59-0.19,1.35,1.25,2.15,1.8c0.61,0.42,1.07,0.33,1.07,0.33l2.15-0.03c0,0,1.12-0.07,0.59-0.95c-0.04-0.07-0.31-0.65-1.6-1.85
			c-1.35-1.25-1.17-1.05,0.46-3.22c0.99-1.32,1.39-2.12,1.26-2.47c-0.12-0.33-0.85-0.24-0.85-0.24l-2.42,0.02
			c0,0-0.18-0.02-0.31,0.05c-0.13,0.08-0.21,0.26-0.21,0.26s-0.38,1.02-0.9,1.89c-1.08,1.83-1.51,1.93-1.69,1.82
			c-0.41-0.27-0.31-1.06-0.31-1.63c0-1.77,0.27-2.52-0.52-2.71c-0.26-0.06-0.46-0.11-1.13-0.11c-0.86-0.01-1.6,0-2.01,0.21
			C8.41,6.75,8.19,7.05,8.32,7.06c0.16,0.02,0.52,0.1,0.71,0.36c0.25,0.34,0.24,1.1,0.24,1.1s0.14,2.09-0.33,2.35
			c-0.33,0.18-0.77-0.19-1.74-1.85C6.71,8.17,6.34,7.23,6.34,7.23s-0.07-0.18-0.2-0.27C5.99,6.85,5.77,6.81,5.77,6.81l-2.3,0.01
			c0,0-0.35,0.01-0.47,0.16C2.88,7.12,2.99,7.39,2.99,7.39s1.8,4.22,3.84,6.34C8.7,15.69,10.83,15.56,10.83,15.56"/>
	</g>
</g>
</svg>
