<svg xmlns="http://www.w3.org/2000/svg" xmlns:xlink="http://www.w3.org/1999/xlink" width="451.846" height="2197" viewBox="0 0 451.846 2197"><svg viewBox="0 0 250.738 250.738" width="250.738" height="250.738" id="arrow-left" y="0"><path d="M96.633 125.369l95.053-94.533c7.101-7.055 7.101-18.492 0-25.546-7.1-7.054-18.613-7.054-25.714 0L58.989 111.689c-3.784 3.759-5.487 8.759-5.238 13.68-.249 4.922 1.454 9.921 5.238 13.681l106.983 106.398c7.101 7.055 18.613 7.055 25.714 0 7.101-7.054 7.101-18.491 0-25.544l-95.053-94.535z" fill-rule="evenodd" clip-rule="evenodd"></path></svg><svg width="451.846" height="451.847" viewBox="0 0 451.846 451.847" id="arrow-right" y="251"><path d="M345.441 248.292L151.154 442.573c-12.359 12.365-32.397 12.365-44.75 0-12.354-12.354-12.354-32.391 0-44.744L278.318 225.92 106.409 54.017c-12.354-12.359-12.354-32.394 0-44.748 12.354-12.359 32.391-12.359 44.75 0l194.287 194.284c6.177 6.18 9.262 14.271 9.262 22.366 0 8.099-3.091 16.196-9.267 22.373z"></path></svg><svg width="284.929" height="284.929" viewBox="0 0 284.929 284.929" id="arrow-top" y="703"><path d="M282.082 195.285L149.028 62.24c-1.901-1.903-4.088-2.856-6.562-2.856s-4.665.953-6.567 2.856L2.856 195.285C.95 197.191 0 199.378 0 201.853c0 2.474.953 4.664 2.856 6.566l14.272 14.271c1.903 1.903 4.093 2.854 6.567 2.854s4.664-.951 6.567-2.854l112.204-112.202 112.208 112.209c1.902 1.903 4.093 2.848 6.563 2.848 2.478 0 4.668-.951 6.57-2.848l14.274-14.277c1.902-1.902 2.847-4.093 2.847-6.566.001-2.476-.944-4.666-2.846-6.569z"></path></svg><svg width="61.256" height="57.444" viewBox="0 0 61.256 57.444" id="calendar" y="988"><defs><linearGradient id="a" x1=".075" y1="1.023" x2=".874" y2=".144" gradientUnits="objectBoundingBox"><stop offset="0" stop-color="#c1007d"></stop><stop offset="1" stop-color="#e5004f"></stop></linearGradient></defs><path d="M532.722 278.522c0-.668.2-.869.869-.869h1.471c.6 0 .869.2.869.869v5.551h7.891a11.116 11.116 0 0 1 11.1 11.1v28.889a11.1 11.1 0 0 1-11.1 11.035h-39.053a11.059 11.059 0 0 1-11.1-11.035v-28.888a11.073 11.073 0 0 1 11.1-11.1h7.891v-5.551c0-.668.2-.869.869-.869H515c.6 0 .869.2.869.869v5.551h16.852zm-28.087 24.609a3.983 3.983 0 0 0 4.013 4.013 4.012 4.012 0 0 0 0-8.025 3.982 3.982 0 0 0-4.013 4.013zm0 14.177a3.982 3.982 0 0 0 4.013 4.012 4.024 4.024 0 0 0 4.012-4.012 3.982 3.982 0 0 0-4.012-4.013 3.942 3.942 0 0 0-4.013 4.014zm8.025-26.548c0 .6.2.869.869.869H515c.6 0 .869-.268.869-.869v-5.216h-3.21zm7.625 12.371a4.012 4.012 0 1 0 4.011-4.012 4.024 4.024 0 0 0-4.012 4.013zm0 14.177a4.012 4.012 0 0 0 8.025 0 4.012 4.012 0 1 0-8.025 0zm12.438-26.548c0 .6.2.869.869.869h1.471c.6 0 .869-.268.869-.869v-5.216h-3.21zm3.21 12.371a4.012 4.012 0 1 0 4.012-4.012 4.025 4.025 0 0 0-4.013 4.013zm0 14.177a4.012 4.012 0 0 0 8.025 0 4.012 4.012 0 1 0-8.025 0z" transform="translate(-493.668 -277.653)" fill="url(#a)"></path></svg><svg width="63.667" height="69.202" viewBox="0 0 63.667 69.202" id="email-ico" y="1046"><defs><linearGradient id="a" x1=".027" y1="1.123" x2=".865" y2=".298" gradientUnits="objectBoundingBox"><stop offset="0" stop-color="#c1007d"></stop><stop offset="1" stop-color="#d9003f"></stop></linearGradient></defs><path d="M583.52-38.864a8.99 8.99 0 0 1-1.37-4.587v-28.411a7.416 7.416 0 0 1 1.612-4.829l18.672 18.832zm2.818-40.647l6.76-6.76v13.521zm32.838 20.767l22.456 22.538a8.362 8.362 0 0 1-4.184 1.128h-46.925a8.133 8.133 0 0 1-4.185-1.128l22.375-22.538a7.694 7.694 0 0 1 10.463 0zm11.833-33.163v23.1l-8.212 8.29-.885-.885a11.521 11.521 0 0 0-15.936 0l-.885.8-8.212-8.291v-23.02a2.262 2.262 0 0 1 2.416-2.333h29.3a2.262 2.262 0 0 1 2.414 2.34zm-26.242-6.2l3.946-4.023a7.436 7.436 0 0 1 10.382-.083l4.188 4.106zm41.05 26.241v28.411a8.169 8.169 0 0 1-1.448 4.587l-18.915-18.909 18.753-18.914a7.43 7.43 0 0 1 1.61 4.829zm-4.185-7.648l-6.76 6.842v-13.759z" fill="url(#a)" transform="translate(-582.15 104.281)"></path></svg><svg id="email-ico-1" viewBox="0 0 71 66" width="71" height="66" y="1116"><style id="style2">.st0{fill:#e5004f}.st1{fill:none;stroke:#e5004f;stroke-width:5;stroke-linecap:round;stroke-miterlimit:10}</style><g id="g8"><g id="g6"><path class="st0" d="M0 40.64V9.36c0-2.05.66-3.94 1.81-5.5L22.66 24.8 1.64 45.98C.57 44.42 0 42.61 0 40.64zm43.76-11.9l1.15-1.07 20.85 21.02c-1.4.82-3.04 1.31-4.84 1.31H9.36c-1.81 0-3.45-.49-4.93-1.31l20.94-21.1 1.15 1.15c4.68 4.76 12.56 4.76 17.24 0zM65.6 1.23l-24.63 24.8c-3.2 3.2-8.54 3.12-11.66 0L4.76 1.23C6.08.41 7.72 0 9.36 0h51.56c1.72 0 3.28.41 4.68 1.23zm4.76 8.13v31.28c0 1.97-.66 3.86-1.72 5.34l-21.02-21.1L68.47 3.86c1.15 1.56 1.89 3.45 1.89 5.5z" id="path4"></path></g></g></svg><svg id="facebook" viewBox="0 0 22 22" width="22" height="22" y="1182"><style>.st0{fill:#d80140}</style><path class="st0" d="M12.67 21.31v-7.99h2.68l.4-3.11h-3.08V8.23c0-.9.25-1.52 1.54-1.52h1.65V3.93c-.29-.04-1.26-.12-2.4-.12-2.38 0-4 1.45-4 4.11v2.3H6.77v3.11h2.69v7.99h3.21z"></path><path class="st0" d="M18.73 22H3.27C1.47 22 0 20.53 0 18.73V3.27C0 1.47 1.47 0 3.27 0h15.47C20.53 0 22 1.47 22 3.27v15.47c0 1.79-1.47 3.26-3.27 3.26zM3.27 1.38c-1.04 0-1.89.85-1.89 1.89v15.47c0 1.04.85 1.89 1.89 1.89h15.47c1.04 0 1.89-.85 1.89-1.89V3.27c0-1.04-.85-1.89-1.89-1.89H3.27z"></path></svg><svg id="facebook-1" viewBox="0 0 22 22" width="22" height="22" y="1204"><style>.st0{fill:#d80140}</style><path class="st0" d="M18.73 0H3.27C1.47 0 0 1.47 0 3.27v15.47C0 20.53 1.47 22 3.27 22h6.19v-8.68H6.77v-3.11h2.69v-2.3c0-2.66 1.63-4.11 4-4.11 1.14 0 2.12.08 2.4.12V6.7h-1.65c-1.29 0-1.54.62-1.54 1.52v1.99h3.08l-.4 3.11h-2.68V22h6.06c1.8 0 3.27-1.47 3.27-3.27V3.27C22 1.47 20.53 0 18.73 0z"></path></svg><svg viewBox="0 0 451 451" width="451" height="451" id="glass" y="1226"><path d="M447.05 428l-109.6-109.6c29.4-33.8 47.2-77.9 47.2-126.1C384.65 86.2 298.35 0 192.35 0 86.25 0 .05 86.3.05 192.3s86.3 192.3 192.3 192.3c48.2 0 92.3-17.8 126.1-47.2L428.05 447c2.6 2.6 6.1 4 9.5 4s6.9-1.3 9.5-4c5.2-5.2 5.2-13.8 0-19zM26.95 192.3c0-91.2 74.2-165.3 165.3-165.3 91.2 0 165.3 74.2 165.3 165.3s-74.1 165.4-165.3 165.4c-91.1 0-165.3-74.2-165.3-165.4z"></path></svg><svg id="instagram" viewBox="0 0 22 22" width="22" height="22" y="1677"><style>.st0{fill:#d80140}</style><path class="st0" d="M18.73 22H3.27C1.47 22 0 20.53 0 18.73V3.27C0 1.47 1.47 0 3.27 0h15.47C20.53 0 22 1.47 22 3.27v15.47c0 1.79-1.47 3.26-3.27 3.26zM3.27 1.38c-1.04 0-1.89.85-1.89 1.89v15.47c0 1.04.85 1.89 1.89 1.89h15.47c1.04 0 1.89-.85 1.89-1.89V3.27c0-1.04-.85-1.89-1.89-1.89H3.27z"></path><path class="st0" d="M11 4.8c-1.68 0-1.89.01-2.55.04-.66.03-1.11.14-1.5.29-.41.15-.76.37-1.11.71-.34.35-.56.69-.71 1.1-.15.39-.26.85-.29 1.5-.03.67-.04.88-.04 2.56 0 1.68.01 1.89.04 2.55.03.66.13 1.11.29 1.5.16.41.37.75.72 1.1.34.34.69.56 1.1.72.39.15.85.26 1.5.29.66.03.87.04 2.55.04 1.68 0 1.89-.01 2.55-.04.66-.03 1.11-.13 1.5-.29.41-.16.75-.37 1.1-.72.34-.34.56-.69.71-1.1.15-.39.26-.85.29-1.5.03-.66.04-.87.04-2.55 0-1.68-.01-1.89-.04-2.55-.03-.66-.13-1.11-.29-1.5-.16-.4-.37-.75-.71-1.1-.34-.34-.69-.56-1.1-.72-.39-.15-.85-.26-1.5-.29-.66-.03-.87-.04-2.55-.04m0 1.12c1.65 0 1.85 0 2.5.04.6.03.93.13 1.15.21.29.11.5.25.71.46.22.22.35.42.46.71.08.22.19.55.21 1.15.03.65.03.85.03 2.5s0 1.85-.03 2.5c-.03.6-.13.93-.21 1.15-.11.29-.25.5-.46.71-.22.22-.42.35-.71.46-.22.08-.54.19-1.15.21-.65.03-.85.03-2.5.03s-1.85 0-2.5-.03c-.6-.02-.94-.12-1.15-.2-.29-.11-.5-.25-.71-.46-.22-.22-.35-.42-.46-.71-.08-.22-.19-.55-.21-1.15-.03-.65-.03-.85-.03-2.5s0-1.85.03-2.5c.03-.6.13-.93.21-1.15.11-.29.25-.5.46-.71.22-.22.42-.35.71-.46.21-.1.54-.2 1.15-.23.65-.02.85-.03 2.5-.03"></path><path class="st0" d="M11 13.06c-1.14 0-2.06-.92-2.06-2.06 0-1.14.93-2.06 2.06-2.06 1.14 0 2.06.92 2.06 2.06.01 1.13-.92 2.06-2.06 2.06m0-5.25c-1.76 0-3.18 1.42-3.18 3.18 0 1.75 1.43 3.18 3.18 3.18 1.75 0 3.18-1.43 3.18-3.18 0-1.75-1.42-3.18-3.18-3.18M14.31 6.95c.41 0 .74.33.74.74s-.33.74-.74.74-.74-.33-.74-.74.33-.74.74-.74"></path></svg><svg id="instagram-1" viewBox="0 0 22 22" width="22" height="22" y="1699"><style>.st0{fill:#d80140}</style><path class="st0" d="M11 8.93c-1.14 0-2.06.92-2.06 2.06 0 1.14.92 2.06 2.06 2.06 1.14 0 2.07-.92 2.06-2.06 0-1.13-.92-2.06-2.06-2.06zM18.73 0H3.27C1.47 0 0 1.47 0 3.27v15.47C0 20.53 1.47 22 3.27 22h15.47c1.8 0 3.27-1.47 3.27-3.27V3.27A3.293 3.293 0 0 0 18.73 0zm-1.57 13.55c-.03.66-.13 1.11-.29 1.5-.16.41-.37.75-.71 1.1-.34.34-.69.56-1.1.72-.4.15-.85.26-1.5.29-.66.03-.87.04-2.55.04-1.68 0-1.89-.01-2.55-.04-.66-.03-1.11-.13-1.5-.29-.41-.16-.75-.37-1.1-.72-.34-.34-.56-.69-.72-1.1-.15-.4-.26-.85-.29-1.5-.04-.66-.05-.87-.05-2.55 0-1.68.01-1.89.04-2.55.03-.66.13-1.11.29-1.5.16-.41.37-.75.72-1.1.34-.34.69-.56 1.1-.72.4-.15.85-.26 1.5-.29.66-.03.87-.04 2.55-.04 1.68 0 1.89.01 2.55.04.66.03 1.11.14 1.5.29.41.16.75.37 1.1.72.34.34.56.69.71 1.1.15.4.26.85.29 1.5.04.66.05.87.05 2.55 0 1.68-.01 1.89-.04 2.55zm-1.33-6.21c-.11-.29-.24-.49-.46-.71-.21-.21-.42-.35-.71-.46-.22-.09-.55-.19-1.15-.21-.65-.03-.85-.04-2.5-.04s-1.85.01-2.5.04c-.62.02-.95.12-1.16.21-.29.11-.5.24-.71.46-.22.21-.35.42-.47.71-.08.22-.18.55-.21 1.15-.03.65-.03.85-.03 2.5s0 1.85.03 2.5c.03.61.13.93.21 1.15.11.29.24.49.46.71.21.21.42.35.71.46.22.09.56.19 1.16.22.65.03.85.03 2.5.03s1.85 0 2.5-.03c.61-.03.93-.13 1.15-.21.29-.11.49-.24.71-.46.21-.21.35-.42.46-.71.09-.22.19-.55.21-1.15.03-.65.03-.85.03-2.5s0-1.85-.03-2.5c-.02-.62-.12-.94-.2-1.16zM11 14.17c-1.75 0-3.18-1.43-3.18-3.18 0-1.75 1.42-3.18 3.18-3.18 1.76 0 3.18 1.42 3.18 3.18 0 1.75-1.43 3.18-3.18 3.18zm3.31-5.74c-.41 0-.74-.33-.74-.74s.33-.74.74-.74.74.33.74.74-.33.74-.74.74z"></path></svg><svg id="odnoklassniki" viewBox="0 0 22 22" width="22" height="22" y="1721"><style>.st0{fill:#d80140}</style><path class="st0" d="M11 10.57c1.68 0 3.01-1.33 3.01-3.01 0-1.68-1.33-3.01-3.01-3.01-1.68 0-3.01 1.33-3.01 3.01 0 1.68 1.33 3.01 3.01 3.01zm0-4.51c.82 0 1.5.69 1.5 1.5 0 .82-.69 1.5-1.5 1.5-.82 0-1.5-.69-1.5-1.5s.68-1.5 1.5-1.5zM14.01 11c-.43 0-1.29.86-3.01.86-1.72 0-2.58-.86-3.01-.86-.47 0-.86.39-.86.86 0 .43.26.64.43.73.52.3 2.15.99 2.15.99L7.86 15.9s-.34.39-.34.69c0 .47.39.86.86.86.43 0 .65-.3.65-.3L11 14.87l1.93 2.28s.21.3.64.3c.47 0 .86-.39.86-.86 0-.26-.34-.69-.34-.69l-1.8-2.32s1.63-.69 2.15-.99c.17-.13.43-.3.43-.73 0-.47-.39-.86-.86-.86zm4.72-11H3.27C1.47 0 0 1.47 0 3.27v15.47C0 20.53 1.47 22 3.27 22h15.47c1.8 0 3.27-1.47 3.27-3.27V3.27A3.293 3.293 0 0 0 18.73 0zm1.89 18.73c0 1.04-.85 1.89-1.89 1.89H3.27c-1.04 0-1.89-.85-1.89-1.89V3.27c0-1.04.85-1.89 1.89-1.89h15.47c1.04 0 1.89.85 1.89 1.89v15.46z"></path></svg><svg id="odnoklassniki-1" viewBox="0 0 22 22" width="22" height="22" y="1743"><style>.st0{fill:#d80140}</style><path class="st0" d="M11 9.07c.82 0 1.5-.69 1.5-1.5 0-.82-.69-1.5-1.5-1.5s-1.5.69-1.5 1.5.68 1.5 1.5 1.5z"></path><path class="st0" d="M18.73 0H3.27C1.47 0 0 1.47 0 3.27v15.47C0 20.53 1.47 22 3.27 22h15.47c1.8 0 3.27-1.47 3.27-3.27V3.27A3.293 3.293 0 0 0 18.73 0zM11 4.55c1.68 0 3.01 1.33 3.01 3.01 0 1.68-1.33 3.01-3.01 3.01-1.68 0-3.01-1.33-3.01-3.01 0-1.67 1.33-3.01 3.01-3.01zm3.44 8.04c-.52.3-2.15.99-2.15.99l1.8 2.32s.34.43.34.69c0 .47-.39.86-.86.86-.43 0-.64-.3-.64-.3L11 14.87l-1.98 2.28s-.22.3-.65.3c-.47 0-.86-.39-.86-.86 0-.3.34-.69.34-.69l1.85-2.32s-1.63-.69-2.15-.99a.788.788 0 0 1-.43-.73c0-.47.39-.86.86-.86.43 0 1.29.86 3.01.86 1.72 0 2.58-.86 3.01-.86.47 0 .86.39.86.86.01.43-.25.6-.42.73z"></path></svg><svg width="16.738" height="22.424" viewBox="0 0 16.738 22.424" id="pin" y="1765"><path d="M15.183 13.208l-5.979 8.756a1.032 1.032 0 0 1-1.718 0l-6.052-8.853a8.395 8.395 0 1 1 13.748.1zm-12.829-.707l5.979 8.733 5.91-8.639A7.238 7.238 0 1 0 1.129 8.357a7.368 7.368 0 0 0 1.225 4.145zm6-8.193a4.061 4.061 0 1 0 4.073 4.049 4.049 4.049 0 0 0-4.071-4.048zm0 1.131a2.931 2.931 0 1 1-2.919 2.919 2.937 2.937 0 0 1 2.921-2.916z" fill="#747474"></path></svg><svg width="51" height="69.371" viewBox="0 0 51 69.371" id="pin-ico" y="1788"><defs><linearGradient id="a" x1="-.084" y1="1.033" x2=".81" y2=".013" gradientUnits="objectBoundingBox"><stop offset="0" stop-color="#c1007d"></stop><stop offset="1" stop-color="#e5004f"></stop></linearGradient></defs><path data-name="Path 76" d="M691.051 101.649L671.561 73.2a25.964 25.964 0 0 1-4.311-14.595 25.5 25.5 0 1 1 46.192 14.926L694.2 101.649a1.859 1.859 0 0 1-3.149 0zm-12.606-43.04a14.3 14.3 0 1 0 14.263-14.265 14.332 14.332 0 0 0-14.263 14.265zm24.629 0a10.325 10.325 0 1 1-10.366-10.284 10.368 10.368 0 0 1 10.366 10.284z" transform="translate(-667.25 -33.149)" fill="url(#a)"></path></svg><svg width="45.112" height="76.153" viewBox="0 0 45.112 76.153" id="question-ico" y="1858"><defs><linearGradient id="a" x1="-.096" y1=".869" x2=".955" y2=".044" gradientUnits="objectBoundingBox"><stop offset="0" stop-color="#c1007d"></stop><stop offset="1" stop-color="#e5004f"></stop></linearGradient></defs><path d="M247.174 92.645a8.956 8.956 0 1 0 8.957 8.957 9.062 9.062 0 0 0-8.957-8.957zm.038-58.24a31.661 31.661 0 0 0-19.129 6.195 6.771 6.771 0 0 0 3.87 12.384 7.143 7.143 0 0 0 3.76-1.106 14.72 14.72 0 0 1 9.84-3.539c6.081 0 8.624 2.875 8.624 6.3 0 3.317-2.985 5.418-6.413 7.851-4.422 3.206-9.73 6.855-9.73 14.485a10.8 10.8 0 0 0 1.106 4.865 6.3 6.3 0 0 0 6.081 4.644 6.894 6.894 0 0 0 6.634-6.081 2.912 2.912 0 0 0 0-.995 4.164 4.164 0 0 1-.11-1.106c0-3.87 3.538-6.3 7.3-9.178 5.2-3.649 11.167-8.072 11.167-17.249-.001-10.284-8.736-17.47-23-17.47z" transform="translate(-225.098 -34.405)" fill="url(#a)"></path></svg><svg width="304.364" height="195.234" viewBox="0 0 304.364 195.234" id="questions-ico" y="1935"><defs><radialGradient id="a" cx="284.014" cy="413.452" r="44.75" gradientUnits="userSpaceOnUse"><stop offset="0" stop-color="#e5004f"></stop><stop offset="1" stop-color="#c1007d"></stop></radialGradient><radialGradient id="b" cx="409.875" cy="452.808" r="112.71" gradientTransform="translate(-27.384 -23.396) scale(1.154)" xlink:href="#a"></radialGradient></defs><g transform="translate(-205.298 -265.424)"><path d="M264.79 402.4c30.029-12.478 78.446-26.337 133.4-42.089 33.816-9.692 50.009-33.929 51.661-56.717" fill="none" stroke="#b7b8b8" stroke-linecap="round" stroke-miterlimit="10" stroke-width="2" stroke-dasharray="8 6"></path><path d="M364.567 361.992c1.954-.377 21.883-5.673 27.164-7.277 33.661-10.22 50.857-32.292 52.508-58.053" fill="none" stroke="#b7b8b8" stroke-linecap="round" stroke-miterlimit="10" stroke-width="2" stroke-dasharray="8 6"></path><path d="M367 354.495c8.105-1.824 11.8-3.526 18.271-5.38 33.817-9.693 51.7-28.013 52.364-60.71" fill="none" stroke="#b7b8b8" stroke-linecap="round" stroke-miterlimit="10" stroke-width="2" stroke-dasharray="8 6"></path><path d="M370.037 345.985c3.644-1.048 7.269-1.9 10.739-3.04 32.825-10.739 49.591-26.8 49.922-54.87" fill="none" stroke="#b7b8b8" stroke-linecap="round" stroke-miterlimit="10" stroke-width="2" stroke-dasharray="8 6"></path><path d="M364.389 340.2l7.957-2.282c33.816-9.693 48.144-21.36 49.765-45.877M367.615 331.341c32.367-8.257 43.6-19.156 44.587-28.074" fill="none" stroke="#b7b8b8" stroke-linecap="round" stroke-miterlimit="10" stroke-width="2" stroke-dasharray="8 6"></path><path d="M360.044 342.086c0-2.172 3.924-4.495 3.741-6.619-.187-2.16-4.454-3.773-4.822-5.877-.374-2.132 3.088-5.1 2.536-7.165-.558-2.089-5.041-2.933-5.774-4.945-.738-2.029 2.151-5.557 1.244-7.5s-5.474-2-6.549-3.859 1.152-5.843-.081-7.6-5.737-1.019-7.119-2.664.125-5.952-1.395-7.472-5.825-.011-7.472-1.4-.9-5.882-2.665-7.119-5.735 1-7.6-.081-1.9-5.636-3.859-6.548-5.469 1.982-7.5 1.244c-2.012-.733-2.856-5.216-4.945-5.774-2.065-.552-5.033 2.91-7.165 2.537-2.1-.369-3.716-4.636-5.876-4.822-2.124-.184-4.447 3.74-6.619 3.74s-4.494-3.924-6.618-3.74c-2.161.186-3.774 4.453-5.877 4.822-2.133.373-5.1-3.089-7.166-2.536-2.089.558-2.933 5.041-4.944 5.773-2.03.739-5.558-2.15-7.5-1.243s-2 5.474-3.86 6.548-5.843-1.151-7.6.082-1.019 5.737-2.664 7.119-5.952-.126-7.472 1.395-.011 5.824-1.395 7.472-5.882.9-7.119 2.665 1 5.735-.081 7.6-5.635 1.9-6.548 3.86 1.983 5.469 1.244 7.5c-.732 2.011-5.215 2.855-5.773 4.944-.553 2.065 2.909 5.033 2.536 7.166-.368 2.1-4.635 3.716-4.822 5.876-.183 2.124 3.741 4.447 3.741 6.618s-3.924 4.495-3.741 6.619c.187 2.16 4.454 3.774 4.822 5.877.374 2.132-3.088 5.1-2.536 7.166.558 2.088 5.041 2.932 5.774 4.944.738 2.029-2.151 5.557-1.244 7.5s5.474 2 6.549 3.859-1.152 5.843.081 7.6 5.737 1.019 7.119 2.665-.125 5.951 1.395 7.472 5.825.01 7.472 1.394.9 5.883 2.665 7.119 5.735-1 7.6.081 1.9 5.636 3.859 6.549 5.469-1.983 7.5-1.244c2.012.732 2.856 5.215 4.945 5.773 2.065.552 5.033-2.91 7.165-2.536 2.1.368 3.716 4.635 5.876 4.821 2.124.184 4.447-3.74 6.618-3.74s4.495 3.924 6.619 3.74c2.161-.186 3.774-4.453 5.877-4.822 2.133-.373 5.1 3.089 7.166 2.537 2.089-.559 2.933-5.042 4.944-5.774 2.03-.739 5.558 2.151 7.5 1.244s2-5.475 3.86-6.549 5.843 1.152 7.6-.081 1.019-5.737 2.664-7.12 5.952.126 7.472-1.395.011-5.824 1.395-7.472 5.882-.9 7.119-2.664-1-5.736.081-7.6 5.635-1.9 6.548-3.859-1.983-5.47-1.244-7.5c.732-2.011 5.215-2.855 5.773-4.944.552-2.065-2.909-5.033-2.536-7.165.368-2.1 4.635-3.717 4.822-5.877.183-2.121-3.741-4.443-3.741-6.615z" fill="#fff"></path><path d="M360.044 342.086c0-2.172 3.924-4.495 3.741-6.619-.187-2.16-4.454-3.773-4.822-5.877-.374-2.132 3.088-5.1 2.536-7.165-.558-2.089-5.041-2.933-5.774-4.945-.738-2.029 2.151-5.557 1.244-7.5s-5.474-2-6.549-3.859 1.152-5.843-.081-7.6-5.737-1.019-7.119-2.664.125-5.952-1.395-7.472-5.825-.011-7.472-1.4-.9-5.882-2.665-7.119-5.735 1-7.6-.081-1.9-5.636-3.859-6.548-5.469 1.982-7.5 1.244c-2.012-.733-2.856-5.216-4.945-5.774-2.065-.552-5.033 2.91-7.165 2.537-2.1-.369-3.716-4.636-5.876-4.822-2.124-.184-4.447 3.74-6.619 3.74s-4.494-3.924-6.618-3.74c-2.161.186-3.774 4.453-5.877 4.822-2.133.373-5.1-3.089-7.166-2.536-2.089.558-2.933 5.041-4.944 5.773-2.03.739-5.558-2.15-7.5-1.243s-2 5.474-3.86 6.548-5.843-1.151-7.6.082-1.019 5.737-2.664 7.119-5.952-.126-7.472 1.395-.011 5.824-1.395 7.472-5.882.9-7.119 2.665 1 5.735-.081 7.6-5.635 1.9-6.548 3.86 1.983 5.469 1.244 7.5c-.732 2.011-5.215 2.855-5.773 4.944-.553 2.065 2.909 5.033 2.536 7.166-.368 2.1-4.635 3.716-4.822 5.876-.183 2.124 3.741 4.447 3.741 6.618s-3.924 4.495-3.741 6.619c.187 2.16 4.454 3.774 4.822 5.877.374 2.132-3.088 5.1-2.536 7.166.558 2.088 5.041 2.932 5.774 4.944.738 2.029-2.151 5.557-1.244 7.5s5.474 2 6.549 3.859-1.152 5.843.081 7.6 5.737 1.019 7.119 2.665-.125 5.951 1.395 7.472 5.825.01 7.472 1.394.9 5.883 2.665 7.119 5.735-1 7.6.081 1.9 5.636 3.859 6.549 5.469-1.983 7.5-1.244c2.012.732 2.856 5.215 4.945 5.773 2.065.552 5.033-2.91 7.165-2.536 2.1.368 3.716 4.635 5.876 4.821 2.124.184 4.447-3.74 6.618-3.74s4.495 3.924 6.619 3.74c2.161-.186 3.774-4.453 5.877-4.822 2.133-.373 5.1 3.089 7.166 2.537 2.089-.559 2.933-5.042 4.944-5.774 2.03-.739 5.558 2.151 7.5 1.244s2-5.475 3.86-6.549 5.843 1.152 7.6-.081 1.019-5.737 2.664-7.12 5.952.126 7.472-1.395.011-5.824 1.395-7.472 5.882-.9 7.119-2.664-1-5.736.081-7.6 5.635-1.9 6.548-3.859-1.983-5.47-1.244-7.5c.732-2.011 5.215-2.855 5.773-4.944.552-2.065-2.909-5.033-2.536-7.165.368-2.1 4.635-3.717 4.822-5.877.183-2.121-3.741-4.443-3.741-6.615z" fill="none" stroke="#b7b8b8" stroke-miterlimit="10" stroke-width="2"></path><path d="M351.242 342.086c0-1.913 3.935-3.98 3.773-5.851-.164-1.9-4.4-3.263-4.722-5.115-.329-1.879 3.188-4.6 2.7-6.416-.492-1.84-4.9-2.44-5.543-4.212-.651-1.788 2.336-5.079 1.537-6.79s-5.247-1.542-6.193-3.178 1.418-5.4.332-6.954-5.434-.606-6.651-2.055.463-5.567-.876-6.906-5.455.343-6.906-.876-.5-5.561-2.056-6.651-5.31 1.283-6.953.332-1.457-5.389-3.179-6.193-5 2.189-6.789 1.539c-1.772-.646-2.371-5.051-4.211-5.543-1.82-.487-4.537 3.031-6.416 2.7-1.853-.325-3.212-4.558-5.115-4.723-1.871-.161-3.938 3.774-5.851 3.774s-3.98-3.935-5.851-3.774c-1.9.165-3.262 4.4-5.115 4.723-1.879.329-4.6-3.188-6.416-2.7-1.84.492-2.44 4.9-4.212 5.543-1.787.651-5.079-2.337-6.789-1.538s-1.543 5.247-3.179 6.194-5.4-1.418-6.953-.332-.606 5.434-2.056 6.651-5.566-.463-6.906.876.344 5.455-.875 6.906-5.562.5-6.652 2.056 1.284 5.31.333 6.953-5.389 1.457-6.193 3.178 2.189 5 1.538 6.789c-.645 1.772-5.051 2.372-5.543 4.212-.486 1.819 3.031 4.537 2.7 6.416-.324 1.852-4.558 3.211-4.722 5.114-.162 1.871 3.773 3.938 3.773 5.851s-3.935 3.98-3.773 5.852c.164 1.9 4.4 3.262 4.722 5.115.329 1.878-3.188 4.6-2.7 6.416.492 1.84 4.9 2.439 5.543 4.211.651 1.788-2.337 5.079-1.537 6.79s5.247 1.543 6.193 3.178-1.418 5.4-.332 6.954 5.434.606 6.651 2.055-.463 5.567.876 6.906 5.455-.343 6.906.876.5 5.562 2.056 6.651 5.31-1.283 6.953-.332 1.457 5.389 3.179 6.193 5-2.189 6.789-1.538c1.772.645 2.371 5.051 4.211 5.543 1.82.486 4.537-3.031 6.416-2.7 1.852.324 3.212 4.558 5.115 4.722 1.871.162 3.938-3.774 5.85-3.774s3.981 3.936 5.852 3.774c1.9-.164 3.262-4.4 5.115-4.723 1.879-.329 4.6 3.189 6.416 2.7 1.84-.492 2.44-4.9 4.212-5.543s5.079 2.337 6.789 1.538 1.543-5.247 3.179-6.193 5.4 1.418 6.953.331.606-5.433 2.056-6.651 5.566.464 6.906-.876-.344-5.454.875-6.906 5.562-.5 6.651-2.055-1.283-5.31-.332-6.954 5.389-1.456 6.193-3.178-2.189-5-1.538-6.789c.645-1.772 5.051-2.372 5.543-4.212.486-1.819-3.031-4.537-2.7-6.415.324-1.853 4.558-3.212 4.722-5.115.162-1.871-3.773-3.937-3.773-5.851z" fill="#fff"></path><path d="M351.242 342.086c0-1.913 3.935-3.98 3.773-5.851-.164-1.9-4.4-3.263-4.722-5.115-.329-1.879 3.188-4.6 2.7-6.416-.492-1.84-4.9-2.44-5.543-4.212-.651-1.788 2.336-5.079 1.537-6.79s-5.247-1.542-6.193-3.178 1.418-5.4.332-6.954-5.434-.606-6.651-2.055.463-5.567-.876-6.906-5.455.343-6.906-.876-.5-5.561-2.056-6.651-5.31 1.283-6.953.332-1.457-5.389-3.179-6.193-5 2.189-6.789 1.539c-1.772-.646-2.371-5.051-4.211-5.543-1.82-.487-4.537 3.031-6.416 2.7-1.853-.325-3.212-4.558-5.115-4.723-1.871-.161-3.938 3.774-5.851 3.774s-3.98-3.935-5.851-3.774c-1.9.165-3.262 4.4-5.115 4.723-1.879.329-4.6-3.188-6.416-2.7-1.84.492-2.44 4.9-4.212 5.543-1.787.651-5.079-2.337-6.789-1.538s-1.543 5.247-3.179 6.194-5.4-1.418-6.953-.332-.606 5.434-2.056 6.651-5.566-.463-6.906.876.344 5.455-.875 6.906-5.562.5-6.652 2.056 1.284 5.31.333 6.953-5.389 1.457-6.193 3.178 2.189 5 1.538 6.789c-.645 1.772-5.051 2.372-5.543 4.212-.486 1.819 3.031 4.537 2.7 6.416-.324 1.852-4.558 3.211-4.722 5.114-.162 1.871 3.773 3.938 3.773 5.851s-3.935 3.98-3.773 5.852c.164 1.9 4.4 3.262 4.722 5.115.329 1.878-3.188 4.6-2.7 6.416.492 1.84 4.9 2.439 5.543 4.211.651 1.788-2.337 5.079-1.537 6.79s5.247 1.543 6.193 3.178-1.418 5.4-.332 6.954 5.434.606 6.651 2.055-.463 5.567.876 6.906 5.455-.343 6.906.876.5 5.562 2.056 6.651 5.31-1.283 6.953-.332 1.457 5.389 3.179 6.193 5-2.189 6.789-1.538c1.772.645 2.371 5.051 4.211 5.543 1.82.486 4.537-3.031 6.416-2.7 1.852.324 3.212 4.558 5.115 4.722 1.871.162 3.938-3.774 5.85-3.774s3.981 3.936 5.852 3.774c1.9-.164 3.262-4.4 5.115-4.723 1.879-.329 4.6 3.189 6.416 2.7 1.84-.492 2.44-4.9 4.212-5.543s5.079 2.337 6.789 1.538 1.543-5.247 3.179-6.193 5.4 1.418 6.953.331.606-5.433 2.056-6.651 5.566.464 6.906-.876-.344-5.454.875-6.906 5.562-.5 6.651-2.055-1.283-5.31-.332-6.954 5.389-1.456 6.193-3.178-2.189-5-1.538-6.789c.645-1.772 5.051-2.372 5.543-4.212.486-1.819-3.031-4.537-2.7-6.415.324-1.853 4.558-3.212 4.722-5.115.162-1.871-3.773-3.937-3.773-5.851z" fill="none" stroke="#b7b8b8" stroke-miterlimit="10" stroke-width="2"></path><path d="M342.439 342.086c0-1.654 3.947-3.466 3.807-5.084-.142-1.646-4.343-2.751-4.623-4.353-.285-1.625 3.288-4.093 2.867-5.666-.425-1.592-4.754-1.947-5.312-3.48s2.523-4.6 1.832-6.08-5.02-1.083-5.839-2.5 1.685-4.967.745-6.306-5.13-.193-6.183-1.446.8-5.182-.357-6.34-5.084.7-6.34-.357-.1-5.241-1.446-6.183-4.885 1.568-6.306.746-1.009-5.143-2.5-5.838-4.533 2.4-6.079 1.832-1.888-4.886-3.479-5.312c-1.574-.42-4.041 3.152-5.665 2.868-1.6-.281-2.708-4.481-4.354-4.623-1.618-.14-3.429 3.806-5.084 3.806s-3.465-3.946-5.084-3.806c-1.645.142-2.751 4.342-4.353 4.623-1.625.285-4.092-3.288-5.666-2.867-1.591.425-1.947 4.754-3.479 5.312s-4.6-2.523-6.08-1.832-1.083 5.02-2.5 5.838-4.967-1.684-6.306-.745-.193 5.13-1.447 6.183-5.181-.8-6.34.357.7 5.085-.356 6.34-5.241.1-6.183 1.447 1.567 4.885.745 6.306-5.142 1.008-5.838 2.5 2.395 4.534 1.833 6.08-4.887 1.888-5.312 3.479c-.421 1.573 3.152 4.041 2.867 5.665-.28 1.6-4.481 2.707-4.623 4.353-.14 1.619 3.807 3.43 3.807 5.084s-3.947 3.466-3.807 5.084c.142 1.646 4.343 2.751 4.623 4.354.285 1.624-3.288 4.092-2.867 5.666.425 1.591 4.754 1.946 5.312 3.479s-2.523 4.6-1.832 6.08 5.02 1.083 5.839 2.5-1.685 4.967-.745 6.306 5.13.193 6.183 1.446-.8 5.182.357 6.34 5.084-.7 6.34.357.1 5.241 1.446 6.183 4.885-1.568 6.306-.746 1.009 5.143 2.5 5.838 4.533-2.4 6.079-1.832 1.888 4.887 3.479 5.312c1.574.421 4.041-3.152 5.665-2.868 1.6.281 2.708 4.481 4.354 4.624 1.618.139 3.429-3.807 5.083-3.807s3.466 3.946 5.085 3.807c1.645-.143 2.751-4.343 4.353-4.624 1.625-.284 4.092 3.288 5.666 2.868 1.591-.426 1.947-4.755 3.479-5.312s4.6 2.523 6.08 1.832 1.083-5.02 2.5-5.839 4.967 1.685 6.306.745.193-5.13 1.447-6.183 5.181.8 6.34-.357-.7-5.085.356-6.34 5.241-.1 6.183-1.447-1.567-4.884-.745-6.306 5.142-1.008 5.838-2.5-2.395-4.534-1.833-6.079 4.887-1.888 5.312-3.48c.421-1.573-3.152-4.04-2.867-5.665.28-1.6 4.481-2.707 4.623-4.353.14-1.618-3.807-3.429-3.807-5.084z" fill="#fff"></path><path d="M342.439 342.086c0-1.654 3.947-3.466 3.807-5.084-.142-1.646-4.343-2.751-4.623-4.353-.285-1.625 3.288-4.093 2.867-5.666-.425-1.592-4.754-1.947-5.312-3.48s2.523-4.6 1.832-6.08-5.02-1.083-5.839-2.5 1.685-4.967.745-6.306-5.13-.193-6.183-1.446.8-5.182-.357-6.34-5.084.7-6.34-.357-.1-5.241-1.446-6.183-4.885 1.568-6.306.746-1.009-5.143-2.5-5.838-4.533 2.4-6.079 1.832-1.888-4.886-3.479-5.312c-1.574-.42-4.041 3.152-5.665 2.868-1.6-.281-2.708-4.481-4.354-4.623-1.618-.14-3.429 3.806-5.084 3.806s-3.465-3.946-5.084-3.806c-1.645.142-2.751 4.342-4.353 4.623-1.625.285-4.092-3.288-5.666-2.867-1.591.425-1.947 4.754-3.479 5.312s-4.6-2.523-6.08-1.832-1.083 5.02-2.5 5.838-4.967-1.684-6.306-.745-.193 5.13-1.447 6.183-5.181-.8-6.34.357.7 5.085-.356 6.34-5.241.1-6.183 1.447 1.567 4.885.745 6.306-5.142 1.008-5.838 2.5 2.395 4.534 1.833 6.08-4.887 1.888-5.312 3.479c-.421 1.573 3.152 4.041 2.867 5.665-.28 1.6-4.481 2.707-4.623 4.353-.14 1.619 3.807 3.43 3.807 5.084s-3.947 3.466-3.807 5.084c.142 1.646 4.343 2.751 4.623 4.354.285 1.624-3.288 4.092-2.867 5.666.425 1.591 4.754 1.946 5.312 3.479s-2.523 4.6-1.832 6.08 5.02 1.083 5.839 2.5-1.685 4.967-.745 6.306 5.13.193 6.183 1.446-.8 5.182.357 6.34 5.084-.7 6.34.357.1 5.241 1.446 6.183 4.885-1.568 6.306-.746 1.009 5.143 2.5 5.838 4.533-2.4 6.079-1.832 1.888 4.887 3.479 5.312c1.574.421 4.041-3.152 5.665-2.868 1.6.281 2.708 4.481 4.354 4.624 1.618.139 3.429-3.807 5.083-3.807s3.466 3.946 5.085 3.807c1.645-.143 2.751-4.343 4.353-4.624 1.625-.284 4.092 3.288 5.666 2.868 1.591-.426 1.947-4.755 3.479-5.312s4.6 2.523 6.08 1.832 1.083-5.02 2.5-5.839 4.967 1.685 6.306.745.193-5.13 1.447-6.183 5.181.8 6.34-.357-.7-5.085.356-6.34 5.241-.1 6.183-1.447-1.567-4.884-.745-6.306 5.142-1.008 5.838-2.5-2.395-4.534-1.833-6.079 4.887-1.888 5.312-3.48c.421-1.573-3.152-4.04-2.867-5.665.28-1.6 4.481-2.707 4.623-4.353.14-1.618-3.807-3.429-3.807-5.084z" fill="none" stroke="#b7b8b8" stroke-miterlimit="10" stroke-width="2"></path><path d="M333.637 342.086c0-1.4 3.957-2.951 3.84-4.316-.12-1.389-4.288-2.24-4.524-3.592-.24-1.371 3.387-3.589 3.033-4.916-.359-1.343-4.611-1.454-5.082-2.747s2.709-4.122 2.126-5.371-4.792-.623-5.483-1.816 1.951-4.529 1.158-5.659-4.826.22-5.715-.838 1.14-4.8.162-5.774-4.715 1.052-5.774.163.3-4.921-.837-5.715-4.46 1.852-5.659 1.159-.56-4.9-1.816-5.483-4.066 2.6-5.37 2.126-1.4-4.722-2.747-5.081c-1.327-.355-3.545 3.273-4.915 3.033-1.352-.237-2.2-4.4-3.592-4.524-1.365-.118-2.921 3.84-4.317 3.84s-2.951-3.958-4.316-3.84c-1.389.12-2.24 4.287-3.592 4.524-1.371.24-3.588-3.388-4.916-3.033s-1.454 4.611-2.747 5.081-4.122-2.709-5.37-2.126-.623 4.793-1.817 5.484-4.529-1.951-5.659-1.159.22 4.827-.837 5.715-4.8-1.139-5.774-.162 1.052 4.715.162 5.774-4.92-.3-5.715.838 1.853 4.459 1.159 5.658-4.9.561-5.483 1.817 2.6 4.066 2.127 5.37-4.723 1.4-5.082 2.747c-.355 1.327 3.273 3.544 3.033 4.915-.236 1.352-4.4 2.2-4.524 3.592-.118 1.365 3.84 2.92 3.84 4.316s-3.958 2.951-3.84 4.317c.12 1.388 4.288 2.24 4.524 3.591.24 1.371-3.387 3.589-3.033 4.916.359 1.343 4.611 1.454 5.082 2.747s-2.709 4.123-2.126 5.371 4.792.623 5.483 1.817-1.951 4.529-1.158 5.659 4.826-.221 5.715.837-1.14 4.8-.162 5.774 4.714-1.052 5.774-.162-.3 4.92.837 5.715 4.46-1.853 5.659-1.159.56 4.9 1.816 5.483 4.066-2.6 5.37-2.127 1.4 4.723 2.747 5.081c1.327.355 3.545-3.273 4.915-3.033 1.352.237 2.2 4.4 3.592 4.524 1.365.118 2.921-3.839 4.316-3.839s2.952 3.957 4.317 3.839c1.389-.12 2.24-4.287 3.592-4.524 1.371-.24 3.588 3.388 4.916 3.033s1.454-4.61 2.747-5.081 4.122 2.709 5.37 2.126.623-4.793 1.817-5.483 4.529 1.951 5.659 1.158-.22-4.827.837-5.715 4.8 1.139 5.774.162-1.052-4.715-.162-5.774 4.92.3 5.715-.838-1.853-4.459-1.159-5.658 4.9-.56 5.483-1.816-2.6-4.066-2.127-5.371 4.723-1.4 5.082-2.746-3.273-3.545-3.033-4.916c.236-1.352 4.4-2.2 4.524-3.591.117-1.366-3.84-2.921-3.84-4.317z" fill="#fff"></path><path d="M333.637 342.086c0-1.4 3.957-2.951 3.84-4.316-.12-1.389-4.288-2.24-4.524-3.592-.24-1.371 3.387-3.589 3.033-4.916-.359-1.343-4.611-1.454-5.082-2.747s2.709-4.122 2.126-5.371-4.792-.623-5.483-1.816 1.951-4.529 1.158-5.659-4.826.22-5.715-.838 1.14-4.8.162-5.774-4.715 1.052-5.774.163.3-4.921-.837-5.715-4.46 1.852-5.659 1.159-.56-4.9-1.816-5.483-4.066 2.6-5.37 2.126-1.4-4.722-2.747-5.081c-1.327-.355-3.545 3.273-4.915 3.033-1.352-.237-2.2-4.4-3.592-4.524-1.365-.118-2.921 3.84-4.317 3.84s-2.951-3.958-4.316-3.84c-1.389.12-2.24 4.287-3.592 4.524-1.371.24-3.588-3.388-4.916-3.033s-1.454 4.611-2.747 5.081-4.122-2.709-5.37-2.126-.623 4.793-1.817 5.484-4.529-1.951-5.659-1.159.22 4.827-.837 5.715-4.8-1.139-5.774-.162 1.052 4.715.162 5.774-4.92-.3-5.715.838 1.853 4.459 1.159 5.658-4.9.561-5.483 1.817 2.6 4.066 2.127 5.37-4.723 1.4-5.082 2.747c-.355 1.327 3.273 3.544 3.033 4.915-.236 1.352-4.4 2.2-4.524 3.592-.118 1.365 3.84 2.92 3.84 4.316s-3.958 2.951-3.84 4.317c.12 1.388 4.288 2.24 4.524 3.591.24 1.371-3.387 3.589-3.033 4.916.359 1.343 4.611 1.454 5.082 2.747s-2.709 4.123-2.126 5.371 4.792.623 5.483 1.817-1.951 4.529-1.158 5.659 4.826-.221 5.715.837-1.14 4.8-.162 5.774 4.714-1.052 5.774-.162-.3 4.92.837 5.715 4.46-1.853 5.659-1.159.56 4.9 1.816 5.483 4.066-2.6 5.37-2.127 1.4 4.723 2.747 5.081c1.327.355 3.545-3.273 4.915-3.033 1.352.237 2.2 4.4 3.592 4.524 1.365.118 2.921-3.839 4.316-3.839s2.952 3.957 4.317 3.839c1.389-.12 2.24-4.287 3.592-4.524 1.371-.24 3.588 3.388 4.916 3.033s1.454-4.61 2.747-5.081 4.122 2.709 5.37 2.126.623-4.793 1.817-5.483 4.529 1.951 5.659 1.158-.22-4.827.837-5.715 4.8 1.139 5.774.162-1.052-4.715-.162-5.774 4.92.3 5.715-.838-1.853-4.459-1.159-5.658 4.9-.56 5.483-1.816-2.6-4.066-2.127-5.371 4.723-1.4 5.082-2.746-3.273-3.545-3.033-4.916c.236-1.352 4.4-2.2 4.524-3.591.117-1.366-3.84-2.921-3.84-4.317z" fill="none" stroke="#b7b8b8" stroke-miterlimit="10" stroke-width="2"></path><path d="M324.835 342.086c0-1.137 3.968-2.437 3.872-3.549-.1-1.131-4.232-1.729-4.424-2.83-.2-1.117 3.487-3.084 3.2-4.166s-4.467-.961-4.851-2.015 2.9-3.644 2.421-4.661-4.566-.163-5.128-1.136 2.217-4.091 1.571-5.011-4.523.633-5.247-.229 1.477-4.411.681-5.207-4.345 1.406-5.208.681.7-4.6-.229-5.247-4.034 2.137-5.011 1.572-.112-4.65-1.135-5.128-3.6 2.808-4.661 2.421-.92-4.558-2.014-4.851-3.049 3.395-4.165 3.2-1.7-4.327-2.83-4.425c-1.113-.1-2.412 3.873-3.55 3.873s-2.436-3.969-3.549-3.873c-1.131.1-1.728 4.232-2.83 4.425-1.117.2-3.084-3.488-4.166-3.2s-.961 4.467-2.014 4.85-3.645-2.895-4.662-2.42-.163 4.565-1.135 5.128-4.091-2.217-5.012-1.572.633 4.524-.228 5.248-4.412-1.478-5.208-.681 1.406 4.344.681 5.207-4.6-.694-5.247.229 2.138 4.034 1.572 5.011-4.649.112-5.127 1.136 2.807 3.6 2.42 4.66-4.558.921-4.85 2.015 3.394 3.048 3.2 4.165c-.193 1.1-4.326 1.7-4.424 2.83-.1 1.113 3.872 2.412 3.872 3.549s-3.968 2.437-3.872 3.549c.1 1.132 4.231 1.729 4.424 2.83.2 1.117-3.487 3.085-3.2 4.166s4.467.961 4.851 2.015-2.9 3.644-2.421 4.661 4.566.163 5.128 1.136-2.217 4.091-1.571 5.012 4.523-.634 5.247.228-1.477 4.411-.681 5.208 4.345-1.407 5.208-.682-.7 4.6.228 5.247 4.035-2.137 5.011-1.572.113 4.65 1.136 5.128 3.6-2.808 4.661-2.421.92 4.559 2.014 4.851 3.049-3.394 4.165-3.2 1.7 4.327 2.83 4.425c1.113.1 2.412-3.873 3.549-3.873s2.437 3.969 3.55 3.873c1.131-.1 1.728-4.232 2.83-4.425 1.117-.2 3.084 3.488 4.166 3.2s.961-4.467 2.014-4.851 3.644 2.895 4.662 2.42.163-4.565 1.135-5.128 4.091 2.218 5.012 1.572-.633-4.524.228-5.247 4.412 1.477 5.208.681-1.406-4.345-.681-5.208 4.6.694 5.247-.229-2.138-4.034-1.572-5.011 4.649-.112 5.127-1.135-2.807-3.6-2.42-4.661 4.558-.92 4.85-2.014-3.394-3.049-3.2-4.166c.193-1.1 4.326-1.7 4.424-2.83.093-1.111-3.872-2.41-3.872-3.548z" fill="#fff"></path><path d="M324.835 342.086c0-1.137 3.968-2.437 3.872-3.549-.1-1.131-4.232-1.729-4.424-2.83-.2-1.117 3.487-3.084 3.2-4.166s-4.467-.961-4.851-2.015 2.9-3.644 2.421-4.661-4.566-.163-5.128-1.136 2.217-4.091 1.571-5.011-4.523.633-5.247-.229 1.477-4.411.681-5.207-4.345 1.406-5.208.681.7-4.6-.229-5.247-4.034 2.137-5.011 1.572-.112-4.65-1.135-5.128-3.6 2.808-4.661 2.421-.92-4.558-2.014-4.851-3.049 3.395-4.165 3.2-1.7-4.327-2.83-4.425c-1.113-.1-2.412 3.873-3.55 3.873s-2.436-3.969-3.549-3.873c-1.131.1-1.728 4.232-2.83 4.425-1.117.2-3.084-3.488-4.166-3.2s-.961 4.467-2.014 4.85-3.645-2.895-4.662-2.42-.163 4.565-1.135 5.128-4.091-2.217-5.012-1.572.633 4.524-.228 5.248-4.412-1.478-5.208-.681 1.406 4.344.681 5.207-4.6-.694-5.247.229 2.138 4.034 1.572 5.011-4.649.112-5.127 1.136 2.807 3.6 2.42 4.66-4.558.921-4.85 2.015 3.394 3.048 3.2 4.165c-.193 1.1-4.326 1.7-4.424 2.83-.1 1.113 3.872 2.412 3.872 3.549s-3.968 2.437-3.872 3.549c.1 1.132 4.231 1.729 4.424 2.83.2 1.117-3.487 3.085-3.2 4.166s4.467.961 4.851 2.015-2.9 3.644-2.421 4.661 4.566.163 5.128 1.136-2.217 4.091-1.571 5.012 4.523-.634 5.247.228-1.477 4.411-.681 5.208 4.345-1.407 5.208-.682-.7 4.6.228 5.247 4.035-2.137 5.011-1.572.113 4.65 1.136 5.128 3.6-2.808 4.661-2.421.92 4.559 2.014 4.851 3.049-3.394 4.165-3.2 1.7 4.327 2.83 4.425c1.113.1 2.412-3.873 3.549-3.873s2.437 3.969 3.55 3.873c1.131-.1 1.728-4.232 2.83-4.425 1.117-.2 3.084 3.488 4.166 3.2s.961-4.467 2.014-4.851 3.644 2.895 4.662 2.42.163-4.565 1.135-5.128 4.091 2.218 5.012 1.572-.633-4.524.228-5.247 4.412 1.477 5.208.681-1.406-4.345-.681-5.208 4.6.694 5.247-.229-2.138-4.034-1.572-5.011 4.649-.112 5.127-1.135-2.807-3.6-2.42-4.661 4.558-.92 4.85-2.014-3.394-3.049-3.2-4.166c.193-1.1 4.326-1.7 4.424-2.83.093-1.111-3.872-2.41-3.872-3.548z" fill="none" stroke="#b7b8b8" stroke-miterlimit="10" stroke-width="2"></path><path d="M316.032 342.086c0-.879 3.98-1.922 3.906-2.782s-4.176-1.217-4.325-2.068 3.587-2.58 3.364-3.416-4.324-.468-4.62-1.282 3.081-3.166 2.714-3.952-4.338.3-4.773-.455 2.484-3.653 1.985-4.364-4.22 1.047-4.779.381 1.815-4.027 1.2-4.642-3.975 1.76-4.642 1.2 1.094-4.278.381-4.779-3.609 2.422-4.364 1.985.336-4.4-.455-4.772-3.13 3.014-3.951 2.715-.437-4.394-1.282-4.62-2.553 3.515-3.415 3.364-1.2-4.25-2.069-4.325-1.9 3.9-2.782 3.9-1.922-3.979-2.781-3.9-1.218 4.176-2.069 4.325-2.58-3.587-3.416-3.364-.467 4.324-1.282 4.62-3.166-3.082-3.952-2.715.3 4.339-.454 4.773-3.653-2.484-4.365-1.984 1.047 4.219.381 4.779-4.026-1.816-4.642-1.2 1.761 3.975 1.2 4.641-4.279-1.093-4.779-.38 2.422 3.609 1.985 4.364-4.4-.336-4.773.455 3.014 3.13 2.715 3.951-4.394.436-4.62 1.281 3.516 2.553 3.364 3.416-4.249 1.194-4.325 2.068 3.906 1.9 3.906 2.782-3.98 1.922-3.906 2.782 4.176 1.217 4.325 2.068-3.587 2.581-3.364 3.416 4.324.468 4.62 1.282-3.081 3.166-2.714 3.952 4.338-.3 4.773.455-2.484 3.653-1.985 4.364 4.22-1.046 4.779-.38-1.815 4.026-1.2 4.641 3.975-1.76 4.642-1.2-1.094 4.279-.381 4.779 3.609-2.422 4.364-1.985-.336 4.4.455 4.772 3.13-3.013 3.951-2.714.437 4.393 1.282 4.619 2.553-3.515 3.415-3.364 1.2 4.25 2.069 4.325 1.9-3.9 2.781-3.9 1.923 3.98 2.782 3.9 1.218-4.176 2.069-4.325 2.58 3.588 3.416 3.364.467-4.323 1.282-4.62 3.166 3.082 3.951 2.715-.3-4.338.455-4.773 3.653 2.484 4.364 1.985-1.046-4.22-.38-4.779 4.026 1.815 4.642 1.2-1.761-3.974-1.2-4.641 4.279 1.094 4.779.38-2.422-3.609-1.985-4.364 4.4.337 4.773-.454-3.014-3.131-2.715-3.952 4.394-.436 4.62-1.281-3.516-2.553-3.364-3.416 4.249-1.194 4.325-2.068-3.906-1.904-3.906-2.783z" fill="#fff"></path><path d="M316.032 342.086c0-.879 3.98-1.922 3.906-2.782s-4.176-1.217-4.325-2.068 3.587-2.58 3.364-3.416-4.324-.468-4.62-1.282 3.081-3.166 2.714-3.952-4.338.3-4.773-.455 2.484-3.653 1.985-4.364-4.22 1.047-4.779.381 1.815-4.027 1.2-4.642-3.975 1.76-4.642 1.2 1.094-4.278.381-4.779-3.609 2.422-4.364 1.985.336-4.4-.455-4.772-3.13 3.014-3.951 2.715-.437-4.394-1.282-4.62-2.553 3.515-3.415 3.364-1.2-4.25-2.069-4.325-1.9 3.9-2.782 3.9-1.922-3.979-2.781-3.9-1.218 4.176-2.069 4.325-2.58-3.587-3.416-3.364-.467 4.324-1.282 4.62-3.166-3.082-3.952-2.715.3 4.339-.454 4.773-3.653-2.484-4.365-1.984 1.047 4.219.381 4.779-4.026-1.816-4.642-1.2 1.761 3.975 1.2 4.641-4.279-1.093-4.779-.38 2.422 3.609 1.985 4.364-4.4-.336-4.773.455 3.014 3.13 2.715 3.951-4.394.436-4.62 1.281 3.516 2.553 3.364 3.416-4.249 1.194-4.325 2.068 3.906 1.9 3.906 2.782-3.98 1.922-3.906 2.782 4.176 1.217 4.325 2.068-3.587 2.581-3.364 3.416 4.324.468 4.62 1.282-3.081 3.166-2.714 3.952 4.338-.3 4.773.455-2.484 3.653-1.985 4.364 4.22-1.046 4.779-.38-1.815 4.026-1.2 4.641 3.975-1.76 4.642-1.2-1.094 4.279-.381 4.779 3.609-2.422 4.364-1.985-.336 4.4.455 4.772 3.13-3.013 3.951-2.714.437 4.393 1.282 4.619 2.553-3.515 3.415-3.364 1.2 4.25 2.069 4.325 1.9-3.9 2.781-3.9 1.923 3.98 2.782 3.9 1.218-4.176 2.069-4.325 2.58 3.588 3.416 3.364.467-4.323 1.282-4.62 3.166 3.082 3.951 2.715-.3-4.338.455-4.773 3.653 2.484 4.364 1.985-1.046-4.22-.38-4.779 4.026 1.815 4.642 1.2-1.761-3.974-1.2-4.641 4.279 1.094 4.779.38-2.422-3.609-1.985-4.364 4.4.337 4.773-.454-3.014-3.131-2.715-3.952 4.394-.436 4.62-1.281-3.516-2.553-3.364-3.416 4.249-1.194 4.325-2.068-3.906-1.904-3.906-2.783z" fill="none" stroke="#b7b8b8" stroke-miterlimit="10" stroke-width="2"></path><path d="M307.23 342.086c0-.62 3.991-1.408 3.938-2.015s-4.12-.706-4.226-1.307 3.687-2.076 3.53-2.666-4.18.025-4.389-.549 3.267-2.688 3.008-3.243-4.11.757-4.417.227 2.75-3.215 2.4-3.717-3.917 1.46-4.312.99 2.154-3.642 1.719-4.076-3.605 2.115-4.075 1.719 1.493-3.958.989-4.311-3.183 2.707-3.716 2.4.784-4.157.226-4.418-2.662 3.221-3.242 3.01.048-4.23-.549-4.389-2.056 3.636-2.665 3.529-.69-4.172-1.307-4.226-1.394 3.939-2.015 3.939-1.408-3.991-2.015-3.939-.706 4.121-1.307 4.226-2.076-3.687-2.666-3.529.026 4.18-.549 4.389-2.688-3.268-3.242-3.009.756 4.111.226 4.418-3.215-2.75-3.717-2.4 1.46 3.916.99 4.311-3.642-2.153-4.076-1.719 2.115 3.605 1.72 4.076-3.958-1.493-4.312-.989 2.707 3.183 2.4 3.716-4.157-.784-4.417-.226 3.22 2.662 3.009 3.241-4.23-.047-4.389.549 3.636 2.057 3.53 2.666-4.173.69-4.226 1.307 3.938 1.394 3.938 2.014-3.991 1.408-3.938 2.015 4.12.706 4.226 1.307-3.687 2.077-3.53 2.666 4.18-.025 4.389.549-3.267 2.688-3.008 3.243 4.11-.757 4.417-.227-2.75 3.215-2.4 3.717 3.917-1.459 4.312-.989-2.154 3.641-1.719 4.075 3.6-2.114 4.075-1.719-1.493 3.958-.989 4.311 3.183-2.707 3.716-2.4-.784 4.157-.226 4.418 2.662-3.22 3.241-3.009-.047 4.229.55 4.389 2.056-3.637 2.665-3.53.69 4.173 1.307 4.226 1.394-3.939 2.014-3.939 1.409 3.991 2.016 3.939.706-4.121 1.307-4.226 2.076 3.687 2.666 3.529-.026-4.18.549-4.389 2.688 3.268 3.242 3.009-.757-4.111-.226-4.418 3.215 2.751 3.717 2.4-1.46-3.916-.99-4.311 3.641 2.153 4.076 1.719-2.115-3.605-1.72-4.075 3.958 1.492 4.311.989-2.706-3.184-2.4-3.717 4.157.785 4.417.227-3.22-2.663-3.009-3.242 4.23.048 4.389-.549-3.636-2.057-3.53-2.666 4.173-.69 4.226-1.307-3.937-1.394-3.937-2.014z" fill="#fff"></path><path d="M307.23 342.086c0-.62 3.991-1.408 3.938-2.015s-4.12-.706-4.226-1.307 3.687-2.076 3.53-2.666-4.18.025-4.389-.549 3.267-2.688 3.008-3.243-4.11.757-4.417.227 2.75-3.215 2.4-3.717-3.917 1.46-4.312.99 2.154-3.642 1.719-4.076-3.605 2.115-4.075 1.719 1.493-3.958.989-4.311-3.183 2.707-3.716 2.4.784-4.157.226-4.418-2.662 3.221-3.242 3.01.048-4.23-.549-4.389-2.056 3.636-2.665 3.529-.69-4.172-1.307-4.226-1.394 3.939-2.015 3.939-1.408-3.991-2.015-3.939-.706 4.121-1.307 4.226-2.076-3.687-2.666-3.529.026 4.18-.549 4.389-2.688-3.268-3.242-3.009.756 4.111.226 4.418-3.215-2.75-3.717-2.4 1.46 3.916.99 4.311-3.642-2.153-4.076-1.719 2.115 3.605 1.72 4.076-3.958-1.493-4.312-.989 2.707 3.183 2.4 3.716-4.157-.784-4.417-.226 3.22 2.662 3.009 3.241-4.23-.047-4.389.549 3.636 2.057 3.53 2.666-4.173.69-4.226 1.307 3.938 1.394 3.938 2.014-3.991 1.408-3.938 2.015 4.12.706 4.226 1.307-3.687 2.077-3.53 2.666 4.18-.025 4.389.549-3.267 2.688-3.008 3.243 4.11-.757 4.417-.227-2.75 3.215-2.4 3.717 3.917-1.459 4.312-.989-2.154 3.641-1.719 4.075 3.6-2.114 4.075-1.719-1.493 3.958-.989 4.311 3.183-2.707 3.716-2.4-.784 4.157-.226 4.418 2.662-3.22 3.241-3.009-.047 4.229.55 4.389 2.056-3.637 2.665-3.53.69 4.173 1.307 4.226 1.394-3.939 2.014-3.939 1.409 3.991 2.016 3.939.706-4.121 1.307-4.226 2.076 3.687 2.666 3.529-.026-4.18.549-4.389 2.688 3.268 3.242 3.009-.757-4.111-.226-4.418 3.215 2.751 3.717 2.4-1.46-3.916-.99-4.311 3.641 2.153 4.076 1.719-2.115-3.605-1.72-4.075 3.958 1.492 4.311.989-2.706-3.184-2.4-3.717 4.157.785 4.417.227-3.22-2.663-3.009-3.242 4.23.048 4.389-.549-3.636-2.057-3.53-2.666 4.173-.69 4.226-1.307-3.937-1.394-3.937-2.014z" fill="none" stroke="#b7b8b8" stroke-miterlimit="10" stroke-width="2"></path><path d="M272.823 409.326a16.638 16.638 0 1 0 16.638 16.638 16.835 16.835 0 0 0-16.638-16.638z" fill="url(#a)"></path><path d="M273.234 301.286a58.811 58.811 0 0 0-35.534 11.5 12.578 12.578 0 0 0 7.189 23.005 13.276 13.276 0 0 0 6.984-2.054 27.344 27.344 0 0 1 18.28-6.573c11.3 0 16.021 5.34 16.021 11.708 0 6.162-5.545 10.065-11.913 14.584-8.216 5.956-18.075 12.734-18.075 26.907a20.05 20.05 0 0 0 2.054 9.038 11.706 11.706 0 0 0 11.3 8.627 12.807 12.807 0 0 0 12.324-11.3 5.439 5.439 0 0 0 0-1.848 7.719 7.719 0 0 1-.2-2.054c0-7.189 6.572-11.708 13.556-17.048 9.654-6.779 20.746-15 20.746-32.043-.008-19.099-16.235-32.449-42.732-32.449z" fill="url(#b)"></path><path d="M355.3 380.16c32.541-10.764 67.322-20.407 98.593-25.275a62.826 62.826 0 0 1 16.127 1.087c6.225 1.193 15.248 5.358 15.248 5.358" fill="none" stroke="#b7b8b8" stroke-linecap="round" stroke-miterlimit="10" stroke-width="2" stroke-dasharray="8 6"></path><path d="M349.947 388.082c36.451-11.5 72.976-21.2 101.7-25.036 6.813-.142 26.028.069 44.767 11.916" fill="none" stroke="#b7b8b8" stroke-linecap="round" stroke-miterlimit="10" stroke-width="2" stroke-dasharray="8 6"></path><path d="M343.208 397.283c22.415-7.434 43.1-13.745 64.693-19.6 0 0 30.148-5.61 44.45-6.069a71.7 71.7 0 0 1 56.311 24.086" fill="none" stroke="#b7b8b8" stroke-linecap="round" stroke-miterlimit="10" stroke-width="2" stroke-dasharray="8 6"></path><path d="M329.111 408.56c33.94-11.1 67.975-21.108 97.293-27.018 0 0 25.837-6.438 43.927-.991 17.885 5.387 21.8 9.578 27.743 15.854M209.9 452.336c11.195-5.106 33.13-13.694 63.918-24.886" fill="none" stroke="#b7b8b8" stroke-linecap="round" stroke-miterlimit="10" stroke-width="2" stroke-dasharray="8 6"></path><path d="M206.3 459.658c28.006-12.665 173.723-68.1 245.507-74.5 7.167.163 28.764 1.34 39.663 15.542" fill="none" stroke="#b7b8b8" stroke-linecap="round" stroke-miterlimit="10" stroke-width="2" stroke-dasharray="8 6"></path><path d="M224.554 459.454c34.041-14.387 162.057-62.421 231.59-67.279 3.9.437 18.15-.724 28.388 12.156" fill="none" stroke="#b7b8b8" stroke-linecap="round" stroke-miterlimit="10" stroke-width="2" stroke-dasharray="8 6"></path><path d="M244.148 459.033c46.528-19.626 136.459-50.823 205.543-59.156 9.8-1.753 26.254 2.142 29.557 9.408" fill="none" stroke="#b7b8b8" stroke-linecap="round" stroke-miterlimit="10" stroke-width="2" stroke-dasharray="8 6"></path></g></svg><svg width="23.152" height="21.229" viewBox="0 0 23.152 21.229" id="user" y="2131"><path d="M20.124 21.229H3.005c-3.875 0-3.8-4.039-.916-5.284l4.58-1.808a11.968 11.968 0 0 1-3.9-1.407.988.988 0 0 1-.259-1.528c3.57-4.58 2.7-11.2 9.042-11.2 6.363 0 5.472 6.622 9.064 11.2a1.007 1.007 0 0 1-.282 1.528 11.8 11.8 0 0 1-3.827 1.407l4.556 1.857c2.959 1.244 2.889 5.235-.939 5.235zM3.005 20.102h17.119c2.678 0 2.232-2.373.494-3.1l-5.543-2.373a.745.745 0 0 1 .236-1.433 9.292 9.292 0 0 0 4.368-1.384c-3.57-4.6-2.818-10.709-8.125-10.709S6.998 7.208 3.429 11.812a9.375 9.375 0 0 0 4.392 1.384.747.747 0 0 1 .233 1.433l-5.542 2.348c-1.715.752-2.161 3.125.493 3.125z" fill="#747474"></path></svg><svg id="vk" viewBox="0 0 22 22" width="22" height="22" y="2153"><style>.st0{fill:#d80140}</style><path class="st0" d="M18.73 22H3.27C1.47 22 0 20.53 0 18.73V3.27C0 1.47 1.47 0 3.27 0h15.47C20.53 0 22 1.47 22 3.27v15.47c0 1.79-1.47 3.26-3.27 3.26zM3.27 1.38c-1.04 0-1.89.85-1.89 1.89v15.47c0 1.04.85 1.89 1.89 1.89h15.47c1.04 0 1.89-.85 1.89-1.89V3.27c0-1.04-.85-1.89-1.89-1.89H3.27z"></path><path class="st0" d="M10.83 15.56h.96s.29-.03.44-.19c.14-.15.13-.42.13-.42s-.02-1.29.58-1.48c.59-.19 1.35 1.25 2.15 1.8.61.42 1.07.33 1.07.33l2.15-.03s1.12-.07.59-.95c-.04-.07-.31-.65-1.6-1.85-1.35-1.25-1.17-1.05.46-3.22.99-1.32 1.39-2.12 1.26-2.47-.12-.33-.85-.24-.85-.24l-2.42.02s-.18-.02-.31.05c-.13.08-.21.26-.21.26s-.38 1.02-.9 1.89c-1.08 1.83-1.51 1.93-1.69 1.82-.41-.27-.31-1.06-.31-1.63 0-1.77.27-2.52-.52-2.71-.26-.06-.46-.11-1.13-.11-.86-.01-1.6 0-2.01.21-.26.11-.48.41-.35.42.16.02.52.1.71.36.25.34.24 1.1.24 1.1s.14 2.09-.33 2.35c-.33.18-.77-.19-1.74-1.85-.49-.85-.86-1.79-.86-1.79s-.07-.18-.2-.27c-.15-.11-.37-.15-.37-.15l-2.3.01s-.35.01-.47.16c-.12.14-.01.41-.01.41s1.8 4.22 3.84 6.34c1.87 1.96 4 1.83 4 1.83"></path></svg><svg id="vk-1" viewBox="0 0 22 22" width="22" height="22" y="2175"><style>.st0{fill:#d80140}</style><path class="st0" d="M18.73 0H3.27C1.47 0 0 1.47 0 3.27v15.47C0 20.53 1.47 22 3.27 22h15.47c1.8 0 3.27-1.47 3.27-3.27V3.27A3.293 3.293 0 0 0 18.73 0zm-.41 15.56l-2.15.03s-.46.09-1.07-.33c-.8-.55-1.56-1.99-2.15-1.8-.6.19-.58 1.48-.58 1.48s0 .28-.13.42c-.15.16-.44.19-.44.19h-.96s-2.12.13-4-1.82C4.8 11.61 3 7.39 3 7.39s-.12-.27 0-.41c.13-.15.47-.16.47-.16l2.3-.01s.22.04.37.15c.13.09.2.27.2.27s.37.94.87 1.79c.96 1.66 1.41 2.03 1.74 1.85.48-.26.33-2.35.33-2.35s.01-.76-.24-1.1c-.2-.26-.56-.33-.72-.36-.13-.01.09-.31.36-.45.41-.2 1.15-.21 2.01-.21.67.01.87.05 1.13.11.79.19.52.93.52 2.71 0 .57-.1 1.37.31 1.63.18.11.61.02 1.69-1.82.51-.87.9-1.89.9-1.89s.08-.18.21-.26c.13-.08.31-.05.31-.05l2.42-.02s.73-.09.85.24c.12.35-.27 1.15-1.26 2.47-1.63 2.17-1.81 1.96-.46 3.22 1.29 1.2 1.56 1.78 1.6 1.85.54.9-.59.97-.59.97z"></path></svg></svg>