<svg xmlns="http://www.w3.org/2000/svg" width="672.991" height="454.24" viewBox="0 0 672.991 454.24"><g transform="translate(547.683 -175.972)"><path d="M-292.826,387.2c27.068-11.767,50.288-21.89,79.513-34.445,71.724-30.813,110.53-89.476,98.774-165.394" transform="translate(83.7 3.164)" fill="none" stroke="#fff" stroke-linecap="round" stroke-miterlimit="10" stroke-width="3.657" stroke-dasharray="14.629 10.972"/><path d="M-288.347,365.015c4.2-1.377,46.582-18.62,57.759-23.631,71.234-31.93,104.145-80.76,98.783-151.427" transform="translate(85.181 4.022)" fill="none" stroke="#fff" stroke-linecap="round" stroke-miterlimit="10" stroke-width="3.657" stroke-dasharray="14.629 10.972"/><path d="M-285.9,341.019c17.331-6.285,24.994-11.069,38.714-16.964,71.724-30.813,97.546-78.727,97.546-113.5" transform="translate(85.989 10.834)" fill="none" stroke="#fff" stroke-linecap="round" stroke-miterlimit="10" stroke-width="3.657" stroke-dasharray="14.629 10.972"/><path d="M-282.669,329.784c7.728-3.327,15.468-6.228,22.788-9.7,69.25-32.839,101.658-72.886,94.517-134.778" transform="translate(87.059 2.483)" fill="none" stroke="#fff" stroke-linecap="round" stroke-miterlimit="10" stroke-width="3.657" stroke-dasharray="14.629 10.972"/><path d="M-293.23,317.622q8.556-3.681,16.876-7.254c71.724-30.813,100.548-61.331,95.4-122.024" transform="translate(83.566 3.488)" fill="none" stroke="#fff" stroke-linecap="round" stroke-miterlimit="10" stroke-width="3.657" stroke-dasharray="14.629 10.972"/><path d="M-289.759,288.625c68.936-27.245,90.6-54.385,90.283-74.293" transform="translate(84.714 12.084)" fill="none" stroke="#fff" stroke-linecap="round" stroke-miterlimit="10" stroke-width="3.657" stroke-dasharray="14.629 10.972"/><g transform="translate(-545.856 177.8)"><path d="M-219.129,326.54c-.608-4.78,8.23-11.139,7.23-15.762-1.015-4.7-11.695-6.84-13.095-11.366-1.42-4.589,6.181-12.383,4.388-16.776-1.815-4.441-12.7-4.683-14.88-8.906-2.194-4.26,3.926-13.264,1.385-17.284-2.558-4.047-13.32-2.382-16.205-6.17-2.9-3.8,1.561-13.736-1.646-17.26s-13.527-.028-17.03-3.263-.836-13.795-4.608-16.716-13.323,2.312-17.338-.273-3.2-13.441-7.426-15.67-12.713,4.585-17.122,2.732c-4.389-1.844-5.475-12.681-10.033-14.144-4.529-1.452-11.711,6.73-16.385,5.672-4.634-1.047-7.595-11.529-12.35-12.173-4.7-.636-10.342,8.675-15.14,8.451-4.732-.221-9.477-10.025-14.285-9.829-4.726.19-8.667,10.339-13.448,10.948s-11.139-8.23-15.763-7.23c-4.7,1.015-6.839,11.695-11.365,13.095-4.59,1.42-12.384-6.182-16.776-4.388-4.442,1.815-4.683,12.7-8.906,14.88-4.26,2.194-13.265-3.926-17.286-1.385-4.046,2.558-2.382,13.32-6.168,16.2-3.8,2.9-13.738-1.56-17.262,1.646s-.028,13.527-3.263,17.03-13.795.836-16.716,4.609,2.313,13.323-.273,17.338-13.441,3.2-15.669,7.426,4.585,12.714,2.731,17.122c-1.844,4.389-12.681,5.475-14.142,10.033-1.452,4.529,6.729,11.712,5.672,16.386-1.049,4.633-11.529,7.593-12.173,12.348-.636,4.7,8.674,10.342,8.451,15.14-.222,4.732-10.025,9.477-9.831,14.285.192,4.727,10.34,8.667,10.948,13.448s-8.228,11.139-7.23,15.763c1.017,4.7,11.7,6.839,13.095,11.365,1.42,4.59-6.18,12.384-4.386,16.776,1.814,4.442,12.7,4.683,14.878,8.906,2.194,4.26-3.926,13.265-1.385,17.286,2.558,4.046,13.321,2.382,16.206,6.168,2.9,3.8-1.561,13.738,1.646,17.262s13.526.028,17.03,3.263.834,13.795,4.607,16.716,13.323-2.313,17.338.273,3.2,13.441,7.426,15.669,12.714-4.585,17.123-2.731c4.389,1.844,5.474,12.681,10.031,14.142,4.529,1.452,11.712-6.728,16.386-5.672,4.633,1.049,7.595,11.53,12.348,12.173,4.7.636,10.343-8.674,15.142-8.451,4.732.222,9.477,10.025,14.283,9.831,4.727-.192,8.669-10.34,13.449-10.948s11.139,8.228,15.762,7.23c4.7-1.017,6.84-11.7,11.366-13.095,4.59-1.42,12.383,6.18,16.776,4.386,4.441-1.814,4.683-12.7,8.906-14.878,4.26-2.195,13.264,3.926,17.284,1.385,4.047-2.558,2.382-13.32,6.17-16.206,3.8-2.9,13.736,1.561,17.26-1.646s.028-13.526,3.263-17.03,13.795-.834,16.716-4.607-2.312-13.323.273-17.338,13.441-3.2,15.67-7.426-4.585-12.714-2.732-17.123c1.844-4.389,12.681-5.474,14.144-10.031,1.452-4.529-6.73-11.712-5.672-16.386,1.049-4.632,11.529-7.595,12.173-12.348.636-4.7-8.675-10.343-8.451-15.142.221-4.732,10.025-9.477,9.829-14.283C-208.37,335.262-218.519,331.32-219.129,326.54Z" transform="translate(545.856 -177.8)" fill="none" stroke="#fff" stroke-miterlimit="10" stroke-width="3.657"/><g transform="translate(19.521 19.519)"><path d="M-243.357,324.155c-.536-4.211,8.4-10.009,7.518-14.082-.9-4.144-11.43-5.73-12.664-9.719-1.251-4.043,6.542-11.3,4.961-15.171-1.6-3.913-12.247-3.637-14.165-7.358-1.934-3.753,4.47-12.263,2.232-15.8-2.253-3.565-12.692-1.435-15.234-4.77-2.552-3.351,2.27-12.847-.555-15.952s-12.742.8-15.83-2.053.017-13.042-3.306-15.615-12.41,2.989-15.947.712-2.229-12.847-5.954-14.81-11.7,5.092-15.581,3.46c-3.866-1.625-4.418-12.265-8.435-13.553-3.988-1.279-10.624,7.052-14.741,6.12-4.082-.922-6.482-11.3-10.672-11.869-4.141-.56-9.216,8.8-13.444,8.6-4.168-.2-8.344-10-12.579-9.825-4.164.169-7.54,10.27-11.751,10.806s-10.009-8.4-14.082-7.518c-4.143.9-5.73,11.43-9.717,12.664-4.043,1.251-11.3-6.542-15.172-4.961-3.913,1.6-3.637,12.249-7.357,14.165-3.753,1.934-12.265-4.47-15.806-2.232-3.565,2.253-1.433,12.692-4.77,15.234s-12.847-2.27-15.952.555.8,12.742-2.053,15.83-13.042-.017-15.615,3.306,2.989,12.41.712,15.947-12.847,2.229-14.81,5.954,5.093,11.7,3.46,15.581c-1.625,3.866-12.263,4.418-13.551,8.435-1.28,3.988,7.052,10.624,6.12,14.741-.924,4.082-11.3,6.482-11.869,10.672-.562,4.141,8.8,9.216,8.6,13.444-.194,4.168-10,8.344-9.824,12.579.168,4.164,10.27,7.54,10.806,11.751s-8.4,10.009-7.518,14.082c.894,4.143,11.429,5.73,12.662,9.717,1.251,4.043-6.542,11.3-4.961,15.172,1.6,3.913,12.249,3.637,14.165,7.357,1.934,3.753-4.469,12.265-2.23,15.806,2.253,3.565,12.69,1.433,15.232,4.77s-2.27,12.847.555,15.952,12.744-.8,15.83,2.053-.017,13.042,3.307,15.616,12.408-2.989,15.946-.712,2.23,12.847,5.954,14.81,11.7-5.093,15.582-3.46c3.866,1.625,4.418,12.263,8.433,13.551,3.99,1.28,10.624-7.052,14.741-6.12,4.081.924,6.484,11.3,10.672,11.871,4.141.56,9.217-8.8,13.444-8.6,4.169.194,8.345,10,12.58,9.824,4.164-.168,7.539-10.27,11.75-10.806s10.009,8.4,14.082,7.518c4.144-.894,5.73-11.429,9.719-12.662,4.043-1.251,11.3,6.542,15.171,4.961,3.913-1.6,3.637-12.249,7.358-14.165,3.753-1.934,12.263,4.469,15.8,2.23,3.565-2.252,1.435-12.69,4.77-15.232,3.351-2.554,12.847,2.27,15.952-.555s-.8-12.744,2.053-15.83,13.042.017,15.615-3.307-2.989-12.408-.712-15.946,12.847-2.23,14.81-5.954-5.092-11.7-3.46-15.582c1.625-3.866,12.265-4.418,13.553-8.433,1.279-3.99-7.052-10.624-6.12-14.741.924-4.082,11.3-6.484,11.869-10.672.56-4.141-8.8-9.216-8.6-13.444.2-4.169,10-8.345,9.825-12.58C-232.72,331.741-242.821,328.366-243.357,324.155Z" transform="translate(531.188 -192.467)" fill="none" stroke="#fff" stroke-miterlimit="10" stroke-width="3.657"/></g><g transform="translate(39.04 39.04)"><path d="M-267.586,321.769c-.463-3.642,8.566-8.88,7.805-12.4-.773-3.583-11.164-4.619-12.231-8.069-1.082-3.5,6.9-10.22,5.536-13.566-1.383-3.384-11.793-2.592-13.452-5.81-1.673-3.246,5.013-11.263,3.077-14.326-1.948-3.082-12.061-.484-14.259-3.37s2.98-11.958.536-14.643-11.96,1.621-14.629-.844.869-12.29-2.005-14.515-11.5,3.665-14.554,1.7-1.262-12.253-4.482-13.951-10.682,5.6-14.041,4.188-3.363-11.847-6.836-12.961c-3.449-1.106-9.535,7.375-13.1,6.57-3.531-.8-5.372-11.077-8.995-11.567-3.581-.486-8.09,8.93-11.745,8.758-3.606-.168-7.213-9.968-10.875-9.819-3.6.145-6.41,10.2-10.051,10.664s-8.882-8.566-12.4-7.805c-3.584.773-4.621,11.164-8.069,12.231-3.5,1.082-10.222-6.9-13.567-5.536-3.384,1.383-2.592,11.795-5.809,13.452-3.246,1.673-11.264-5.013-14.326-3.077-3.083,1.948-.486,12.061-3.37,14.259s-11.958-2.98-14.644-.536,1.621,11.96-.844,14.629-12.289-.869-14.514,2.005,3.664,11.5,1.7,14.554-12.253,1.262-13.951,4.483,5.6,10.681,4.188,14.04-11.847,3.363-12.961,6.836c-1.107,3.449,7.375,9.535,6.569,13.1-.8,3.531-11.076,5.372-11.567,8.995-.484,3.581,8.93,8.09,8.759,11.746-.169,3.606-9.968,7.213-9.82,10.875.146,3.6,10.2,6.41,10.664,10.051s-8.566,8.882-7.805,12.4c.774,3.584,11.165,4.62,12.231,8.069,1.082,3.5-6.9,10.222-5.536,13.567,1.383,3.384,11.795,2.592,13.453,5.809,1.671,3.246-5.014,11.264-3.078,14.326,1.948,3.083,12.062.486,14.261,3.371s-2.98,11.957-.536,14.643,11.96-1.621,14.628.844-.869,12.289,2.005,14.514,11.5-3.664,14.555-1.7,1.262,12.253,4.482,13.951,10.682-5.6,14.041-4.188c3.343,1.405,3.362,11.847,6.835,12.961,3.449,1.107,9.536-7.374,13.1-6.569,3.529.8,5.371,11.076,8.993,11.567,3.581.484,8.09-8.93,11.747-8.759,3.605.169,7.211,9.968,10.875,9.82,3.6-.146,6.409-10.2,10.051-10.664s8.88,8.566,12.4,7.805c3.582-.775,4.619-11.165,8.069-12.231,3.5-1.082,10.221,6.9,13.566,5.536,3.384-1.383,2.592-11.795,5.81-13.453,3.246-1.671,11.263,5.014,14.326,3.078,3.082-1.948.484-12.062,3.37-14.259s11.958,2.978,14.643.535-1.621-11.96.844-14.628,12.29.869,14.515-2.005-3.665-11.5-1.7-14.555,12.253-1.262,13.951-4.482-5.6-10.682-4.188-14.041c1.405-3.343,11.847-3.362,12.961-6.835,1.106-3.449-7.375-9.536-6.57-13.1.8-3.529,11.078-5.371,11.567-8.993.486-3.581-8.93-8.09-8.758-11.747.168-3.605,9.968-7.212,9.819-10.875C-257.068,328.219-267.122,325.411-267.586,321.769Z" transform="translate(516.52 -207.136)" fill="none" stroke="#fff" stroke-miterlimit="10" stroke-width="3.657"/></g><g transform="translate(58.56 58.559)"><path d="M-291.815,319.384c-.391-3.073,8.735-7.752,8.093-10.723-.653-3.024-10.9-3.511-11.8-6.421-.913-2.95,7.263-9.139,6.11-11.962-1.166-2.855-11.34-1.546-12.738-4.261-1.411-2.739,5.557-10.262,3.924-12.846-1.645-2.6-11.433.463-13.288-1.971s3.689-11.068,1.626-13.333-11.175,2.445-13.428.365,1.722-11.535-.7-13.413-10.581,4.341-13.163,2.679-.293-11.659-3.01-13.091-9.665,6.107-12.5,4.916-2.306-11.43-5.237-12.37c-2.91-.933-8.448,7.7-11.453,7.019-2.978-.673-4.261-10.851-7.317-11.265-3.022-.409-6.965,9.057-10.049,8.914-3.042-.142-6.082-9.94-9.172-9.815-3.038.124-5.281,10.13-8.353,10.521s-7.75-8.734-10.723-8.093c-3.024.653-3.511,10.9-6.42,11.8-2.95.912-9.14-7.265-11.963-6.111-2.856,1.166-1.548,11.34-4.263,12.738-2.737,1.411-10.262-5.557-12.846-3.924-2.6,1.645.463,11.433-1.97,13.288s-11.069-3.689-13.334-1.626,2.445,11.175.366,13.428-11.537-1.722-13.414.7,4.341,10.581,2.68,13.163-11.659.293-13.091,3.01,6.107,9.667,4.916,12.5-11.43,2.306-12.37,5.237c-.934,2.91,7.7,8.448,7.017,11.453-.673,2.978-10.85,4.261-11.264,7.317-.41,3.022,9.057,6.965,8.912,10.049-.141,3.042-9.938,6.082-9.813,9.172.122,3.038,10.13,5.281,10.521,8.353s-8.735,7.751-8.093,10.724c.652,3.024,10.9,3.511,11.8,6.42.913,2.95-7.263,9.14-6.111,11.962,1.167,2.856,11.34,1.548,12.738,4.263,1.412,2.737-5.556,10.262-3.923,12.846,1.644,2.6,11.433-.463,13.287,1.97s-3.688,11.07-1.626,13.335,11.176-2.445,13.428-.366-1.721,11.537.7,13.414,10.582-4.341,13.163-2.68.294,11.659,3.01,13.091,9.667-6.107,12.5-4.916,2.306,11.43,5.237,12.37c2.91.934,8.448-7.7,11.451-7.017,2.978.673,4.261,10.85,7.318,11.264,3.021.41,6.964-9.057,10.049-8.912,3.042.142,6.08,9.938,9.17,9.813,3.039-.122,5.281-10.13,8.353-10.521s7.752,8.735,10.724,8.093c3.024-.652,3.511-10.9,6.421-11.8,2.95-.913,9.138,7.263,11.962,6.111,2.855-1.167,1.546-11.34,4.261-12.738,2.739-1.412,10.262,5.556,12.846,3.923,2.6-1.644-.463-11.433,1.971-13.287s11.068,3.688,13.333,1.626-2.445-11.176-.365-13.428,11.535,1.721,13.413-.7-4.341-10.582-2.679-13.163,11.659-.294,13.091-3.01-6.107-9.667-4.916-12.5,11.43-2.306,12.37-5.235c.933-2.912-7.7-8.449-7.019-11.453.673-2.978,10.851-4.261,11.265-7.318.409-3.021-9.057-6.964-8.914-10.049.142-3.042,9.94-6.08,9.815-9.17C-281.417,324.7-291.424,322.457-291.815,319.384Z" transform="translate(501.852 -221.803)" fill="none" stroke="#fff" stroke-miterlimit="10" stroke-width="3.657"/></g><g transform="translate(78.079 78.079)"><path d="M-316.044,317c-.318-2.5,8.9-6.621,8.381-9.043-.532-2.463-10.634-2.4-11.368-4.772-.744-2.4,7.625-8.058,6.685-10.358-.95-2.326-10.886-.5-12.025-2.713-1.15-2.232,6.1-9.262,4.771-11.368s-10.8,1.412-12.315-.571,4.4-10.179,2.717-12.025-10.391,3.27-12.226,1.576,2.572-10.783.6-12.314-9.668,5.017-11.771,3.664.675-11.064-1.538-12.231-8.65,6.615-10.96,5.644-1.251-11.012-3.637-11.779-7.362,8.021-9.809,7.467c-2.426-.548-3.15-10.625-5.64-10.962-2.462-.333-5.838,9.185-8.352,9.068-2.478-.117-4.949-9.912-7.467-9.809-2.475.1-4.151,10.059-6.654,10.379s-6.622-8.9-9.044-8.381c-2.463.532-2.4,10.634-4.771,11.368-2.4.744-8.058-7.625-10.359-6.685-2.326.95-.5,10.886-2.714,12.025-2.23,1.15-9.261-6.1-11.366-4.771s1.412,10.8-.571,12.315-10.179-4.4-12.025-2.717,3.27,10.391,1.574,12.226-10.783-2.572-12.312-.6,5.017,9.668,3.662,11.771-11.064-.675-12.231,1.538,6.615,8.65,5.645,10.96-11.014,1.251-11.779,3.637,8.021,7.362,7.467,9.809c-.55,2.426-10.625,3.15-10.962,5.64-.334,2.462,9.184,5.838,9.067,8.352-.116,2.478-9.91,4.949-9.809,7.467.1,2.475,10.061,4.151,10.379,6.654s-8.9,6.622-8.38,9.044c.532,2.463,10.633,2.4,11.368,4.771.743,2.4-7.625,8.058-6.686,10.359.95,2.326,10.886.5,12.025,2.713,1.15,2.23-6.1,9.261-4.77,11.368s10.8-1.413,12.314.57-4.4,10.179-2.717,12.025,10.392-3.268,12.227-1.574-2.574,10.783-.6,12.312,9.668-5.017,11.771-3.662-.675,11.064,1.54,12.231,8.65-6.615,10.959-5.645,1.251,11.014,3.638,11.779c2.371.761,7.361-8.021,9.808-7.467,2.427.55,3.15,10.625,5.64,10.962,2.463.334,5.84-9.184,8.352-9.067,2.479.116,4.949,9.91,7.467,9.809,2.475-.1,4.151-10.061,6.655-10.379s6.621,8.9,9.043,8.38c2.463-.532,2.4-10.633,4.772-11.368,2.4-.743,8.058,7.625,10.358,6.686,2.326-.95.5-10.886,2.714-12.025,2.232-1.15,9.262,6.1,11.368,4.77s-1.412-10.8.571-12.314,10.179,4.4,12.025,2.717-3.27-10.392-1.576-12.227,10.783,2.574,12.314.6-5.017-9.668-3.664-11.771,11.064.675,12.231-1.54-6.615-8.65-5.644-10.959,11.012-1.251,11.779-3.638c.76-2.371-8.021-7.361-7.467-9.808.548-2.427,10.625-3.15,10.962-5.64.333-2.463-9.185-5.84-9.068-8.352.117-2.479,9.912-4.949,9.809-7.467C-305.765,321.178-315.725,319.5-316.044,317Z" transform="translate(487.185 -236.471)" fill="none" stroke="#fff" stroke-miterlimit="10" stroke-width="3.657"/></g><g transform="translate(97.6 97.599)"><path d="M-340.273,314.614c-.246-1.935,9.072-5.492,8.667-7.363-.411-1.9-10.368-1.291-10.935-3.123-.574-1.856,7.986-6.976,7.261-8.753-.735-1.8-10.432.543-11.313-1.166-.888-1.725,6.646-8.262,5.617-9.889s-10.175,2.361-11.342.829,5.106-9.29,3.809-10.716-9.608,4.094-11.026,2.784,3.424-10.03,1.9-11.212-8.755,5.693-10.38,4.647,1.644-10.471-.067-11.373-7.635,7.124-9.418,6.373-.2-10.6-2.04-11.188-6.273,8.344-8.164,7.916c-1.875-.423-2.039-10.4-3.963-10.658-1.9-.258-4.712,9.313-6.654,9.221-1.915-.089-3.817-9.882-5.762-9.8-1.912.077-3.022,9.99-4.957,10.236s-5.492-9.072-7.363-8.667c-1.9.411-1.291,10.368-3.122,10.935-1.858.574-6.976-7.986-8.754-7.261-1.8.735.543,10.432-1.166,11.313s-8.262-6.646-9.888-5.617,2.361,10.175.828,11.342-9.289-5.106-10.716-3.809,4.094,9.608,2.785,11.026-10.031-3.424-11.213-1.9,5.693,8.755,4.647,10.38-10.471-1.644-11.372.067,7.122,7.635,6.373,9.418-10.6.2-11.188,2.04,8.343,6.273,7.916,8.164c-.425,1.875-10.4,2.039-10.66,3.963-.257,1.9,9.313,4.712,9.222,6.654-.091,1.915-9.884,3.817-9.8,5.762.077,1.914,9.99,3.022,10.236,4.957s-9.073,5.492-8.669,7.363c.411,1.9,10.368,1.291,10.935,3.122.575,1.858-7.986,6.976-7.259,8.754.735,1.8,10.432-.543,11.312,1.166s-6.645,8.262-5.616,9.888,10.174-2.359,11.342-.828-5.108,9.289-3.81,10.716,9.608-4.094,11.027-2.785-3.425,10.031-1.9,11.213,8.754-5.693,10.379-4.647-1.644,10.471.068,11.372,7.633-7.122,9.418-6.373.194,10.6,2.039,11.188,6.273-8.343,8.164-7.916c1.875.425,2.039,10.4,3.963,10.66,1.9.257,4.712-9.313,6.654-9.222,1.915.09,3.817,9.884,5.762,9.8,1.914-.077,3.022-9.99,4.957-10.236s5.492,9.073,7.363,8.669c1.9-.411,1.291-10.368,3.123-10.935,1.857-.575,6.976,7.986,8.753,7.259,1.8-.735-.543-10.431,1.166-11.312,1.725-.889,8.262,6.645,9.889,5.616s-2.361-10.174-.829-11.342,9.29,5.108,10.715,3.81-4.094-9.608-2.784-11.027,10.03,3.425,11.212,1.9-5.693-8.754-4.647-10.379,10.471,1.643,11.373-.068-7.124-7.633-6.373-9.418,10.6-.194,11.188-2.039-8.344-6.273-7.916-8.164c.423-1.875,10.4-2.039,10.658-3.963.258-1.9-9.312-4.712-9.221-6.654.089-1.915,9.882-3.817,9.8-5.762C-330.113,317.657-340.026,316.549-340.273,314.614Z" transform="translate(472.516 -251.139)" fill="none" stroke="#fff" stroke-miterlimit="10" stroke-width="3.657"/></g><g transform="translate(117.119 117.119)"><path d="M-364.5,312.228c-.173-1.365,9.241-4.362,8.956-5.682-.29-1.344-10.1-.181-10.5-1.474-.406-1.311,8.347-5.894,7.834-7.149s-9.978,1.589-10.6.382,7.189-7.261,6.464-8.408-9.546,3.308-10.37,2.228,5.816-8.4,4.9-9.406-8.825,4.917-9.825,3.994,4.277-9.278,3.2-10.113-7.841,6.369-8.988,5.632,2.612-9.877,1.405-10.513-6.619,7.631-7.878,7.1.861-10.179-.44-10.6-5.186,8.666-6.521,8.364-.928-10.173-2.285-10.356-3.588,9.439-4.957,9.375c-1.352-.064-2.686-9.854-4.059-9.8-1.349.055-1.892,9.92-3.258,10.094s-4.362-9.241-5.684-8.956c-1.343.29-.181,10.1-1.473,10.5-1.311.406-5.9-8.347-7.149-7.834s1.588,9.978.382,10.6-7.261-7.189-8.409-6.464,3.31,9.546,2.228,10.37-8.4-5.816-9.406-4.9,4.919,8.824,3.994,9.825-9.277-4.277-10.111-3.2,6.369,7.841,5.631,8.988-9.876-2.612-10.512-1.405,7.629,6.619,7.1,7.878-10.179-.861-10.6.44,8.666,5.186,8.364,6.521-10.173.928-10.356,2.285,9.439,3.588,9.375,4.957c-.063,1.352-9.854,2.686-9.8,4.059.055,1.349,9.92,1.892,10.094,3.258s-9.241,4.362-8.955,5.684c.29,1.343,10.1.181,10.5,1.473.406,1.311-8.347,5.9-7.834,7.149.518,1.27,9.977-1.588,10.6-.382s-7.189,7.261-6.462,8.409,9.544-3.31,10.368-2.228-5.816,8.4-4.9,9.406,8.824-4.919,9.825-3.994-4.276,9.277-3.2,10.111,7.84-6.369,8.987-5.631-2.611,9.876-1.4,10.512,6.618-7.629,7.877-7.1-.861,10.179.442,10.6,5.185-8.666,6.52-8.364.928,10.173,2.286,10.356c1.343.182,3.586-9.439,4.957-9.375,1.352.063,2.684,9.854,4.058,9.8,1.351-.055,1.894-9.92,3.259-10.094s4.362,9.241,5.682,8.955c1.344-.29.181-10.1,1.475-10.5,1.311-.4,5.894,8.347,7.149,7.834s-1.589-9.977-.382-10.6,7.261,7.189,8.408,6.464-3.308-9.546-2.228-10.369,8.4,5.815,9.406,4.9-4.917-8.825-3.994-9.825,9.278,4.276,10.113,3.2-6.369-7.84-5.632-8.987,9.877,2.611,10.513,1.4-7.631-6.618-7.1-7.877,10.179.861,10.6-.442-8.666-5.185-8.364-6.519,10.173-.928,10.357-2.286c.181-1.343-9.441-3.586-9.377-4.957.064-1.352,9.854-2.684,9.8-4.058C-354.463,314.136-364.328,313.593-364.5,312.228Z" transform="translate(457.849 -265.807)" fill="none" stroke="#fff" stroke-miterlimit="10" stroke-width="3.657"/></g></g><path d="M-299.855,374.807c68.617-32.815,142.48-63.789,209.952-83.267,7.595-1.672,21.012-3.054,35.806-2.125,14.037.881,35.068,7.52,35.068,7.52" transform="translate(81.375 36.822)" fill="none" stroke="#fff" stroke-linecap="round" stroke-miterlimit="10" stroke-width="3.657" stroke-dasharray="14.629 10.972"/><path d="M-307.037,389.054c77.017-35.539,154.7-67.116,216.852-83.611C-75.225,303.22-32.868,298.3,11.7,319.129" transform="translate(78.999 41.514)" fill="none" stroke="#fff" stroke-linecap="round" stroke-miterlimit="10" stroke-width="3.657" stroke-dasharray="14.629 10.972"/><path d="M-316.247,406.544c47.259-22.646,91.026-42.334,136.918-61.286,0,0,64.792-20.8,96.146-25.816a159.11,159.11,0,0,1,130.71,37.246" transform="translate(75.952 46.165)" fill="none" stroke="#fff" stroke-linecap="round" stroke-miterlimit="10" stroke-width="3.657" stroke-dasharray="14.629 10.972"/><path d="M-337.19,431.5c71.6-33.952,143.72-65.513,206.6-86.738,0,0,55.072-21.412,96.418-14.49C6.713,337.119,16.5,345.25,31.346,357.4" transform="translate(69.025 49.981)" fill="none" stroke="#fff" stroke-linecap="round" stroke-miterlimit="10" stroke-width="3.657" stroke-dasharray="14.629 10.972"/><path d="M-525.167,526.1c23.212-14.377,101.628-57.614,166.268-90.878" transform="translate(6.844 85.153)" fill="none" stroke="#fff" stroke-linecap="round" stroke-miterlimit="10" stroke-width="3.657" stroke-dasharray="14.629 10.972"/><path d="M-529.581,574.518c58.1-35.729,363.336-198.595,519.563-232.8,15.823-1.65,63.694-5.109,91.666,23.1" transform="translate(5.384 53.866)" fill="none" stroke="#fff" stroke-linecap="round" stroke-miterlimit="10" stroke-width="3.657" stroke-dasharray="14.629 10.972"/><path d="M-499.427,565.356c70.9-41.208,339.249-182.821,490.951-213,8.7-.132,39.752-6.682,65.9,18.8" transform="translate(15.358 57.461)" fill="none" stroke="#fff" stroke-linecap="round" stroke-miterlimit="10" stroke-width="3.657" stroke-dasharray="14.629 10.972"/><path d="M-467.1,554.833c96.925-56.242,286.15-150.117,435.891-187.82,21.089-6.6,54.887-2.2,62.088,9.113" transform="translate(26.05 61.567)" fill="none" stroke="#fff" stroke-linecap="round" stroke-miterlimit="10" stroke-width="3.657" stroke-dasharray="14.629 10.972"/></g></svg>