<svg xmlns="http://www.w3.org/2000/svg" xmlns:xlink="http://www.w3.org/1999/xlink" viewBox="0 0 444.55 119.81"><defs><style>.a{fill:none;}.b{clip-path:url(#a);}.c{fill:url(#b);}.d{fill:#121313;}.e{fill:#d6515d;}</style><clipPath id="a" transform="translate(-196.98 -207.81)"><rect class="a" x="158.53" y="169.53" width="521.41" height="196.39"/></clipPath><linearGradient id="b" x1="196.98" y1="267.72" x2="370.16" y2="267.72" gradientUnits="userSpaceOnUse"><stop offset="0" stop-color="#bb578f"/><stop offset="0.33" stop-color="#d6515d"/><stop offset="0.66" stop-color="#eb9340"/><stop offset="1" stop-color="#eade3a"/></linearGradient></defs><title>logo-2</title><g class="b"><path class="c" d="M296.84,310.41a55.59,55.59,0,0,0-8.79-22.8c-.56-.81-1.14-1.6-1.74-2.36-.83-1.06-1.69-2.07-2.59-3s-1.63-1.66-2.48-2.42a37.18,37.18,0,0,0-7.29-5.13,21.32,21.32,0,0,1-6.55,4.63,29.81,29.81,0,0,1,10.13,6.63,36.66,36.66,0,0,1,2.59,2.81,40.9,40.9,0,0,1,3.51,5q1.05,1.74,2,3.62a49.39,49.39,0,0,1,3.52,9.8,34,34,0,0,1,.87,4.3,14,14,0,0,1,.14,2.78,6.78,6.78,0,0,1-1.94,4.77,6.91,6.91,0,0,1-8.81.23,6.23,6.23,0,0,1-2.4-5.06c0-.34.1-1,.14-1.35a46.59,46.59,0,0,1,1-5.44,50.29,50.29,0,0,1,3.57-10,38.06,38.06,0,0,0-4.37-6.5,57.22,57.22,0,0,0-7.06,21.06l0,.33c0,.32-.09.61-.11.91l0,.95a13.53,13.53,0,0,0,13.51,13.52,14,14,0,0,0,6.67-1.63,12.6,12.6,0,0,0,5.31-5.46,15.32,15.32,0,0,0,1.47-6.21A32.63,32.63,0,0,0,296.84,310.41Zm-23.78-40a17.8,17.8,0,1,0-28.67.07,35.56,35.56,0,0,1,7.12-2.36A10.81,10.81,0,1,1,262.87,270a8.9,8.9,0,0,1-2.52.71c-.5.05-1.92.11-2,.11a31.11,31.11,0,0,0-11.51,2.38,34.06,34.06,0,0,0-3.35,1.59c-12.19,6.64-21.36,21-23.31,38.45l-.17,1.65a6.69,6.69,0,0,1-6.63,5.81c-4,0-6-3.08-6.91-6.08-.13-.4-.23-.79-.33-1.18a3.45,3.45,0,0,0-6.74,1.48s.28,1.13.42,1.61a17.3,17.3,0,0,0,4.28,7.32,12.94,12.94,0,0,0,9.27,3.75,13.64,13.64,0,0,0,13.49-11.93l.18-1.71c1.87-16.74,11.15-30.14,23-34.64a24.36,24.36,0,0,1,8.32-1.61c.12,0,2.12-.09,2.83-.16a15.28,15.28,0,0,0,4.84-1.41,18.32,18.32,0,0,0,7-5.74Zm10.5-62.56A86.59,86.59,0,0,0,198.22,309a6.9,6.9,0,0,1,6.77-1.36A79.68,79.68,0,1,1,363.25,294.4,79.34,79.34,0,0,1,358,322.93a3.45,3.45,0,1,0,6.45,2.48,86.64,86.64,0,0,0-80.87-117.59ZM323,270.42a17.79,17.79,0,1,0-28.66,0,35.93,35.93,0,0,1,7.15-2.34,10.83,10.83,0,1,1,8,2.69l-1.18,0a31,31,0,0,0-6,.66,32.29,32.29,0,0,0-5.55,1.68,36.37,36.37,0,0,0-10.57,6.68,48.26,48.26,0,0,1,4.37,5.37,28.36,28.36,0,0,1,12.53-6.83,24.22,24.22,0,0,1,5.25-.65l1.54,0a17.69,17.69,0,0,0,10.64-4.52A18,18,0,0,0,323,270.42Zm23.82,40a48.25,48.25,0,0,0-1.63-7.34c-3.74-12.88-11.56-23.07-21.3-28.35a21.33,21.33,0,0,1-6.53,4.57c9.43,3.57,17.27,12.81,21,25a39.6,39.6,0,0,1,1.64,7.1c.08.69.15,2.22.14,2.78a6.22,6.22,0,0,1-6.54,6.47,6.69,6.69,0,0,1-6.68-6.68,3.45,3.45,0,1,0-6.91,0,13.61,13.61,0,0,0,13.59,13.59,13.29,13.29,0,0,0,10.24-4.47,13.48,13.48,0,0,0,3.21-8.83A29.18,29.18,0,0,0,346.78,310.41Z" transform="translate(-196.98 -207.81)"/><path class="d" d="M394.55,264.5v-22h11c5,0,7.67,3.34,7.67,7.34s-2.71,7.31-7.67,7.31h-5.36v7.41Zm12.93-14.71a2.37,2.37,0,0,0-2.64-2.38h-4.59v4.73h4.59A2.36,2.36,0,0,0,407.47,249.79Z" transform="translate(-196.98 -207.81)"/><path class="d" d="M429.36,264.5l-1.09-3.17h-8.69l-1.09,3.17H412l8.3-22h7.14l8.33,22Zm-5.45-16.43-2.81,8.3h5.62Z" transform="translate(-196.98 -207.81)"/><path class="d" d="M438.38,264.5v-22h12.5c4.36,0,6.45,2.84,6.45,5.62a4.92,4.92,0,0,1-3.77,5.06,5.28,5.28,0,0,1,4.2,5.39c0,3.21-2.15,6-6.48,6Zm13.16-15.44a1.81,1.81,0,0,0-2-1.82h-5.52v3.67h5.52A1.82,1.82,0,0,0,451.54,249.07Zm.43,8.66a2,2,0,0,0-2.18-2h-5.72v4h5.72A2,2,0,0,0,452,257.73Z" transform="translate(-196.98 -207.81)"/><path class="d" d="M477,264.5v-8.86h-9.16v8.86h-5.69v-22h5.69v8.23H477v-8.23h5.69v22Z" transform="translate(-196.98 -207.81)"/><path class="d" d="M493.61,242.46v7.4H499c5,0,7.67,3.34,7.67,7.31s-2.71,7.34-7.67,7.34h-11v-22Zm0,12.36v4.73h4.59a2.38,2.38,0,1,0,0-4.73Zm14.64,9.69v-22h5.69v22Z" transform="translate(-196.98 -207.81)"/><path class="d" d="M519.2,264.5v-22h5.69v13l8.93-13h5.88v22H534V250.88l-9.29,13.62Zm10.25-23a7.29,7.29,0,0,1-5.82-2.91l2.18-1.78a4.43,4.43,0,0,0,3.64,1.92,4.21,4.21,0,0,0,3.6-1.92l2.18,1.78A7.14,7.14,0,0,1,529.45,241.53Z" transform="translate(-196.98 -207.81)"/><path class="d" d="M407.51,297.58l-5.79-8.3-1.49,1.85v6.45h-5.69v-22h5.69v9.06l6.78-9.06h7l-8.56,10.31,9,11.74Z" transform="translate(-196.98 -207.81)"/><path class="d" d="M414.55,286.57c0-6.71,5.06-11.4,11.8-11.4s11.77,4.69,11.77,11.4-5,11.4-11.77,11.4S414.55,293.28,414.55,286.57Zm17.78,0c0-3.6-2.35-6.38-6-6.38s-6,2.78-6,6.38,2.35,6.38,6,6.38S432.33,290.14,432.33,286.57Z" transform="translate(-196.98 -207.81)"/><path class="d" d="M456.46,297.58v-8.86H447.3v8.86h-5.69v-22h5.69v8.23h9.16v-8.23h5.69v22Z" transform="translate(-196.98 -207.81)"/><path class="d" d="M465.95,286.57c0-6.81,5.16-11.4,11.93-11.4a10.17,10.17,0,0,1,9.62,5.92l-4.89,2.31a5.29,5.29,0,0,0-4.73-3.21,6.38,6.38,0,0,0,0,12.76,5.29,5.29,0,0,0,4.73-3.21l4.89,2.31a10.24,10.24,0,0,1-9.62,5.92C471.1,298,465.95,293.35,465.95,286.57Z" transform="translate(-196.98 -207.81)"/><path class="d" d="M489.38,296.29l2.25-4.43a4.93,4.93,0,0,0,2.84,1.09,2.73,2.73,0,0,0,2.71-1.65l-8-15.77h6.41l4.76,10.31,4.79-10.31h6.41l-9,17.72A8,8,0,0,1,495,298,9.19,9.19,0,0,1,489.38,296.29Z" transform="translate(-196.98 -207.81)"/><path class="d" d="M510,292.95c2,0,3.37-1.22,4-6.25l1.32-11.17h16.43v22H526V280.49h-5.62l-.79,6.64C518.57,296.06,514.8,298,510,298Z" transform="translate(-196.98 -207.81)"/><path class="d" d="M543.33,275.53v7.4h5.36c5,0,7.67,3.34,7.67,7.31s-2.71,7.34-7.67,7.34h-11v-22Zm0,12.36v4.73h4.59a2.38,2.38,0,1,0,0-4.73Z" transform="translate(-196.98 -207.81)"/><path class="d" d="M561.47,297.58V280.49h-6.18v-5h18v5h-6.15v17.09Z" transform="translate(-196.98 -207.81)"/><path class="d" d="M590.3,297.58l-1.09-3.17h-8.69l-1.09,3.17H573l8.3-22h7.14l8.33,22Zm-5.45-16.43-2.81,8.3h5.62Z" transform="translate(-196.98 -207.81)"/><path class="d" d="M614.16,297.58v-8.86H605v8.86h-5.69v-22H605v8.23h9.16v-8.23h5.69v22Z" transform="translate(-196.98 -207.81)"/><path class="d" d="M629.7,297.58V280.49h-6.18v-5h18v5h-6.15v17.09Z" transform="translate(-196.98 -207.81)"/><path class="e" d="M394.76,325.27V313.76a1.46,1.46,0,0,1,1.62-1.62h6.26c3.24,0,4.85,1.62,4.85,3.79a3.41,3.41,0,0,1-2.47,3.36,3.68,3.68,0,0,1,2.75,3.6c0,2.35-1.62,4-5,4h-6.35A1.46,1.46,0,0,1,394.76,325.27Zm7.88-10.72h-5.13v3.57h5.13a1.8,1.8,0,1,0,0-3.57Zm.09,6h-5.22v3.94h5.22c1.37,0,2.2-.73,2.2-2A2,2,0,0,0,402.73,320.54Z" transform="translate(-196.98 -207.81)"/><path class="e" d="M418.34,319.5c0-4.24,2.87-7.72,7.45-7.72s7.45,3.48,7.45,7.72-2.84,7.75-7.45,7.75S418.34,323.78,418.34,319.5Zm12,0c0-2.78-1.62-5.28-4.58-5.28s-4.58,2.5-4.58,5.28,1.65,5.31,4.58,5.31S430.37,322.31,430.37,319.5Z" transform="translate(-196.98 -207.81)"/><path class="e" d="M436.72,325.67v-12.3a1.37,1.37,0,0,1,1.37-1.37,1.39,1.39,0,0,1,1.37,1.37v4.76h7.21v-4.76A1.39,1.39,0,0,1,448,312a1.37,1.37,0,0,1,1.37,1.37v12.3A1.37,1.37,0,0,1,448,327a1.39,1.39,0,0,1-1.37-1.37v-5.13h-7.21v5.13a1.39,1.39,0,0,1-1.37,1.37A1.37,1.37,0,0,1,436.72,325.67Z" transform="translate(-196.98 -207.81)"/><path class="e" d="M466.37,325.67A1.34,1.34,0,0,1,465,327a1.29,1.29,0,0,1-1.07-.46l-5.1-6-2.29,2.14v3a1.39,1.39,0,0,1-1.4,1.37,1.36,1.36,0,0,1-1.34-1.37v-12.3a1.37,1.37,0,0,1,1.37-1.37,1.39,1.39,0,0,1,1.37,1.37v6.26l7.42-7.3a1.19,1.19,0,0,1,.89-.34,1.28,1.28,0,0,1,1.25,1.28,1.31,1.31,0,0,1-.4.89l-4.85,4.73,5.16,5.86A1.47,1.47,0,0,1,466.37,325.67Z" transform="translate(-196.98 -207.81)"/><path class="e" d="M468,319.5c0-4.24,2.87-7.72,7.45-7.72s7.45,3.48,7.45,7.72-2.84,7.75-7.45,7.75S468,323.78,468,319.5Zm12,0c0-2.78-1.62-5.28-4.58-5.28s-4.58,2.5-4.58,5.28,1.65,5.31,4.58,5.31S480.08,322.31,480.08,319.5Z" transform="translate(-196.98 -207.81)"/><path class="e" d="M496,325.67V314.56H490.4l-.12,1.28c-.52,7.33-2,10.2-4.06,11.11a1.61,1.61,0,0,1-.58.12,1.38,1.38,0,0,1-1.4-1.4,1.42,1.42,0,0,1,.76-1.22c1.31-.55,2.23-2.78,2.72-8.73l.15-2a1.49,1.49,0,0,1,1.68-1.56h7.6a1.46,1.46,0,0,1,1.62,1.62v11.91a1.37,1.37,0,0,1-1.37,1.37A1.39,1.39,0,0,1,496,325.67Z" transform="translate(-196.98 -207.81)"/><path class="e" d="M501.94,319.5c0-4.24,2.87-7.72,7.45-7.72s7.45,3.48,7.45,7.72-2.84,7.75-7.45,7.75S501.94,323.78,501.94,319.5Zm12,0c0-2.78-1.62-5.28-4.58-5.28s-4.58,2.5-4.58,5.28,1.65,5.31,4.58,5.31S514,322.31,514,319.5Z" transform="translate(-196.98 -207.81)"/><path class="e" d="M520,325.67V313.76a1.46,1.46,0,0,1,1.62-1.62h8.06a1.21,1.21,0,1,1,0,2.41h-6.93v11.11a1.39,1.39,0,0,1-1.37,1.37A1.37,1.37,0,0,1,520,325.67Z" transform="translate(-196.98 -207.81)"/><path class="e" d="M533,325.39v-12a1.37,1.37,0,0,1,1.37-1.37,1.39,1.39,0,0,1,1.37,1.37v9.37l6.81-10A1.64,1.64,0,0,1,544,312a1.73,1.73,0,0,1,1.71,1.71v12a1.37,1.37,0,0,1-1.37,1.37,1.39,1.39,0,0,1-1.37-1.37v-9.62L536,326.31a1.65,1.65,0,0,1-3-.92Z" transform="translate(-196.98 -207.81)"/><path class="e" d="M550.37,325.39v-12a1.37,1.37,0,0,1,1.37-1.37,1.39,1.39,0,0,1,1.37,1.37v9.37l6.81-10a1.64,1.64,0,0,1,1.44-.76,1.73,1.73,0,0,1,1.71,1.71v12A1.37,1.37,0,0,1,561.7,327a1.39,1.39,0,0,1-1.37-1.37v-9.62l-6.93,10.26a1.65,1.65,0,0,1-3-.92Z" transform="translate(-196.98 -207.81)"/></g></svg>