<svg xmlns="http://www.w3.org/2000/svg" xmlns:xlink="http://www.w3.org/1999/xlink" width="192" height="51.746" viewBox="0 0 192 51.746"><defs><linearGradient id="a" y1="0.5" x2="1" y2="0.5" gradientUnits="objectBoundingBox"><stop offset="0" stop-color="#c1007d"/><stop offset="0.33" stop-color="#d9003f"/><stop offset="0.66" stop-color="#f47b00"/><stop offset="1" stop-color="#fadb00"/></linearGradient></defs><g transform="translate(-58.102 -76.944)"><path d="M101.231,121.257a24.008,24.008,0,0,0-3.8-9.847c-.241-.351-.492-.69-.75-1.019-.358-.457-.731-.9-1.121-1.309q-.518-.55-1.071-1.046a16.062,16.062,0,0,0-3.149-2.218,9.193,9.193,0,0,1-2.828,2,12.879,12.879,0,0,1,4.376,2.862,15.908,15.908,0,0,1,1.121,1.213,17.632,17.632,0,0,1,1.518,2.138q.455.751.851,1.563a21.316,21.316,0,0,1,1.522,4.233,14.678,14.678,0,0,1,.376,1.857,6.084,6.084,0,0,1,.061,1.2,2.93,2.93,0,0,1-.836,2.062,2.986,2.986,0,0,1-3.8.1,2.692,2.692,0,0,1-1.037-2.188c.007-.146.044-.437.061-.583a20.037,20.037,0,0,1,.44-2.35,21.7,21.7,0,0,1,1.541-4.33,16.467,16.467,0,0,0-1.887-2.809,24.714,24.714,0,0,0-3.051,9.094l-.02.145c-.019.137-.037.262-.048.391l-.019.41a5.844,5.844,0,0,0,5.834,5.839,6.042,6.042,0,0,0,2.881-.7,5.44,5.44,0,0,0,2.295-2.358,6.616,6.616,0,0,0,.634-2.68A14.153,14.153,0,0,0,101.231,121.257ZM90.962,103.964a7.688,7.688,0,1,0-12.381.03,15.354,15.354,0,0,1,3.077-1.02,4.67,4.67,0,1,1,4.9.81,3.847,3.847,0,0,1-1.089.306c-.215.022-.828.046-.863.046a13.431,13.431,0,0,0-4.971,1.026,14.758,14.758,0,0,0-1.445.688c-5.264,2.867-9.224,9.064-10.068,16.607l-.073.712a2.89,2.89,0,0,1-2.862,2.511c-1.734,0-2.576-1.329-2.985-2.624-.054-.171-.1-.342-.142-.509a1.49,1.49,0,0,0-2.909.64c0,.019.119.488.183.695a7.467,7.467,0,0,0,1.848,3.163,5.585,5.585,0,0,0,4,1.62,5.89,5.89,0,0,0,5.826-5.151l.076-.737c.809-7.23,4.817-13.018,9.92-14.959a10.539,10.539,0,0,1,3.595-.7c.051,0,.917-.038,1.221-.068a6.6,6.6,0,0,0,2.093-.61,7.907,7.907,0,0,0,3.042-2.48ZM95.5,76.944a37.4,37.4,0,0,0-36.86,43.708,2.981,2.981,0,0,1,2.925-.589,34.414,34.414,0,1,1,68.348-5.722,34.266,34.266,0,0,1-2.272,12.322,1.492,1.492,0,1,0,2.786,1.069A37.42,37.42,0,0,0,95.5,76.944Zm17.015,27.039a7.685,7.685,0,1,0-12.377-.006,15.532,15.532,0,0,1,3.09-1.01,4.677,4.677,0,1,1,3.471,1.163l-.509.007a13.36,13.36,0,0,0-2.6.284,13.961,13.961,0,0,0-2.395.727,15.71,15.71,0,0,0-4.567,2.887,20.849,20.849,0,0,1,1.887,2.317,12.25,12.25,0,0,1,5.411-2.95,10.451,10.451,0,0,1,2.266-.282l.666-.011a7.64,7.64,0,0,0,4.6-1.952A7.786,7.786,0,0,0,112.513,103.983ZM122.8,121.257a20.787,20.787,0,0,0-.705-3.171c-1.616-5.563-4.994-9.966-9.2-12.245a9.218,9.218,0,0,1-2.821,1.975c4.075,1.542,7.459,5.532,9.067,10.8a17.078,17.078,0,0,1,.706,3.068c.034.3.065.957.061,1.2a2.685,2.685,0,0,1-2.826,2.8,2.889,2.889,0,0,1-2.886-2.886,1.492,1.492,0,1,0-2.984,0,5.876,5.876,0,0,0,5.87,5.87,5.741,5.741,0,0,0,4.422-1.93,5.822,5.822,0,0,0,1.388-3.812A12.527,12.527,0,0,0,122.8,121.257Z" transform="translate(0)" fill="url(#a)"/><g transform="translate(143.431 89.479)"><path d="M230.47,116.691v-9.523h4.769a3.165,3.165,0,1,1,0,6.324h-2.313v3.2Zm5.583-6.353a1.022,1.022,0,0,0-1.143-1.028h-1.985v2.042h1.985A1.02,1.02,0,0,0,236.053,110.337Z" transform="translate(-230.47 -104.741)" fill="#101010"/><path d="M253.207,116.691l-.471-1.371h-3.755l-.471,1.371h-2.784l3.583-9.523h3.084l3.6,9.523Zm-2.356-7.1-1.213,3.584h2.427Z" transform="translate(-238.174 -104.741)" fill="#101010"/><path d="M268.71,116.691v-9.523h5.4a2.5,2.5,0,0,1,2.784,2.427,2.127,2.127,0,0,1-1.628,2.184,2.28,2.28,0,0,1,1.813,2.327,2.534,2.534,0,0,1-2.8,2.584Zm5.682-6.668a.781.781,0,0,0-.842-.785h-2.385v1.585h2.385A.784.784,0,0,0,274.392,110.023Zm.186,3.741a.857.857,0,0,0-.942-.857h-2.47v1.713h2.47A.842.842,0,0,0,274.578,113.764Z" transform="translate(-249.78 -104.741)" fill="#101010"/><path d="M295.855,116.691v-3.826H291.9v3.826h-2.455v-9.523H291.9v3.555h3.955v-3.555h2.456v9.523Z" transform="translate(-260.25 -104.741)" fill="#101010"/><path d="M314.394,107.168v3.2h2.313a3.166,3.166,0,1,1,0,6.325h-4.768v-9.523Zm0,5.339v2.042h1.985a1.027,1.027,0,1,0,0-2.042Zm6.325,4.183v-9.523h2.455v9.523Z" transform="translate(-271.609 -104.741)" fill="#101010"/><path d="M339.22,114.215v-9.523h2.456V110.3l3.855-5.611h2.541v9.523H345.6v-5.883l-4.012,5.883Zm4.426-9.923a3.15,3.15,0,0,1-2.513-1.256l.943-.771a1.912,1.912,0,0,0,1.57.828,1.82,1.82,0,0,0,1.556-.828l.942.771A3.081,3.081,0,0,1,343.646,104.292Z" transform="translate(-285.385 -102.265)" fill="#101010"/><path d="M236.067,145.545l-2.5-3.584-.643.8v2.784H230.47v-9.523h2.455v3.912l2.927-3.912h3.027l-3.7,4.454,3.9,5.068Z" transform="translate(-230.47 -119.311)" fill="#101010"/><path d="M247.918,140.63a5.092,5.092,0,1,1,5.1,4.926A4.846,4.846,0,0,1,247.918,140.63Zm7.68,0a2.6,2.6,0,1,0-2.584,2.756A2.566,2.566,0,0,0,255.6,140.63Z" transform="translate(-239.281 -119.151)" fill="#101010"/><path d="M277.946,145.545v-3.826h-3.954v3.826h-2.456v-9.523h2.456v3.555h3.954v-3.555H280.4v9.523Z" transform="translate(-251.207 -119.311)" fill="#101010"/><path d="M292.762,140.63a4.861,4.861,0,0,1,5.154-4.925,4.394,4.394,0,0,1,4.154,2.555l-2.113,1a2.287,2.287,0,0,0-2.042-1.385,2.757,2.757,0,0,0,0,5.511A2.287,2.287,0,0,0,299.957,142l2.113,1a4.423,4.423,0,0,1-4.154,2.555A4.87,4.87,0,0,1,292.762,140.63Z" transform="translate(-261.925 -119.151)" fill="#101010"/><path d="M313.135,144.988l.971-1.913a2.126,2.126,0,0,0,1.228.471,1.181,1.181,0,0,0,1.171-.714l-3.441-6.81h2.77l2.056,4.454,2.07-4.454h2.77l-3.869,7.653a3.434,3.434,0,0,1-3.312,2.041A3.969,3.969,0,0,1,313.135,144.988Z" transform="translate(-272.176 -119.311)" fill="#101010"/><path d="M331.174,143.546c.885,0,1.456-.528,1.728-2.7l.571-4.826h7.1v9.523h-2.455v-7.381h-2.427l-.343,2.87c-.456,3.854-2.084,4.683-4.169,4.683Z" transform="translate(-281.322 -119.311)" fill="#101010"/><path d="M357.768,136.022v3.2h2.313a3.166,3.166,0,1,1,0,6.325h-4.769v-9.523Zm0,5.339V143.4h1.984a1.027,1.027,0,1,0,0-2.042Z" transform="translate(-293.511 -119.311)" fill="#101010"/><path d="M373.382,145.545v-7.381h-2.67v-2.142h7.781v2.142h-2.656v7.381Z" transform="translate(-301.287 -119.311)" fill="#101010"/><path d="M393.621,145.545l-.471-1.371H389.4l-.471,1.371H386.14l3.584-9.523h3.084l3.6,9.523Zm-2.356-7.1-1.213,3.584h2.427Z" transform="translate(-309.078 -119.311)" fill="#101010"/><path d="M415.535,145.545v-3.826H411.58v3.826h-2.455v-9.523h2.455v3.555h3.955v-3.555h2.455v9.523Z" transform="translate(-320.684 -119.311)" fill="#101010"/><path d="M432.9,145.545v-7.381h-2.67v-2.142h7.781v2.142H435.36v7.381Z" transform="translate(-331.343 -119.311)" fill="#101010"/><path d="M230.657,173.638v-4.971a.633.633,0,0,1,.7-.7h2.7c1.4,0,2.1.7,2.1,1.635a1.471,1.471,0,0,1-1.068,1.45,1.59,1.59,0,0,1,1.187,1.556c0,1.015-.7,1.727-2.176,1.727h-2.742A.633.633,0,0,1,230.657,173.638Zm3.4-4.628h-2.215v1.543h2.215a.778.778,0,1,0,0-1.543Zm.04,2.585h-2.254v1.7H234.1c.594,0,.949-.317.949-.844A.858.858,0,0,0,234.1,171.594Z" transform="translate(-230.564 -135.443)" fill="#d9003f"/><path d="M251.224,170.984a3.22,3.22,0,1,1,3.217,3.349A3.161,3.161,0,0,1,251.224,170.984Zm5.195,0a2,2,0,1,0-1.978,2.294A2.062,2.062,0,0,0,256.419,170.984Z" transform="translate(-240.95 -135.281)" fill="#d9003f"/><path d="M267.262,173.742v-5.314a.59.59,0,0,1,.593-.594.6.6,0,0,1,.594.594v2.056h3.112v-2.056a.6.6,0,0,1,.594-.594.591.591,0,0,1,.593.594v5.314a.591.591,0,0,1-.593.593.6.6,0,0,1-.594-.593v-2.215h-3.112v2.215a.6.6,0,0,1-.594.593A.591.591,0,0,1,267.262,173.742Z" transform="translate(-249.049 -135.375)" fill="#d9003f"/><path d="M287.6,173.742a.58.58,0,0,1-.58.593.56.56,0,0,1-.462-.2l-2.2-2.6-.989.923v1.279a.6.6,0,0,1-.606.593.588.588,0,0,1-.58-.593v-5.314a.591.591,0,0,1,.594-.594.6.6,0,0,1,.593.594v2.7l3.2-3.151a.514.514,0,0,1,.382-.145.554.554,0,0,1,.541.553.566.566,0,0,1-.172.383l-2.1,2.044,2.229,2.532A.638.638,0,0,1,287.6,173.742Z" transform="translate(-256.582 -135.375)" fill="#d9003f"/><path d="M294.595,170.984a3.22,3.22,0,1,1,3.218,3.349A3.161,3.161,0,0,1,294.595,170.984Zm5.2,0a2,2,0,1,0-1.978,2.294A2.062,2.062,0,0,0,299.79,170.984Z" transform="translate(-262.851 -135.281)" fill="#d9003f"/><path d="M313.8,173.809v-4.8h-2.426l-.053.554c-.224,3.165-.844,4.4-1.753,4.8a.7.7,0,0,1-.25.053.6.6,0,0,1-.607-.606.613.613,0,0,1,.33-.528c.567-.237.962-1.2,1.174-3.771l.066-.87a.645.645,0,0,1,.725-.672h3.283a.632.632,0,0,1,.7.7v5.143a.591.591,0,0,1-.594.593A.6.6,0,0,1,313.8,173.809Z" transform="translate(-269.981 -135.443)" fill="#d9003f"/><path d="M324.167,170.984a3.22,3.22,0,1,1,3.217,3.349A3.161,3.161,0,0,1,324.167,170.984Zm5.195,0a2,2,0,1,0-1.978,2.294A2.062,2.062,0,0,0,329.362,170.984Z" transform="translate(-277.784 -135.281)" fill="#d9003f"/><path d="M339.938,173.809v-5.143a.632.632,0,0,1,.7-.7h3.481a.521.521,0,1,1,0,1.042h-2.993v4.8a.6.6,0,0,1-.593.593A.591.591,0,0,1,339.938,173.809Z" transform="translate(-285.747 -135.443)" fill="#d9003f"/><path d="M351.234,173.623v-5.195a.59.59,0,0,1,.593-.594.6.6,0,0,1,.594.594v4.048l2.94-4.312a.708.708,0,0,1,.62-.33.746.746,0,0,1,.739.738v5.169a.591.591,0,0,1-.594.593.6.6,0,0,1-.593-.593v-4.153l-2.993,4.43a.716.716,0,0,1-.594.316A.709.709,0,0,1,351.234,173.623Z" transform="translate(-291.451 -135.375)" fill="#d9003f"/><path d="M366.419,173.623v-5.195a.591.591,0,0,1,.593-.594.6.6,0,0,1,.594.594v4.048l2.94-4.312a.707.707,0,0,1,.62-.33.745.745,0,0,1,.738.738v5.169a.591.591,0,0,1-.593.593.6.6,0,0,1-.594-.593v-4.153l-2.993,4.43a.713.713,0,0,1-1.305-.4Z" transform="translate(-299.119 -135.375)" fill="#d9003f"/></g></g></svg>