<svg id="Слой_1" data-name="Слой 1" xmlns="http://www.w3.org/2000/svg" viewBox="0 0 123 41.2"><defs><style>.cls-1{fill:#cd9c60;}.cls-2{fill:#e3c9a6;}.cls-3{fill:#252424;}</style></defs><title>logo-3</title><path class="cls-1" d="M161.59,6.31h-17.4a4.2,4.2,0,0,0-3.94,2.76l-6.74,18.51a4.18,4.18,0,0,1-3.93,2.75H147a4.2,4.2,0,0,0,3.94-2.76l6.74-18.52A4.19,4.19,0,0,1,161.59,6.31Z" transform="translate(-124 0)"/><path class="cls-2" d="M139,8.62A5.52,5.52,0,0,1,144.19,5h1.74l1-2.76A3.42,3.42,0,0,1,150.14,0H135.93a3.41,3.41,0,0,0-3.21,2.25l-5.5,15.12A3.44,3.44,0,0,1,124,19.62h11Z" transform="translate(-124 0)"/><path class="cls-3" d="M166.39,14.63h.53a2.89,2.89,0,0,1,1,.14,2.25,2.25,0,0,1,.77.43,1.92,1.92,0,0,1,.5.7,2.55,2.55,0,0,1,.18,1,2.22,2.22,0,0,1-.2.95,2.08,2.08,0,0,1-.52.72,2.5,2.5,0,0,1-.78.44,2.91,2.91,0,0,1-.92.15h-.53v.76h-1.31v-.76h-.52a3.28,3.28,0,0,1-1-.15,2.05,2.05,0,0,1-.76-.43,2.19,2.19,0,0,1-.5-.7,2.35,2.35,0,0,1-.17-.95,2.18,2.18,0,0,1,1.49-2.11,2.6,2.6,0,0,1,.92-.14h.52v-.79h1.31Zm-1.79,1.13a1,1,0,0,0-1.13.91,1.48,1.48,0,0,0,0,.21,1.06,1.06,0,0,0,.3.8,1.21,1.21,0,0,0,.84.28h.47v-2.2ZM166.87,18a1,1,0,0,0,1.14-.91.67.67,0,0,0,0-.2,1,1,0,0,0-.3-.8,1.15,1.15,0,0,0-.83-.28h-.48V18Z" transform="translate(-124 0)"/><path class="cls-3" d="M174.85,14.07a3,3,0,0,1,1,.65,3.08,3.08,0,0,1,.64,1,3.19,3.19,0,0,1,.23,1.22,3.28,3.28,0,0,1-.23,1.2,3,3,0,0,1-.65,1,3,3,0,0,1-1,.66,3.09,3.09,0,0,1-1.27.24,3.28,3.28,0,0,1-1.27-.23,3.09,3.09,0,0,1-1-.65,3,3,0,0,1-.65-1,3.3,3.3,0,0,1,0-2.42,3.05,3.05,0,0,1,.65-1,3.21,3.21,0,0,1,1-.65,3.27,3.27,0,0,1,1.27-.25A3.49,3.49,0,0,1,174.85,14.07Zm-2,1.1a1.73,1.73,0,0,0-.93,1,2.34,2.34,0,0,0,0,1.48,1.66,1.66,0,0,0,.36.6,1.63,1.63,0,0,0,.58.4,2,2,0,0,0,1.53,0,1.54,1.54,0,0,0,.57-.41,1.75,1.75,0,0,0,.36-.6,2,2,0,0,0,.11-.73,2,2,0,0,0-.12-.76,1.75,1.75,0,0,0-.36-.6,1.64,1.64,0,0,0-.57-.4,2.06,2.06,0,0,0-1.52,0Z" transform="translate(-124 0)"/><path class="cls-3" d="M179.37,16.27H182V14h1.33v5.92H182V17.5h-2.59v2.38H178V14h1.33Z" transform="translate(-124 0)"/><path class="cls-3" d="M190.36,18.68h.86v.37l-.12,2.06h-1.19l0-1.23h-4l-.07,1.23h-1.2l-.07-2.05v-.37h.24a.59.59,0,0,0,.37-.13,1,1,0,0,0,.31-.41,5,5,0,0,0,.35-1.37,14.49,14.49,0,0,0,.1-1.86V14h4.47ZM187,17.29a5.15,5.15,0,0,1-.4,1.39H189V15.15H187.2a14,14,0,0,1-.16,2.14Z" transform="translate(-124 0)"/><path class="cls-3" d="M167.62,30.47h-1.33V25.79h-2.51v4.68h-1.33V24.56h5.17Z" transform="translate(-124 0)"/><path class="cls-3" d="M172.85,24.71a2.31,2.31,0,0,1,.74.44,1.69,1.69,0,0,1,.48.67,2,2,0,0,1,.17.88,2.07,2.07,0,0,1-.19.91,2,2,0,0,1-.52.68,2.27,2.27,0,0,1-.78.42,3.17,3.17,0,0,1-1,.15h-1.2v1.61h-1.33V24.56h2.63A3.17,3.17,0,0,1,172.85,24.71Zm-1.07,3a1.24,1.24,0,0,0,.83-.27,1,1,0,0,0,0-1.42,1.12,1.12,0,0,0-.81-.26h-1.25v2Z" transform="translate(-124 0)"/><path class="cls-3" d="M179.91,25.75h-3.12v1.11h2.78V28h-2.78v1.26h3.27v1.19h-4.57V24.56h4.42Z" transform="translate(-124 0)"/><path class="cls-3" d="M184.5,26.71a.49.49,0,0,0,.17-.41.57.57,0,0,0-.23-.51,1.35,1.35,0,0,0-.76-.17,2.46,2.46,0,0,0-1.56.56l-.69-.91a3.32,3.32,0,0,1,1.07-.63,3.58,3.58,0,0,1,1.26-.2,3.73,3.73,0,0,1,.94.12,2.14,2.14,0,0,1,.71.35,1.57,1.57,0,0,1,.44.52,1.45,1.45,0,0,1,.16.68,1.48,1.48,0,0,1-.16.68,1.12,1.12,0,0,1-.46.48v.08a1.28,1.28,0,0,1,.66.48,1.4,1.4,0,0,1,.24.84,1.9,1.9,0,0,1-.16.77,1.78,1.78,0,0,1-.49.6,2.43,2.43,0,0,1-.8.41,3.55,3.55,0,0,1-1.13.15,6.11,6.11,0,0,1-.73-.05,3.61,3.61,0,0,1-.65-.15,3.15,3.15,0,0,1-.59-.27,3.78,3.78,0,0,1-.56-.4l.7-1a3.19,3.19,0,0,0,.92.51,3.43,3.43,0,0,0,1,.15,1.49,1.49,0,0,0,.87-.22.67.67,0,0,0,.28-.57c0-.41-.26-.62-.8-.62h-1.49V26.87H184A.77.77,0,0,0,184.5,26.71Z" transform="translate(-124 0)"/><path class="cls-3" d="M188.92,28.5l2.86-3.94h1.16v5.91h-1.31V26.76l-2.72,3.71h-1.3V24.56h1.3Z" transform="translate(-124 0)"/><path class="cls-3" d="M200,29.28h.86v.36l-.12,2.07h-1.19l-.05-1.24h-4l-.07,1.24h-1.2l-.07-2.06v-.36h.24a.59.59,0,0,0,.37-.13.93.93,0,0,0,.31-.42,4.86,4.86,0,0,0,.35-1.36,14.49,14.49,0,0,0,.1-1.86v-1H200Zm-3.32-1.39a4.82,4.82,0,0,1-.4,1.39h2.4V25.74h-1.84a12.89,12.89,0,0,1-.16,2.15Z" transform="translate(-124 0)"/><path class="cls-3" d="M206.54,25.75h-3.12v1.11h2.79V28h-2.79v1.26h3.27v1.19h-4.57V24.56h4.42Z" transform="translate(-124 0)"/><path class="cls-3" d="M209.43,26.87H212V24.56h1.33v5.91H212V28.1h-2.59v2.37H208.1V24.56h1.33Z" transform="translate(-124 0)"/><path class="cls-3" d="M219.93,25.76h-2v4.71H216.6V25.76h-2v-1.2h5.35Z" transform="translate(-124 0)"/><path class="cls-3" d="M224.91,25.79a2.53,2.53,0,0,0-.9-.14,2.12,2.12,0,0,0-.79.13,1.83,1.83,0,0,0-.6.39,2,2,0,0,0-.38.6,2.21,2.21,0,0,0,0,1.52,1.79,1.79,0,0,0,.39.59,1.93,1.93,0,0,0,.59.38,2,2,0,0,0,.76.13,2.34,2.34,0,0,0,.94-.17,2.31,2.31,0,0,0,.78-.5l.75.93a3.86,3.86,0,0,1-3.8.74A2.73,2.73,0,0,1,221,28.8a3.2,3.2,0,0,1-.23-1.26,3.08,3.08,0,0,1,.22-1.2,2.91,2.91,0,0,1,1.67-1.65,3.56,3.56,0,0,1,1.36-.25,3.83,3.83,0,0,1,1.26.21,3.13,3.13,0,0,1,1,.6l-.73,1A2.32,2.32,0,0,0,224.91,25.79Z" transform="translate(-124 0)"/><path class="cls-3" d="M229,26.81l.64-.07,1.67-2.18h1.63l-2.2,2.76,2.41,3.15h-1.7L229.65,28H229v2.52h-1.31V24.56H229Z" transform="translate(-124 0)"/><path class="cls-3" d="M235.66,28.5l2.86-3.94h1.17v5.91h-1.32V26.76l-2.72,3.71h-1.3V24.56h1.31Z" transform="translate(-124 0)"/><path class="cls-3" d="M243.92,26.67H244l1.17-2.11h1.63l-1.88,2.91,2.07,3h-1.71L244,28.2h-.08l-1.31,2.27h-1.7l2.07-3.07-1.89-2.84h1.66Z" transform="translate(-124 0)"/><path class="cls-3" d="M166.92,36.36h-3.15v4.71h-1.32V35.16h4.47Z" transform="translate(-124 0)"/><path class="cls-3" d="M171.71,35.31a2.16,2.16,0,0,1,.75.43,1.88,1.88,0,0,1,.48.67,2.42,2.42,0,0,1,.17.88,2.18,2.18,0,0,1-.19.91,1.85,1.85,0,0,1-.53.68,2.29,2.29,0,0,1-.78.43,3.16,3.16,0,0,1-1,.14h-1.2v1.62h-1.32V35.15h2.63A2.85,2.85,0,0,1,171.71,35.31Zm-1.07,3a1.19,1.19,0,0,0,.83-.27.85.85,0,0,0,.3-.71.9.9,0,0,0-.26-.7,1.1,1.1,0,0,0-.81-.26h-1.26v1.94Z" transform="translate(-124 0)"/><path class="cls-3" d="M179.86,41.07h-1.47l-.45-1.17h-2.53L175,41.07h-1.44L176,35.15h1.46Zm-2.35-2.34-.79-2.25h-.09l-.79,2.25Z" transform="translate(-124 0)"/><path class="cls-3" d="M182.39,37.47H185V35.16h1.34v5.91H185V38.7h-2.59v2.37h-1.33V35.16h1.33Z" transform="translate(-124 0)"/><path class="cls-3" d="M192.89,36.36h-2v4.71h-1.31V36.36h-2v-1.2h5.36Z" transform="translate(-124 0)"/><path class="cls-3" d="M198.18,35.27a2.71,2.71,0,0,1,1,.65,3,3,0,0,1,.64,1,3.24,3.24,0,0,1,.23,1.23,3.12,3.12,0,0,1-.23,1.2A3,3,0,0,1,198.17,41a3.52,3.52,0,0,1-2.53,0,3.14,3.14,0,0,1-1-.65,2.78,2.78,0,0,1-.64-1,3,3,0,0,1-.23-1.22,2.92,2.92,0,0,1,.23-1.2,2.78,2.78,0,0,1,.64-1,3.35,3.35,0,0,1,1-.66A3.4,3.4,0,0,1,196.9,35,3.3,3.3,0,0,1,198.18,35.27Zm-2.05,1.1a1.73,1.73,0,0,0-.57.4,1.85,1.85,0,0,0-.36.6,2.37,2.37,0,0,0,0,1.49,1.7,1.7,0,0,0,.94,1,2.12,2.12,0,0,0,1.53,0,1.81,1.81,0,0,0,.57-.41,1.85,1.85,0,0,0,.36-.6,2.37,2.37,0,0,0,0-1.49,1.89,1.89,0,0,0-.36-.61,1.73,1.73,0,0,0-.57-.4,2.28,2.28,0,0,0-.77-.14,1.86,1.86,0,0,0-.77.15Z" transform="translate(-124 0)"/><path class="cls-3" d="M205.5,35.59a1.46,1.46,0,0,1,.53,1.18,1.49,1.49,0,0,1-.15.66,1.05,1.05,0,0,1-.42.44V38a1.28,1.28,0,0,1,.69.5,1.39,1.39,0,0,1,.26.86,1.79,1.79,0,0,1-.13.68,1.41,1.41,0,0,1-.4.56,2,2,0,0,1-.68.38,3,3,0,0,1-1,.14h-2.86V35.16H204A2.34,2.34,0,0,1,205.5,35.59ZM204,37.49a.8.8,0,0,0,.52-.16.56.56,0,0,0,.19-.45c0-.39-.25-.59-.76-.59h-1.3v1.2Zm.21,2.45c.58,0,.87-.23.87-.7a.56.56,0,0,0-.23-.5,1.07,1.07,0,0,0-.65-.18h-1.55v1.38Z" transform="translate(-124 0)"/></svg>